<svg width="1071" height="1070" viewBox="0 0 1071 1070" fill="none" xmlns="http://www.w3.org/2000/svg">
<path d="M543.4 9.40015C538.4 10.6002 530.5 15.6002 526.6 19.9001C524.7 22.0001 522.8 22.7002 523.2 21.2002C523.3 20.8002 523.1 18.8002 522.6 16.7002C522.1 13.9001 521 12.4001 518.7 11.0001C512.2 7.00012 503.8 9.60022 494 18.6002L488.3 23.9001L487.1 20.0001C484.7 12.1002 477.8 10.0001 468.5 14.4001C464 16.5001 454 25.3002 454 27.2002C454 27.6002 453.6 28.0001 453 28.0001C452.5 28.0001 452 27.2002 452 26.1002C452 21.1002 444 16.2002 438 17.5001C433.7 18.4001 425.5 25.0001 420.9 31.0001C417.8 35.2002 417 35.8002 417 34.0001C417 30.5001 410.8 25.0001 406.9 25.0001C399.5 25.1002 391.3 31.3002 385.8 40.9002C384.5 43.2002 383.3 45.0002 383 45.0002C382.7 45.0002 381.7 43.2002 380.7 41.1002C375.3 29.4001 360.8 34.9001 351.8 52.3002C349.2 57.4002 349.1 57.4002 348.1 54.9002C346.5 50.6002 342.3 48.0002 337.1 48.0002C332.8 48.0002 332.2 48.4002 326.9 53.9002C323.9 57.1002 320.3 62.2002 319 65.2002L316.6 70.6002L312.8 66.7002C309.3 63.0002 308.7 62.8002 304.7 63.2002C302.3 63.5002 299.1 64.6002 297.5 65.6002C293.9 67.9002 287.2 78.2002 285.8 83.5002L284.7 87.5002L281 83.7002C276.8 79.6002 273 78.9002 268.2 81.4002C263 84.1002 257.9 92.0002 255 101.6L253.8 105.6L251 102.9C242.3 94.1002 230.5 102 226.4 119.5L224.6 127L221.6 124.1C217.2 120.1 214.2 119.6 209 122.3C203.7 125 200.8 130.1 198.4 141.1L196.7 148.7L193.2 146.4C191.3 145.1 188.5 144 187 144C179.5 144 172.5 154.1 171.4 166.6L170.7 173.8L167.1 171.3C156.9 164.3 147 175.2 147 193.3C147 197.1 146.7 200 146.3 199.8C137.6 195.3 133.9 195.3 129.8 199.8C125.5 204.3 124.7 207.1 124.2 217.7L123.7 227.9L120.9 226.5C114.2 223 107.6 225.8 104.4 233.7C102.8 237.5 102.3 249.5 103.5 255L104.1 257.9L101 256.3C97.2002 254.4 90.7002 255 88.0002 257.5C83.4002 261.7 82.1002 272.5 84.6002 284.8C85.3002 288 85.2002 288 82.4002 287C76.3002 284.6 69.5002 287.9 67.1002 294.3C65.3002 299.1 65.9002 309.3 68.6002 318.1C69.0002 319.5 68.3002 319.6 64.2002 319.2C58.4002 318.7 55.6002 319.9 53.0002 324.3C50.2002 328.8 50.4002 338.5 53.3002 347.1L55.5002 353.7L51.9002 352.8C47.0002 351.5 41.7002 353.8 39.4002 358.1C37.0002 362.7 38.0002 373.6 41.4002 381.4C42.8002 384.6 44.0002 387.4 44.0002 387.6C44.0002 387.8 42.9002 387.5 41.5002 387C35.5002 384.7 27.0002 391.4 27.0002 398.4C27.0002 402.9 29.3002 410.7 32.4002 416.9L35.2002 422.3L32.6002 421.6C29.2002 420.8 23.9002 423.1 21.1002 426.6C19.1002 429.1 18.9002 430.3 19.3002 435.5C19.9002 441.8 22.6002 449.2 26.1002 454.1L28.1002 457H25.0002C18.4002 457 13.0002 462.3 13.0002 468.8C13.0002 473.3 16.0002 481 20.2002 487.2L24.1002 493H21.0002C7.60024 493 6.30024 509.4 18.6002 524.1C21.8002 527.9 22.0002 528.5 20.4002 528.8C15.4002 529.6 13.9002 530.2 11.5002 532.8C6.40024 538.3 8.70024 547.7 17.9002 558.8L23.2002 565H20.0002C17.8002 565 15.9002 565.9 13.9002 567.9C11.5002 570.3 11.0002 571.7 11.0002 575.6C11.0002 581.9 13.8002 587.3 20.4002 594.1L25.8002 599.6L21.5002 601.3C16.7002 603.3 15.0002 606.1 15.0002 612.4C15.0002 617.8 18.7002 623.8 26.5002 630.8C31.5002 635.2 32.0002 636 30.1002 636C28.8002 636 26.3002 637.5 24.4002 639.4C19.9002 643.9 19.8002 648.7 23.9002 655.2C26.6002 659.4 37.1002 669 39.1002 669C41.2002 669 39.7002 670.6 36.0002 672.3C31.5002 674.4 29.5002 678.8 30.6002 684.4C31.4002 689.1 37.7002 696.1 45.1002 700.7L51.1002 704.3L48.2002 705.6C42.4002 708 40.2002 715.6 43.5002 721.9C45.5002 725.8 52.6002 731.9 58.8002 735.1L64.0002 737.8L60.5002 740.1C50.6002 746.9 55.0002 758.4 70.4002 766.1L78.6002 770.2L75.3002 773.5C72.5002 776.3 72.0002 777.5 72.0002 781.3C72.0002 788.6 78.3002 794.6 91.2002 799.4C96.9002 801.6 97.0002 801.7 94.6002 802.9C91.6002 804.6 90.0002 808 90.0002 813.1C90.0002 816.4 90.7002 817.7 94.3002 821.4C98.5002 825.5 106.1 829.3 113.3 830.7L116.1 831.3L113.4 834.1C111.7 835.9 110.6 838.3 110.3 841.3C109.8 845.1 110.2 846.1 112.9 849.2C116.5 853.4 126 857.9 133 858.7C135.7 859 138 859.4 138 859.6C138 859.8 136.9 861.1 135.5 862.6C133.6 864.7 133 866.4 133 870.1C133 874.3 133.5 875.4 136.5 878.4C140.4 882.3 150.4 886 157.1 886C159.2 886 161 886.2 161 886.5C161 886.7 160.1 888.4 159 890.2C152.5 901 161 909.4 180.4 911.5C186.7 912.2 187 912.3 185.5 914C183.1 916.6 182.6 922.1 184.3 926.2C186.7 931.8 192.2 934.2 204.3 934.8C209.6 935.1 214 935.5 214 935.9C214 936.2 213.3 937.4 212.5 938.4C211.7 939.5 211 942.2 211 944.5C211 952.5 219.3 957.3 232.8 957.1C237.4 957.1 241.6 956.8 242.1 956.5C243.4 955.7 243.2 956.3 241.5 959.6C236 970.2 246.1 979 262.4 977.7C266.3 977.4 270.3 976.8 271.3 976.5C272.8 975.9 272.9 976.1 272 978.5C267 991.7 279.6 999.4 298.3 994.5C305.5 992.6 305.3 992.6 304 994.9C303.5 996 303 998.9 303 1001.4C303 1005.6 303.3 1006.2 307.3 1009.1C311.4 1012.1 311.8 1012.2 320 1011.7C324.7 1011.5 330.3 1010.6 332.6 1009.8L336.6 1008.4L336.2 1013.9C335.8 1019.1 336 1019.7 339 1022.5C341.7 1025.1 342.9 1025.5 349.4 1025.8C355.1 1026.1 358.1 1025.7 363.6 1023.8L370.5 1021.4L370.2 1025.2C369.6 1031.4 370.6 1033.8 375.2 1036.1C381.2 1039.2 390.3 1038.4 398.7 1034.1L405 1031L404.4 1033.9C403.5 1038.2 405.6 1043.3 408.9 1045.3C410.9 1046.4 414 1047 418.4 1047C424 1047 425.9 1046.5 432.4 1043.1L440 1039.2V1043.5C440 1048.7 442.6 1052.4 447.5 1054C452.1 1055.5 461.6 1053.1 469 1048.5L474.5 1045.1L475.2 1049.3C476.9 1059 486.5 1061.8 497.9 1056.1C501.1 1054.4 505.1 1052 506.7 1050.6C510.5 1047.4 511 1047.4 511 1050.6C511 1060.5 521.9 1064.1 533.6 1057.9C536.9 1056.3 541.2 1053.2 543.3 1051.2L547 1047.6V1050.9C547 1053.3 547.9 1055.1 550.5 1057.7C553.9 1061.1 554.3 1061.2 559.4 1060.7C565.6 1060.1 571.3 1056.9 578 1050.4L582.6 1046L583.8 1050.5C585.2 1055.6 588.6 1058 594.6 1058C600.8 1058 611 1051 616.2 1043.3C617.7 1041 617.7 1041 618.9 1045.1C621.4 1053.3 630.9 1055.3 639.3 1049.3C641.6 1047.8 645.4 1044 647.8 1041C650.3 1038 652.6 1035.4 652.9 1035.2C653.3 1035.1 654.1 1036.5 654.8 1038.3C657.3 1045.2 665.4 1046.9 673.1 1042.1C677.4 1039.3 687 1028.1 687 1025.7C687.1 1025 687.7 1026 688.5 1027.7C690 1031.3 695.3 1035 698.8 1035C705.3 1035 713 1028.5 718.7 1018.3C720.5 1015.1 722 1013.2 722 1014.1C722 1015 723.3 1017.2 724.9 1018.9C732.2 1026.7 744.5 1020.1 751.6 1004.5C754.3 998.7 754.3 998.7 755.6 1001.2C758.6 1007 766.8 1008.8 772.4 1004.9C775.7 1002.7 781.2 995.3 782.9 990.7C783.5 989.2 784.4 986.9 785 985.6L785.9 983.1L789.4 986.6C793.4 990.6 798.6 991.2 803.7 988C808.7 985 816 971.7 816 965.8C816 963.7 816.1 963.7 818.8 966.2C822.9 970.1 825.6 971.2 829.5 970.4C835.5 969.3 841.4 961.7 844 952C846.2 943.2 845.8 943.7 849.2 946.5C851.4 948.4 853.3 949 856.7 949C860.8 949 861.7 948.6 865.2 944.8C869.3 940.3 873 930.7 873 924.4V920.9L876.7 923.5C883.9 928.4 891.4 925.7 895.5 916.7C898 911.3 900.5 898.6 899.5 896.9C898.5 895.4 900 895.9 902.1 897.9C904.7 900.3 910 901.3 913.1 900.1C919.3 897.7 924 887.5 924 876.5V870L927.3 872C931.8 874.8 936.2 874.6 940 871.4C944.8 867.3 946.2 862.8 946.4 851.8C946.4 846.4 946.7 842 947 842C947.3 842 948.6 842.7 949.9 843.6C952.9 845.7 960.5 845 962.6 842.4C966.9 836.9 968.2 831.8 967.7 821.9L967.2 812.3L970.1 813.7C975 816.2 979.9 815.1 983.4 810.7C986.4 807 986.5 806.5 986.5 797.2C986.5 791.8 986.1 785.9 985.6 784C984.9 781.1 985 780.7 986.1 781.7C988.5 783.6 994 784.3 997.1 783C1002 780.9 1004 776.4 1004 767.3C1004 762.9 1003.3 757.1 1002.5 754.4C1001.7 751.7 1001 749.4 1001 749.2C1001 749.1 1001.9 749.4 1002.9 750C1007.8 752.6 1015.5 750.3 1018 745.4C1020.6 740.6 1019.4 727.5 1015.5 717.8C1014.9 716.3 1015.2 716.2 1017.7 717.2C1022 718.8 1027.1 717.4 1030 713.7C1034.1 708.6 1033.2 698.6 1027.6 684.9C1027 683.5 1027.6 683.2 1031.4 683.2C1036.8 683.1 1039.3 681.6 1041.6 677.4C1044.1 672.7 1043.1 663.2 1039.1 655.1C1037.4 651.5 1036 648.5 1036 648.3C1036 648.1 1038.1 648 1040.6 648C1044.3 648 1045.7 647.5 1048 645.1C1049.6 643.5 1051.2 641.1 1051.5 639.7C1052.5 635.8 1050.2 626.5 1046.5 619.4L1043.1 613H1046C1050.6 613 1054 610.9 1056.1 606.7C1057.9 603.3 1058 602.2 1057.1 597.9C1055.8 592.1 1052.2 584.5 1048.5 580.1L1045.8 577H1049.8C1055.2 577 1059.6 573.3 1060.5 568.1C1061.4 562.8 1058.3 554.5 1052.7 547.1L1048.2 541.2L1052.3 540.7C1055.3 540.3 1057.3 539.2 1059.3 536.9C1061.9 534.1 1062.1 533.3 1061.5 529.1C1060.5 522.4 1057.9 517.2 1052.7 511.4C1050.1 508.5 1048 506 1048 505.7C1048 505.5 1049.8 505 1051.9 504.6C1063.7 502.8 1062.4 487.3 1049.5 475.1L1044.1 469.9L1047 469.3C1051.5 468.4 1056 462.8 1056 458.1C1056 453 1050 443.9 1043 438.5C1039.2 435.5 1038.4 434.4 1039.7 434.2C1046.1 433.1 1050.4 426.8 1049 420.6C1048.6 418.6 1047.5 415.8 1046.5 414.4C1044.3 411 1037.3 404.3 1033.8 402.2C1032.3 401.3 1031 400.3 1031 400C1031 399.7 1032.5 398.8 1034.3 398C1038.9 395.8 1041.4 390.3 1040.1 385.2C1038.9 380.7 1033.1 374.5 1025.2 369.2L1020 365.7L1022.9 363.9C1028.8 360.3 1030.6 354.1 1027.6 348.1C1025.4 344 1018.5 338.2 1012.1 335.1L1006.4 332.4L1010.1 330.1C1019 324.5 1015.6 312.9 1003 305.2C1000 303.4 996.3 301.6 994.8 301.3C991.3 300.6 991.3 300.2 995.1 297.1C999.5 293.3 1000.2 287.4 996.7 282.2C993.8 277.7 986.8 273 979.3 270.4L974.1 268.6L977.6 264.8C986.4 255.1 977.3 244.1 956.7 239.5L953.8 238.9L956.3 236.9C957.7 235.9 959.4 233.4 960 231.4C961.1 228.3 960.9 227.3 958.8 223.2C956.9 219.2 955.4 218 949.9 215.2C945.9 213.2 941.1 211.7 937.7 211.3L932.1 210.7L935 207.1C943 197.5 933.2 186 915.6 184.3C912 184 909 183.3 909 182.9C909 182.4 909.4 182 909.8 182C911 182 914 175.3 914 172.5C914 169 908.8 163.6 903.3 161.2C900.6 160.1 895.3 158.9 891.4 158.5L884.3 157.8L886.2 154.2C888.5 149.6 888.5 147.3 886 143.3C882.6 137.7 875.5 135 863.2 134.8C856.1 134.7 856 134.7 857.7 132.7C858.9 131.4 859.5 129.2 859.5 125.8C859.5 121.5 859.1 120.5 856.3 118C852.1 114.2 847.4 113 836.9 113H828.2L829.6 109C833 99.3002 825.6 92.8002 811.2 92.7002C806.9 92.7002 802 93.0002 800.1 93.4002L796.7 94.2002L798.4 91.9002C800.6 88.7002 800.4 82.8002 798 79.7002C794.6 75.5002 788.2 73.6002 779.2 74.3002C775 74.7002 770.2 75.3002 768.6 75.6002C766 76.2002 765.9 76.1002 766.9 74.2002C768.5 71.2002 768.3 67.2002 766.3 63.9002C762.9 58.1002 752.1 56.4002 739.9 59.8002L733.4 61.6002L734.3 58.0002C737.9 44.6002 721.7 39.9002 701.3 48.6002C700.5 49.0002 700.3 47.9002 700.7 45.2002C701.7 37.4002 696.3 32.0001 687.5 32.0001C682.8 32.0001 672.2 35.1002 668.3 37.6002C666 39.0002 666 39.0002 666 34.4001C666 28.7002 663.2 24.4001 658.6 23.2002C653.7 21.8002 644.8 23.6002 637.7 27.3002C634.3 29.0001 631.3 30.6002 631 30.8002C630.7 30.9001 630.6 29.2002 630.8 27.1002C631.3 21.8002 628.3 17.5001 622.9 15.9001C617.6 14.3002 608.6 16.8002 600.8 22.0001L595 25.8002V21.3002C595 17.6002 594.5 16.3002 591.9 13.9001C589.4 11.5001 587.9 11.0001 584 11.0001C578.4 11.0001 571.6 13.7002 564.9 18.5001L560.2 21.8002L559.6 18.0001C559.1 14.5001 554.4 9.00012 552 9.00012C551.5 9.00012 550.6 8.80017 549.8 8.60022C549.1 8.40015 546.2 8.7002 543.4 9.40015ZM517.5 19.2002C519.8 29.4001 507 50.0002 494.6 56.0002C478.8 63.6002 479.2 42.5002 495.2 25.5001C505.6 14.3002 515.8 11.4001 517.5 19.2002ZM552.2 15.7002C555.8 18.9001 553.9 27.4001 547.4 37.0002C540 48.1002 530.8 55.0002 523 55.3002C518.1 55.5002 517 54.2002 517 48.3002C517 40.3002 524.7 27.7002 533.9 20.8002C542.4 14.4001 548.8 12.6002 552.2 15.7002ZM588.5 18.1002C590.2 19.8002 589.3 26.8002 586.6 32.3002C579.7 46.5002 561.3 59.2002 553.5 55.0002C547.6 51.9002 551.9 38.9002 562.3 28.6002C572.5 18.4001 583.9 13.8002 588.5 18.1002ZM481.9 22.1002C485.9 33.6002 468.6 60.0002 456 61.7002C452.7 62.2002 452 61.9002 450.5 59.6002C446.2 53.0002 453.3 34.5001 463.9 24.7002C470 19.1002 475.9 16.5001 479.1 18.1002C480 18.6002 481.3 20.4001 481.9 22.1002ZM624.4 23.8002C625.7 26.3002 625.6 27.1002 624 31.8002C619.9 43.2002 606.8 55.1002 594.7 58.1002C587.7 59.8002 585 58.4002 585 53.0002C585 47.7002 586.8 43.7002 591.8 37.3002C598.8 28.5001 611.1 21.2002 619.2 21.1002C622.3 21.0001 623.2 21.5001 624.4 23.8002ZM445.4 25.2002C450.5 32.4001 442.3 54.8002 431.4 63.8002C429.3 65.6002 425.8 67.6002 423.6 68.2002C420 69.3002 419.6 69.2002 417.7 66.9002C414.5 63.0002 415.8 52.0002 420.5 42.7002C428.1 27.7002 440.9 18.7002 445.4 25.2002ZM659 30.0001C662.9 33.9001 658.7 43.5002 649.3 52.0002C643.2 57.5002 636.7 61.1002 628.7 63.2002C624.6 64.3002 623.5 64.2002 621.2 62.9002C613.8 58.8002 620.7 45.0002 635 35.5001C646 28.2002 655.1 26.1002 659 30.0001ZM410 32.5001C411.9 34.8002 412.4 43.1002 411 49.2002C406.5 68.4002 389.6 84.9002 384.5 75.0002C380.4 67.1002 384.7 51.1002 394.4 38.6002C399.7 31.8002 407 28.9001 410 32.5001ZM693.8 39.7002C699.3 47.1002 684.8 63.5002 667.4 69.4002C654.4 73.8002 647.8 69.2002 652.9 59.2002C659.9 45.5002 688 32.0001 693.8 39.7002ZM375.4 42.9002C381.7 49.8002 375.1 75.1002 364.5 84.9002C358.6 90.4002 354.6 90.6002 352.4 85.5002C349.3 78.0002 351.6 63.6002 357.5 53.5002C358.8 51.3002 361.7 47.6002 364.1 45.2002C368.8 40.5002 372.5 39.7002 375.4 42.9002ZM727.4 51.2002C728.9 52.0002 729.1 53.0002 728.7 56.1002C728 61.4002 726.1 64.1002 719.2 69.5002C705.4 80.4002 687.9 84.3002 684.2 77.3002C681.2 71.8002 691 60.3002 703.6 54.3002C714.2 49.3002 721.8 48.3002 727.4 51.2002ZM551 60.2002C553.6 61.6002 555.6 61.9002 558.5 61.4002C563.6 60.6002 570.4 57.7002 574.6 54.5002C578.6 51.5002 579 51.4002 579 54.0002C579 57.2002 581.6 61.4002 584.4 62.9002C588.6 65.2002 597.8 63.8002 605.3 59.8002L611.8 56.3002L612.4 60.1002C613.3 65.8002 617.7 69.0002 624.5 69.0002C629.5 69.0002 640.2 65.9002 642.5 63.9002C644.1 62.3002 645 62.9002 645 65.5002C645 69.6002 647.6 73.6002 651.2 75.1002C656.2 77.2002 665.7 76.5002 672.4 73.6002L678 71.1002V74.5002C678 82.6002 682.3 86.0002 692.7 86.0002C696.6 85.9002 701.7 85.2002 704.8 84.1002L710.2 82.2002L709.7 85.4002C709 89.9002 711.3 94.6002 715.1 96.6002C717.8 97.9002 720.1 98.1002 727.4 97.7002C732.4 97.4002 737.5 96.8002 738.6 96.5002C740.6 95.9002 740.7 96.1002 740.3 100.2C739.6 106.2 742.3 109.5 749.7 111.6C755.1 113.2 765.1 113 769.5 111.4C770.7 110.9 770.8 111.7 770.3 115.7C769.8 120 770.1 121 772.4 123.7C776 128 780.9 129.4 791.1 129.4L799.7 129.3L799.2 134C798.7 140 800 142.4 805.3 145.2C808.4 146.8 811.8 147.5 818.8 147.8C827.3 148.2 829.5 148.9 827 150.5C825.6 151.3 825.7 157.6 827.1 160.3C830 165.6 837.9 169 847.7 169C853.5 169 855.5 170 853 171.5C852.5 171.8 852 174.3 852 177C852 181.1 852.5 182.3 855.1 185C859.3 189.1 864.1 191 872.3 191.7C876 192 879 192.6 879 192.9C879 193.2 878.3 194.4 877.5 195.4C875 198.7 875.6 205.7 878.5 208.6C882 212.1 890.4 215.8 896.7 216.6L901.9 217.2L899.8 220.9C896.9 226 897.9 230.7 902.9 235.3C906.9 238.9 916.3 243 920.5 243C923.5 243 923.6 243.5 921 246.7C918.1 250.4 918.4 256.3 921.7 260.6C924.4 264.2 931.5 268.4 938.3 270.4L942.1 271.5L939.5 274.9C936.3 279.4 936.4 282.4 940 288.2C942.4 292.1 944.3 293.5 950.3 296.4C954.4 298.4 958.3 300 959 300C959.6 300 958.8 301.6 957.1 303.5C953.7 307.4 953.5 308.6 955 314.1C956.3 318.6 963.4 325.4 969.8 328.2C972.4 329.3 974.6 330.4 974.8 330.5C975 330.6 973.7 332.1 972 333.8C968.6 337.2 968 342.2 970.4 346.8C972.3 350.3 978.4 356.1 983.5 359C985.7 360.3 987.7 361.5 987.9 361.6C988.1 361.8 986.6 363.4 984.6 365.3C980.2 369.5 979.9 373.4 983.5 379.6C985.7 383.4 994.6 391.7 998.2 393.4C999.2 393.9 999.2 394.1 998.1 394.6C991.3 397.7 989.9 406.3 994.9 414.2C996.5 416.8 1000.1 420.6 1002.9 422.6C1008.2 426.6 1009.1 428 1006.4 428C1003.6 428 999 433.6 999 436.9C999 441.8 1002.9 449 1008.7 454.8C1011.6 457.7 1014 460.3 1014 460.6C1014 460.8 1013.3 461 1012.4 461C1011.6 461 1009.5 462.3 1007.9 463.9C1005.7 466.1 1005 467.8 1005 470.7C1005 476 1008.8 483.6 1014.3 489.2C1016.8 491.9 1018.3 494 1017.5 494C1011.8 494 1007.4 500.5 1008.4 507.2C1009.2 512.4 1011.3 516.4 1016.1 522.2C1020.4 527.3 1020.7 528 1018.5 528C1013.5 528 1009 533.6 1009 539.8C1009 543.8 1012.2 551.2 1016.5 557.2L1020 562H1016.9C1014.9 562 1012.9 563 1010.9 564.9C1008.5 567.4 1008 568.7 1008 572.8C1008 578.5 1010 584.9 1013.5 590.2C1016.4 594.6 1016.5 595 1014.5 595C1011.5 595 1007 598.1 1005.4 601.2C1003 605.8 1004 614.4 1007.9 622.1C1009.6 625.5 1011 628.5 1011 628.7C1011 628.8 1009.4 629 1007.4 629C1004.8 629 1003.1 629.8 1000.8 632C997.9 635 997.8 635.3 998.2 642.8C998.6 649.8 999.5 652.7 1003.8 661.2C1004 661.7 1002.4 662 1000.2 662C992.4 662 988.3 668.4 989.3 679C989.6 682.2 990.7 686.8 991.8 689.4L993.9 694H989.6C979.4 694 975.2 705 979.9 719.8L981.7 725.7L977.6 725.3C974.1 724.9 972.9 725.2 970.3 727.4C966 731 964.6 735.8 965.3 744.4C965.7 748.3 966.2 752.5 966.6 753.6C967.1 755.6 966.9 755.7 962.8 755.3C959.4 754.9 957.9 755.3 955.7 757C950.7 761 949.5 764.5 949.6 775.2L949.7 784.9L945.6 784.4C942 783.9 940.9 784.2 938.1 786.6C933.3 790.6 932 794.5 932 805.1C932 813.4 931.8 814.1 930.3 813.5C919.8 808.9 912 817.8 912 834V840.9L908.4 839.4C899.2 835.5 891.7 844.4 889.5 861.8C888.9 866.7 888.7 867 887.1 865.6C878.8 858.1 866.1 870.8 866 886.7C866 890.3 865.4 890.6 862.6 888.5C858.9 885.7 851.4 887 848.2 890.9C845.9 893.9 842.3 901.5 841.5 905C840.1 912.5 840.3 912.3 836.4 909.9C828.1 904.8 819.3 911.7 814.5 927.2L812.7 932.9L809.8 930.4C807.7 928.7 805.6 928 802.8 928C799.2 928 798.1 928.6 794.5 932.3C790.6 936.4 785 946.5 785 949.5C785 951.6 784.2 951.4 780.8 948.5C778.7 946.7 776.7 946 773.9 946C770.4 946 769.2 946.7 764.6 951.3C761.3 954.5 758.5 958.6 757 962.2L754.7 967.9L752.8 965.5C751.7 964.1 749.2 962.5 747.1 961.9C743.9 960.9 742.8 961.1 739.3 962.8C734.6 965.2 729.9 970.4 726.9 976.3C724.1 981.9 724.2 981.8 721.7 978.6C718.7 974.8 712.7 974.1 707.4 976.8C702.8 979.2 699.3 982.7 695.3 989.1L692.4 993.8L690.1 990.5C684.6 982.5 672.2 986.4 663.5 999C662 1001.2 660.5 1003 660.1 1003C659.8 1003 658.8 1001.7 657.8 1000.1C656.8 998.2 654.9 996.8 652.6 996.1C646.1 994.4 639.3 997.7 631.2 1006.4L626.3 1011.8L625.1 1008.4C623.8 1004.7 622.3 1003.6 617.3 1002.5C612.7 1001.6 604.8 1005.5 598.3 1011.9L593.2 1017L592.5 1014C590.3 1004.1 575.4 1005.1 563.6 1016.1L559 1020.3V1017.6C559 1015.9 557.9 1013.7 556.1 1011.9C553.6 1009.5 552.3 1009 548.3 1009C542.7 1009 535.1 1012.3 529.8 1016.9C525.5 1020.7 525 1020.7 525 1017.4C525 1015.9 523.8 1013.6 522.1 1011.9C517.1 1006.9 507.5 1008 497.5 1014.7C494.8 1016.5 492.2 1018 491.8 1018C491.3 1018 491 1016.5 491 1014.7C491 1005.2 476.3 1003.2 463.7 1011C461 1012.6 458.7 1014 458.4 1014C458.2 1014 458 1012.4 458 1010.4C458 1007.6 457.3 1006.1 454.8 1003.8C451.7 1000.9 451.2 1000.8 444.5 1001.2C439.9 1001.6 435.5 1002.6 431.6 1004.4C428.4 1005.8 425.7 1007 425.5 1007C425.4 1007 425.3 1005.7 425.2 1004.1C425.1 1000.2 423.5 997.4 420.4 995.3C416.8 993 406.1 993.3 399 996C396 997.1 393.4 998 393.3 998C393.1 998 393 996.4 393 994.4C393 990.1 389.1 985.7 383.9 984.2C379.7 983.1 368.1 984.4 364.1 986.5C360.1 988.5 360.1 988.6 360.7 984C361.4 979.2 359.4 975.8 354.8 973.4C352.3 972.1 349.9 971.9 343.1 972.3C338.4 972.6 333.4 973.2 332 973.5C329.5 974.1 329.5 974 329.8 969.7C330.3 963.3 328.1 960.4 321.2 958.4C315.8 956.8 307.3 956.9 301.3 958.6C299.2 959.2 299.1 959.1 300.1 956.2C303.6 946.2 292.7 939 277 940.9C273.4 941.4 270.4 941.6 270.2 941.5C270 941.3 270.3 940.3 270.9 939.2C273.4 934.5 271.5 928.1 266.6 925.1C262.6 922.6 251.6 920.6 246.6 921.4C243.2 922 242.8 921.9 243.5 920.3C244 919.3 244.5 916.9 244.7 914.9C245.6 907.4 235.4 901 222.4 901H215.9L217.5 898C222.5 888.4 213.8 879.6 197.8 878.3L191.1 877.7L193 875C199 866.6 190.5 856.8 174.7 853.8L168.1 852.6L170.3 850.2C173.1 847.2 173.2 841.1 170.4 837.3C167.9 833.9 157.3 828.2 151.9 827.4C149.8 827 148 826.6 148 826.4C148 826.2 148.9 824.6 150 822.8C152.6 818.5 152.5 815.1 149.7 810.9C146.7 806.5 140.8 802.6 133.8 800.4C130.6 799.5 128 798.6 128 798.4C128 798.2 129.1 797 130.5 795.6C137.3 788.8 130.7 777.8 116.3 771.8L111 769.6L113.4 767.1C116.4 763.8 117.1 760.8 115.8 756.2C114.5 751.5 108.3 745.6 100.7 742L94.8002 739.2L97.3002 737.5C106 731.8 101.7 719.9 87.9002 711.4L82.0002 707.7L84.8002 706C88.4002 703.8 90.3002 698.1 88.8002 693.7C87.1002 688.9 82.7002 683.7 76.5002 679.4C71.7002 676.2 71.2002 675.5 72.8002 674.9C76.1002 673.7 79.0002 669 79.0002 665C79.0002 659.1 71.1002 648.5 63.6002 644.4C61.7002 643.3 61.8002 643.1 65.1002 641.7C69.5002 639.9 71.5002 635.6 70.6002 629.9C69.8002 624.8 66.5002 619.6 60.6002 614.2C58.1002 611.9 56.0002 609.8 56.0002 609.6C56.0002 609.4 57.3002 609 59.0002 608.7C65.3002 607.4 67.3002 598.4 63.1002 590.1C61.8002 587.7 58.8002 583.6 56.4002 581L51.9002 576.2L54.8002 575.2C56.4002 574.6 58.7002 573.2 59.9002 571.9C64.5002 566.9 61.6002 555 53.3002 546C49.9002 542.1 49.8002 542 52.1002 542C55.6002 542 59.7002 538.1 60.9002 533.7C62.2002 528.5 59.9002 521 54.9002 514.3C52.8002 511.4 51.0002 508.8 51.0002 508.5C51.0002 508.2 52.2002 508 53.8002 508C57.0002 508 57.8002 507.4 60.8002 503.6C62.2002 501.8 63.0002 499.3 63.0002 496.9C63.0002 492.4 59.9002 483.6 56.5002 478.6L54.1002 475H56.6002C58.2002 475 60.5002 473.7 62.7002 471.5C66.2002 468 66.2002 467.9 65.8002 460.7C65.5002 455.1 64.7002 452.1 62.3002 447.2L59.2002 441H62.9002C64.9002 441 67.5002 440.3 68.7002 439.5C73.8002 435.9 74.2002 425 69.6002 414.6C68.2002 411.4 67.0002 408.6 67.0002 408.4C67.0002 408.3 68.5002 408.4 70.4002 408.7C74.8002 409.4 79.7002 405.2 81.0002 399.7C82.0002 395.1 80.9002 386 78.6002 380.6C77.7002 378.5 77.0002 376.6 77.0002 376.5C77.0002 376.4 78.8002 376.3 81.0002 376.4C85.7002 376.5 90.5002 372.5 91.9002 367.3C92.9002 363.8 91.8002 352.2 90.1002 347.6C89.5002 346.1 89.0002 344.8 89.0002 344.7C89.0002 344.6 91.0002 344.6 93.4002 344.8C99.3002 345.3 102.4 343 104.6 336.6C106.3 331.6 106 321.8 104 316.5C103.1 314.1 103.1 314.1 107.8 314.7C117.3 315.8 121.8 308.1 120.7 292.5L120.1 284.1L122.6 285C132.4 288.8 139.7 278.8 138.8 262.9C138.5 257 138.7 256 140 256.6C140.8 256.9 143.1 257.4 145 257.7C152.5 258.8 159 248.5 159 235.4C159 229.3 159.1 229 160.9 230C162 230.5 164.8 231 167.1 231C174.6 231 179.5 223.4 180.8 209.8C181.2 204.7 181.5 204.2 183.1 205C184.1 205.6 187 206 189.5 206C193.4 206 194.7 205.5 197 203C200.4 199.4 203.6 191.2 204.6 184L205.3 178.9L207.4 181C210.4 183.8 216.8 183.7 220.5 180.8C223.8 178.2 228.7 168.3 229.6 162.3C229.9 159.9 230.5 158.1 230.9 158.3C235.6 160.8 239.6 162 242.1 161.5C247.8 160.2 255.1 149.7 256.6 140.8L257.3 137L260.2 139.5C268.8 146.8 279.4 138.8 285.4 120.6C286 118.8 286.2 118.9 288.8 121.3C296.1 128.3 309 120.7 314.2 106.3C315.6 102.3 316 102.3 318.8 105.5C320.6 107.5 321.9 108 325.8 108C332.7 108 338.3 103.4 343.7 93.3002L346.4 88.1002L349.8 91.6002C353.5 95.4002 358 96.1002 362.9 93.5002C366.2 91.8002 374.5 82.9002 376.7 78.7002L378.2 75.8002L380 78.8002C382 82.1002 387.7 84.5002 391.3 83.6002C395.7 82.5002 403.1 76.7002 406.9 71.3002C410.4 66.5002 410.9 66.1002 411.5 68.0002C412.7 71.9002 416.1 74.0002 420.9 74.0002C427.1 74.0002 433.1 70.8002 438.9 64.3002C443.3 59.4002 443.9 59.0002 444.5 60.9002C444.8 62.0002 446.5 64.1002 448.3 65.6002C451 67.8002 452 68.1002 455.7 67.6002C461.6 66.8002 466.7 64.0002 472 58.6002C474.4 56.1002 476.7 54.0002 477 54.0002C477.3 54.0002 478.1 55.3002 478.7 56.9002C482.1 66.0002 495.2 64.9002 506.4 54.6002C508.5 52.6002 510.4 51.1002 510.5 51.2002C510.6 51.4002 511.5 53.2002 512.5 55.3002C516.4 63.6002 527.8 62.9002 540 53.7002L544.5 50.3002L546 54.3002C547 57.0002 548.6 58.9002 551 60.2002ZM340.6 54.8002C346.9 59.9002 346.2 76.1002 339 89.9002C334.5 98.6002 329.8 103 325.2 103C322.2 103 319 95.7002 319 88.9002C319 73.8002 329.6 53.8002 338 53.1002C338.3 53.1002 339.5 53.8002 340.6 54.8002ZM760.3 65.8002C768.1 72.6002 747.7 90.1002 729.2 92.6002C717.2 94.2002 713 90.7002 717 82.5002C723.2 69.6002 751.9 58.5002 760.3 65.8002ZM310.4 72.9002C314.2 80.2002 313.1 95.1002 308.1 105.7C305 112.1 298.7 119 295.9 119C293.2 119 290.3 114.5 288.9 108.4C286 95.4002 293.4 74.0002 302.3 69.7002C306 67.9002 308.3 68.8002 310.4 72.9002ZM789.8 81.0002C795.6 83.6002 795.7 87.3002 789.8 93.6002C783.5 100.4 770.9 106.2 761.1 106.8C746 107.7 741.8 102.5 750.2 93.5002C756.9 86.1002 771.9 79.7002 783.5 79.1002C784.6 79.1002 787.4 79.9002 789.8 81.0002ZM279.5 91.6002C281.9 96.5002 282.7 107.4 281 114.8C278.3 127 272.2 136 266.8 136C264.2 136 263.6 135.4 261.3 130.4C259 125.2 258.8 124 259.2 114.6C259.8 103.5 261.9 96.4002 266.5 90.4002C271.5 83.8002 275.8 84.2002 279.5 91.6002ZM821.7 100.6C825.9 103.8 825.8 106.6 821.3 111.2C814.3 118.5 803.8 123 792 123.6C785.1 124 782.9 123.8 780 122.3C773.9 119.2 774.7 113.9 782 108.1C793.3 99.2002 814.4 95.2002 821.7 100.6ZM247.4 107.5C252.9 113.4 254.3 132.4 250 143.4C246.9 151.4 242.2 156.5 238.8 155.7C232.6 154.1 228.8 140.5 230.8 127C233.3 109.5 241 100.6 247.4 107.5ZM850.4 120.8C855.2 123.6 855.2 127.8 850.3 132C843.3 138.2 830.1 143 820 143C814.7 143 806.1 140 804.9 137.7C804.1 136.4 804.2 135 805 133C808.5 124.5 825.3 117.5 839.9 118.5C844.4 118.8 848.5 119.7 850.4 120.8ZM218.2 128.7C222.2 133 224.2 138.7 224.7 148.1C225.6 161.7 221.4 174.5 215.3 177.3C213 178.3 212.5 178.1 209.4 174.8C204.5 169.4 202.6 161.9 203.3 150.1C203.9 139.3 205.9 132.3 209.7 128.6C213 125.3 215 125.3 218.2 128.7ZM876.5 142.6C878.6 143.7 880.8 145.3 881.3 146.2C885.3 152.5 870.8 161.9 854.6 163.6C846 164.5 837.4 162.6 833.8 159C832.3 157.4 831 155.7 831 155.1C831 150.9 843.4 143.1 853.2 141C860.2 139.5 872.2 140.4 876.5 142.6ZM190.1 151C191.1 151.6 193.1 154.2 194.3 156.8C198.3 164.7 199.3 170.2 198.8 180.4C198.4 188.1 197.8 190.5 195.5 194.9C190.9 203.2 185.4 202.7 181.2 193.6C178.1 187.1 177.1 181.6 177 171.9C177 161.9 179 154.9 182.7 152C185.6 149.7 187.3 149.5 190.1 151ZM898.1 165.1C902.9 166.8 908 170.8 908 173C908 176 903.4 180.6 898.3 182.8C883.6 189.1 862.2 187.3 857.9 179.4C856.8 177.3 856.8 176.5 858.2 174.2C859.7 171.5 868.9 166.3 874.5 164.9C879.3 163.8 894.4 163.9 898.1 165.1ZM164.8 176.6C172.2 181.7 177.4 204.4 174 216.5C172.4 222.1 169.5 226 167 226C163.9 226 158.4 220.4 156 214.9C152.9 207.6 151.4 194 152.9 187C155.1 176.3 159.3 172.7 164.8 176.6ZM923.9 192.1C929.9 194.7 932 196.8 932 200C932 209.5 906.2 215.3 890.5 209.2C885.7 207.4 881 203.3 881 200.9C881 198.8 886.3 194.2 891 192.2C899.8 188.6 915.8 188.5 923.9 192.1ZM141.8 204.4C148.2 209.9 153.4 224 153.2 235.4C152.9 250 147.5 255.7 140 249.4C129.9 240.8 125.7 214 133.1 204.6C135.7 201.4 138 201.3 141.8 204.4ZM939.7 217.4C950.5 220.3 956.7 226 954.1 230.8C952 234.8 944.3 237.4 933.6 237.8C922.1 238.3 915.1 236.9 909.6 233.1C904.7 229.8 903.5 228 904.4 224.7C906.1 217.8 925.9 213.7 939.7 217.4ZM121.3 233.9C131 242.8 136.4 265.3 131.4 275.5C128.7 281.1 125.5 281.3 120.1 276.5C108.9 266.4 104.2 239.5 112.2 232C114.8 229.6 117.3 230.1 121.3 233.9ZM955 245C961.4 246.2 970 250 972.9 252.9C979.4 259.4 969.6 267.1 955.1 267C943.2 266.9 929.6 262 925.6 256.4C919.8 248.2 936.9 241.6 955 245ZM103 265C110.1 272.1 115.2 284.9 115.2 295.9C115.3 304.3 113.5 308.4 109.7 308.8C101 309.8 90.4002 292.4 89.3002 275.4C88.6002 265 90.3002 261 95.5002 261C98.2002 261 99.9002 261.9 103 265ZM978.9 276.4C986.6 279.5 990.6 282.4 992.5 286.1C995.5 291.9 990.6 295.6 978.7 296.6C969.7 297.4 962.8 296 953.5 291.5C941.2 285.6 939.5 277.8 949.7 274.5C956.7 272.3 971 273.2 978.9 276.4ZM84.4002 295.2C95.4002 304.2 102.7 324.8 98.9002 335.8C95.8002 344.8 83.5002 336.9 76.2002 321.1C71.9002 311.8 70.5002 298.9 73.4002 294.5C75.7002 291 79.6002 291.2 84.4002 295.2ZM989 305.4C996.2 307.6 1000.5 309.7 1003.9 312.6C1014 321 1009.8 328 994.8 328C978.4 328 960 318.8 960 310.6C960 303.8 975.1 301.1 989 305.4ZM66.2002 325.4C75.4002 329.3 86.9002 348.9 87.0002 360.7C87.0002 369.9 83.4002 372.8 76.2002 369.1C65.1002 363.4 53.6002 339.8 57.0002 329.5C58.0002 326.4 60.2002 324.1 62.1002 324C62.5002 324 64.3002 324.6 66.2002 325.4ZM996.2 335.4C1016.3 340.2 1029.3 353.2 1019.8 359C1009.3 365.4 981.6 355.9 975.4 343.8C974 341.2 974 340.6 975.4 338.5C978.1 334.4 986.6 333.1 996.2 335.4ZM54.9002 360C67.5002 366.4 80.0002 392.2 74.6002 400.5C69.2002 408.8 51.3002 393.9 45.7002 376.3C43.1002 368.5 43.1002 362 45.6002 359.6C47.7002 357.5 50.3002 357.6 54.9002 360ZM1006.3 367.5C1014.8 369.3 1023.2 373.7 1029.3 379.6C1036.9 387.1 1036.8 391.4 1029 393.9C1021 396.5 1006.2 392.2 995.2 384.1C987.2 378.2 984.4 370.2 989.8 368.2C996 365.8 997.9 365.7 1006.3 367.5ZM44.5002 394.3C54.0002 398.8 64.8002 413.5 67.0002 425C69.6002 438.5 59.5002 439.5 46.9002 427C36.2002 416.4 30.2002 400.9 34.4002 394.5C36.4002 391.4 38.1002 391.4 44.5002 394.3ZM1022.4 402.9C1031.4 407 1037.5 411.5 1041 416.9C1044.5 422.1 1044.7 424.3 1042 427C1035.7 433.3 1009.4 424.1 1000.6 412.6C999.1 410.6 997.6 407.4 997.3 405.6C996.8 402.6 997.1 402 999.6 400.6C1004 398.1 1014.1 399.1 1022.4 402.9ZM37.8002 429.7C44.2002 432.9 53.4002 442.5 57.2002 449.7C62.6002 460.2 61.9002 469 55.6002 469C43.1002 468.9 25.0002 448.3 25.0002 434.2C25.0002 426.4 28.7002 425.1 37.8002 429.7ZM1024.1 434.4C1038.8 439.6 1052.7 453.5 1050 460.4C1046 471 1013.9 457.9 1006.7 442.8C1004.1 437.3 1004.5 435.1 1008.3 433.5C1012.8 431.5 1016.5 431.7 1024.1 434.4ZM35.9002 466.7C49.2002 474.4 60.6002 493.8 56.0002 501C54.5002 503.4 46.7002 502.6 41.2002 499.4C31.1002 493.5 19.6002 478.9 19.0002 471C18.6002 466.2 19.0002 465.1 21.7002 463.7C24.9002 462 29.3002 462.9 35.9002 466.7ZM1032 469.6C1042.7 474.7 1052.7 485 1054.4 492.7C1055 495.2 1054.7 496.3 1052.9 498.1C1051 500 1050.1 500.2 1045.4 499.6C1034.4 498.3 1021.8 490.7 1014.9 481.1C1010.5 475 1009.6 469 1012.8 467C1015.8 465.1 1025.1 466.4 1032 469.6ZM33.6002 502.6C49.4002 511.3 61.1002 531.6 52.9002 536.1C48.1002 538.6 33.7002 532.2 26.2002 524.1C8.70023 505.5 13.5002 491.5 33.6002 502.6ZM1028.1 501.1C1039.9 504 1055.9 520.7 1056 530.1C1056.1 539.5 1037.8 535.6 1025.1 523.5C1014.7 513.6 1011.1 503.2 1017 500.3C1019.4 499.1 1020.5 499.2 1028.1 501.1ZM1031.9 536.8C1045.8 543.3 1059.7 564.9 1053.4 570.1C1044.1 577.8 1014 553.5 1015.2 539.3C1015.7 532.6 1021.3 531.8 1031.9 536.8ZM31.8002 537.5C50.7002 546.5 63.6002 566.2 53.1002 569.8C43.4002 573.2 23.3002 560.4 16.4002 546.5C14.1002 541.6 13.9002 540.6 15.0002 538C17.1002 533 22.1002 532.8 31.8002 537.5ZM1029.1 570.6C1041.3 576.7 1054.2 595.9 1051.4 603.7C1050.6 606.1 1049.8 606.5 1046.2 606.8C1035.3 607.6 1018.9 592.7 1014 577.7C1010.8 567.7 1017.4 564.6 1029.1 570.6ZM37.7002 574.5C46.4002 578.8 54.7002 586.2 57.8002 592.2C61.8002 600.4 60.1002 604 52.1002 604C46.0002 604 40.7002 602.1 33.5002 597.5C24.0002 591.5 16.0002 581.2 16.0002 575.2C16.0002 569 25.9002 568.7 37.7002 574.5ZM1026.3 605.4C1036.3 612.3 1044.6 624.5 1045.7 633.8C1046.2 638 1045.9 639.1 1044 641C1039.7 645.3 1031.2 641.6 1021.2 631.1C1011.5 620.9 1006.5 606.1 1011.5 602.3C1014.5 600.1 1020.4 601.3 1026.3 605.4ZM44.0002 610.1C56.6002 616.1 67.0002 627.6 65.4002 633.7C63.3002 641.5 42.8002 637.2 30.1002 626.3C25.0002 622 20.0002 614.6 20.0002 611.4C20.0002 604.8 31.7002 604.3 44.0002 610.1ZM1014.5 636.1C1022.8 640 1031.3 650.2 1035.5 661.5C1038.5 669.5 1038.6 672.9 1036 675.8C1033.2 678.7 1030.3 678.6 1024.9 675.2C1014.1 668.3 1004.9 654.7 1003.4 643.4C1002.9 638.9 1003.1 637.9 1004.9 636.1C1007.5 633.5 1008.9 633.5 1014.5 636.1ZM46.3002 642.5C57.7002 645.9 68.2002 653.6 72.1002 661.2C75.2002 667.4 72.1002 671 63.7002 671C45.0002 671 19.1002 649.6 29.2002 642.6C32.0002 640.6 40.0002 640.6 46.3002 642.5ZM1005.5 668.9C1010.6 671.2 1018.7 680.1 1022.3 687.4C1025.8 694.3 1027.8 704.8 1026.4 708.7C1024.2 715.2 1012.7 710.9 1005 700.6C998.7 692.1 995.8 685.3 995.2 677.7C994.8 672.2 995 670.6 996.5 669C998.7 666.5 1000.4 666.5 1005.5 668.9ZM60.6002 678.1C72.9002 681.9 85.1002 692.6 83.6002 698.3C82.8002 701.7 78.6002 703.5 71.6002 703.4C60.9002 703.3 49.2002 698.3 41.3002 690.3C37.3002 686.4 36.0002 684.4 36.0002 682.2C36.0002 675.1 45.7002 673.5 60.6002 678.1ZM994.5 700.9C1003.7 705 1014 723.9 1014 736.7C1014 748.2 1006.3 748.5 995.9 737.3C989.1 730.1 984.9 720.6 984.3 711C983.8 704 983.9 703.1 985.9 701.1C988.4 698.6 989.4 698.5 994.5 700.9ZM70.9002 710.5C83.6002 713.5 96.0002 722.6 96.0002 729C96.0002 734.3 86.6002 736.9 74.9002 734.8C61.9002 732.5 46.5002 721.6 47.2002 715.2C47.8002 709.5 58.0002 707.5 70.9002 710.5ZM986.5 736.7C996 746.6 1001.4 765.2 997.6 774.5C996.4 777.3 995.5 778 993.4 778C982.6 778 968.2 752.7 971 738.5C971.4 736.3 972.1 733.7 972.5 732.8C974.2 728.7 980.6 730.5 986.5 736.7ZM93.0002 744.6C102.9 748.5 111 755.6 111 760.2C111 762.7 107.7 764.7 101.7 766.1C81.3002 770.6 50.1002 751.3 65.2002 743.6C69.6002 741.4 86.4002 742 93.0002 744.6ZM971.6 767.5C975.3 772.4 979.8 783 981 790C982.4 797.9 981.6 804.2 978.6 807.6C976.5 810.1 976.3 810.2 972.9 808.7C964.2 805.1 956.2 790.7 955.3 776.8C954.7 768.4 955.8 763.9 959.3 761.5C961.1 760.2 961.8 760.3 965.3 762.3C967.5 763.5 970.3 765.9 971.6 767.5ZM109 775C120.7 778.9 127.3 784.2 126.8 789.3C126.6 791.7 125.7 792.8 122.5 794.4C117.6 796.9 107.6 797.7 100.1 796C88.4002 793.5 77.0002 786.1 77.0002 781.1C77.0002 778.7 80.0002 776.1 84.7002 774.4C89.1002 772.7 103.2 773.1 109 775ZM949.9 792.6C962.2 802.9 966.9 833.7 956.9 839C955.2 840 954.1 839.7 950.9 837.4C939.4 829.5 932.8 801.9 940.1 792.6C942.7 789.3 946 789.3 949.9 792.6ZM132.6 806C144.2 810 148.7 816.4 143.7 821.4C140.4 824.7 135.1 826 124.8 826C108.1 826 92.5002 817.7 95.8002 810.5C99.0002 803.4 118.6 801 132.6 806ZM931.2 821.7C937.3 827.9 941 838.9 941 850.6C941 866.7 934.9 872.6 927 864C919.9 856.3 915.6 839 918 828.2C920.5 817.1 924.7 815 931.2 821.7ZM153 833.6C160.3 835.8 165.8 839.4 166.6 842.7C168.1 848.6 156.9 854 143.1 854C132.1 854 124.1 851.6 118.3 846.6C115.4 844.2 115.3 839.9 118 837.5C123.7 832.3 141.9 830.3 153 833.6ZM909.4 847.1C915.4 854.2 918.1 862.8 918.1 875.1C918.2 882.6 917.8 884.8 915.8 888.7C913.1 894.1 911.3 895.5 907.9 894.7C905.1 894 899.9 886.6 897.4 880C894.9 873.4 894.9 858 897.4 851.7C900.6 843.6 905.1 841.9 909.4 847.1ZM173.9 859.5C179.2 860.2 187 864.2 188.9 867.2C190 869 189.9 869.6 188.2 871.9C183.4 878.4 168.6 882.2 156 880.3C143.1 878.3 136.2 873.2 138.8 867.6C140.3 864.3 149.1 860.3 157 859.2C163.4 858.3 165.1 858.3 173.9 859.5ZM886.2 872.4C891.2 877.5 893.5 885.5 893.5 897.5C893.5 906.6 893.2 908 890.5 913.5C888 918.5 887 919.6 884.6 919.8C879.2 920.4 875.1 914.8 872.4 902.9C869.8 891.3 871.9 876.9 877.2 871.3C880.2 868.1 882.3 868.4 886.2 872.4ZM206.2 885.9C208.7 887 211.5 888.8 212.3 890.1C213.7 892 213.7 892.6 212.4 895.1C209 901.7 195.5 906.5 182 905.8C163.9 904.9 156.8 897 167.6 889.9C171.6 887.3 179.2 884.5 184.5 883.6C190.2 882.8 201.7 883.9 206.2 885.9ZM861.5 895.4C870.2 904.7 870 931 861 940.8C857.4 944.8 855.6 944.8 852.1 941.1C845.6 934.2 843.6 915.3 848.1 903.5C850.3 897.6 854.7 892 857.1 892C857.7 892 859.7 893.5 861.5 895.4ZM233.5 908.9C236 910 238.3 911.6 238.7 912.6C242.3 922.1 216.5 932.7 198.6 929C184.9 926.2 185.7 917 200.2 910.6C203.4 909.2 208.1 907.6 210.7 907.1C217.5 905.7 228.1 906.5 233.5 908.9ZM835.4 917C842.6 925.6 842.4 945.8 835 958.7C829.9 967.6 823.9 966.8 820.1 956.5C815.9 945.3 818.2 927.6 825 918.2C828.7 913 831.7 912.7 835.4 917ZM262.2 929C265 930.3 266.6 933.3 266.1 936C266 936.8 264.4 939 262.7 940.9C255.7 948.3 237.3 953.5 226.3 951.2C220.9 950.1 216 946.9 216 944.6C216 941.8 221.5 935.8 226.3 933.3C237.8 927.5 254.7 925.4 262.2 929ZM807.2 935.7C811.9 941.3 813.1 957.5 809.6 968.5C807.5 975.1 803 982.4 800.5 983.4C792.9 986.3 788.9 979.7 788.9 964.5C788.8 954.5 791.7 945.1 796.5 938.7C800.4 933.5 804.4 932.5 807.2 935.7ZM291.9 948.6C295.7 950.8 295.9 953.4 292.7 957.8C287.7 964.5 278.2 969.4 266.3 971.5C243.5 975.5 238.6 962.3 259.1 952C270.9 946 285 944.5 291.9 948.6ZM776.8 952.6C784.6 958 783.5 980.7 774.7 993.6C773 996.2 770.3 999.3 768.8 1000.4C766.4 1002.1 765.7 1002.2 763.6 1001.1C760.3 999.3 758.8 995.7 758.3 988C757.3 975.3 762.3 960.5 769.6 954.1C773.6 950.5 773.8 950.5 776.8 952.6ZM320.8 964.1C328.8 966.9 322.7 978.1 309.5 984.8C298.6 990.3 283.6 991.8 278.6 987.9C275.3 985.3 275.3 983.2 278.9 978.3C286.7 967.6 309 960 320.8 964.1ZM747.9 968.9C752.8 973.8 752.8 985.5 747.9 998.4C743.8 1009.4 735.8 1018 731.1 1016.5C725.6 1014.8 724.3 1000 728.5 987.4C731.5 978.5 734.7 973.2 739.2 969.6C743.2 966.5 745.3 966.3 747.9 968.9ZM352.9 979.6C355.9 982.1 356 982.2 354.4 985.8C353.6 987.8 351 991.4 348.7 993.8C340.7 1002.1 321.7 1008.7 313.6 1006C308.4 1004.3 307.6 1002.9 309.1 998C312 988.5 331.5 977.3 345.7 977.1C348.8 977 350.6 977.7 352.9 979.6ZM716 981C720 983.1 721.2 994.7 718.4 1004.1C714.9 1015.8 707 1027.2 701.4 1028.6C695.4 1030.1 693 1026.6 693 1016.6C693 1002.9 701.8 985.2 710.4 981.4C714.2 979.8 713.8 979.8 716 981ZM384 990.3C386.6 991.6 387.6 994.6 386.6 998.7C386.2 1000 383.3 1003.7 380 1007C368.4 1018.5 349.4 1024.2 342.8 1018.3C340.5 1016.3 340.5 1014.8 342.9 1010.2C349.5 997.2 374.1 985.3 384 990.3ZM685.3 993.8C689.4 998.3 688.3 1009.5 682.5 1021.6C672.1 1043.2 655.6 1045.1 659 1024.5C662.2 1004.8 678.3 986 685.3 993.8ZM418.1 1001.1C423.6 1006.6 413 1020.5 396.8 1028.8C386.8 1033.9 375 1033.1 375 1027.2C375 1023.7 379.4 1016.8 385 1011.6C396.5 1001.1 412.8 995.8 418.1 1001.1ZM652.4 1002.6C659.4 1009.6 650.1 1034.4 636.8 1044C632.2 1047.4 628 1047.8 625.5 1045.3C624.1 1043.9 623.8 1042.3 624.2 1036.4C624.8 1027.4 629.8 1016.3 636.5 1009.1C643.4 1001.8 649.2 999.4 652.4 1002.6ZM451.4 1008C453 1009.6 452.4 1015.3 450.2 1019.7C448 1023.9 440.5 1031.6 434.9 1035.4C430.3 1038.5 420.6 1042 416.7 1042C399.6 1041.8 418.8 1013.2 439.9 1007.3C444.7 1006 449.7 1006.3 451.4 1008ZM618.9 1008.9C621.1 1010.3 621.5 1019.2 619.6 1025.1C614.7 1039.8 599.2 1055.2 592.4 1052.1C588.8 1050.5 587.6 1046.5 588.9 1040.3C592.3 1023.1 610.8 1003.8 618.9 1008.9ZM485.3 1013.4C486.6 1015.2 485.2 1023 482.8 1026.9C475.6 1039 457.8 1050.7 449.6 1048.6C441 1046.5 446.2 1032.2 459.7 1021C466.2 1015.6 469 1014 475 1012.4C479.7 1011.1 483.9 1011.5 485.3 1013.4ZM587.1 1015.8C589.5 1022.2 583.5 1036.3 574.5 1045.5C565.2 1055 556.8 1057.7 553.4 1052.5C552 1050.4 552 1049.3 553 1044.8C556.3 1030.6 567.1 1017.5 578.8 1013.5C583.3 1011.9 585.9 1012.6 587.1 1015.8ZM518 1016C520.8 1018.8 520.5 1022.7 516.9 1029.9C509.8 1044.1 490.4 1057.1 483.3 1052.5C474.6 1046.7 491.2 1021.6 507.8 1015.5C513 1013.6 515.7 1013.7 518 1016ZM552.8 1016.2C557.2 1019.8 549.6 1037.6 539.6 1046.8C531.6 1054.1 522.4 1057.6 518.9 1054.4C513.6 1049.7 518.9 1035.7 530.3 1024.5C539.7 1015.3 547.8 1012.3 552.8 1016.2Z" fill="black"/>
<path d="M498.3 89.3999C491.1 89.9999 484.9 90.7999 484.5 91.0999C483.9 91.6999 488.6 154.8 489.6 159.8C490 161.7 490.6 162.1 493.3 161.8C496.4 161.5 496.5 161.4 496.5 156.5C496.5 153.7 496.1 146.7 495.6 140.7L494.8 130H498.8C505.2 130 508 128.5 508 125.1C508 121 506.4 120.2 499.8 120.9L494.1 121.6L493.6 118C493.3 116.1 492.8 111 492.5 106.8L491.8 99.0999L495.2 98.5999C497 98.2999 502.3 97.6999 507 97.2999C515.4 96.4999 515.5 96.4999 515.8 93.6999C516.2 90.6999 514.5 87.8999 512.6 88.1999C512 88.1999 505.6 88.7999 498.3 89.3999Z" fill="black"/>
<path d="M571.6 91.2003C570.4 96.9003 563.4 157.6 563.8 158.7C564 159.4 565.7 160 567.6 160C571.6 160 571.4 160.6 573.5 142.5C574.4 135.4 575.3 129.4 575.5 129.1C575.8 128.9 576 129 576 129.4C576 131.3 581.1 160.4 581.6 161.2C581.9 161.6 582.9 162 583.9 162C585.2 162 587.3 158.3 592 147.7C598.9 132.2 600.6 129.5 599.7 135C598.2 144.2 596.8 160.9 597.3 162.4C598 164.1 602.5 164.6 603.5 163C603.8 162.5 605.9 147 608.2 128.5C612.5 93.9003 612.5 90.9003 608.4 93.5003C607.6 94.1003 602.3 104.7 596.8 117.3C591.2 129.8 586.6 139.9 586.4 139.8C586.3 139.6 584.1 128.5 581.6 115.2C579.1 101.8 576.8 90.4003 576.5 89.9003C575.3 88.1003 572 89.0003 571.6 91.2003Z" fill="black"/>
<path d="M436 99.2003C429.6 100.6 426.3 104.1 423.8 112.4C420.2 124.4 422.5 142.1 429.5 154.9C432.8 160.9 440.7 168.6 444.4 169.6C449.6 170.9 456.2 169.1 459.7 165.4C464 160.8 465.4 155.5 465.4 143.5C465.4 128.3 460.7 115.1 452.1 105.9C446.3 99.7003 442.1 98.0003 436 99.2003ZM446.8 111.7C452.5 118.6 458 134.1 458 143.3C458 155.3 453.9 161.6 446.7 160.7C442.6 160.1 440.6 158.2 436.4 150.6C430.8 140.4 428.2 122.1 431.4 114.6C434.4 107.5 442.1 106 446.8 111.7Z" fill="black"/>
<path d="M637.7 101.7C637.4 102.7 633.7 117.9 629.5 135.4C622 166.1 621.8 167.4 623.6 168.7C624.6 169.5 626.4 169.9 627.5 169.8C629.7 169.5 630.4 167 640.2 124.7C644.6 105.3 645.2 101.7 644 101C641.6 99.4003 638.2 99.9003 637.7 101.7Z" fill="black"/>
<path d="M677.1 115.7C666.3 121.3 656.7 139.6 655.4 157.3C654.3 171.1 657.9 179.3 666.1 181.8C673.2 184 677.1 182.8 684.1 176.2C690.6 170.1 691.1 167.6 686.3 166.4C684.3 165.9 683 166.6 679.7 169.8C675 174.3 673.9 174.7 669.3 173.6C664.3 172.4 663 169.8 663 160.5C663 153.9 663.6 151 666.1 144.5C670.8 132.2 676.5 124 681.8 121.9C687.7 119.6 694 126.1 694 134.4C694 138.3 696.5 140.5 699.5 139.3C702 138.4 701.2 127 698.2 120.8C696.2 116.9 695.2 115.9 691.3 114.6C685 112.4 683.2 112.6 677.1 115.7Z" fill="black"/>
<path d="M348.2 129.9C341.5 133.1 335.5 136.1 335 136.6C333.8 137.8 361.8 198.9 364.1 200.3C365.6 201.3 390.6 189.6 391.3 187.6C392.1 185.5 390.1 182 388.1 182C387 182 382 183.8 377 186C372 188.2 367.7 190 367.5 190C367.1 190 358 171.2 358 170.4C358 170.2 360.3 168.9 363 167.5C366.4 165.8 368 164.3 368 163.1C368 157.6 364.7 156.6 357.9 160L353.9 162.1L349 151.8L344.1 141.5L354.1 136.8C359.5 134.2 364.3 131.4 364.6 130.5C365.4 128.4 363.4 124 361.8 124.1C361.1 124.2 355 126.8 348.2 129.9Z" fill="black"/>
<path d="M732.2 134.2C730.7 136.2 703 188.5 701.7 192C700.6 194.8 700.7 195.3 702.5 196.6C703.6 197.4 705.1 197.9 705.9 197.8C706.7 197.6 710.5 191.6 714.3 184.3L721.3 171.1L730.1 175.8C735 178.4 739 180.8 739 181.2C739 181.6 736 187.3 732.4 194C728.8 200.6 726 206.8 726.2 207.7C726.6 209.8 729.3 211.5 731.2 210.7C732.9 210.1 764 152.2 764 149.8C764 149 762.9 147.8 761.6 147.2C758.4 145.8 757.8 146.5 750 161.2C746.6 167.7 743.6 173 743.3 173C742.1 173 726 163.9 726 163.2C726 162.8 728.9 156.9 732.5 150.1C736.1 143.3 739 137.1 739 136.4C739 135.1 736 133 734.2 133C733.7 133 732.8 133.6 732.2 134.2Z" fill="black"/>
<path d="M294.3 159.7C287.6 164 281.9 168.1 281.6 168.8C280.9 170.4 283.8 175 285.4 175C286.1 175 288.8 173.6 291.4 171.9C294.1 170.3 296.3 169 296.5 169.2C297 169.9 310.5 190.9 319.5 205.2C325.2 214.2 330.2 220.9 331 220.9C333.2 221 335 219 335 216.7C335 215.6 327.8 203.6 319 190C310.2 176.5 303 165.1 303 164.8C303 164.5 305.3 162.9 308 161.2C310.8 159.5 313 157.5 313 156.8C312.9 154.6 310.4 152 308.4 152C307.3 152 301 155.5 294.3 159.7Z" fill="black"/>
<path d="M767.1 192.6C756.5 208.3 748.1 221.8 748.4 222.5C749.1 224.3 752.4 226 753.6 225.2C754.2 224.8 761.8 213.9 770.6 201C779.3 188.1 787.7 175.7 789.2 173.5C790.7 171.3 792 169 792 168.3C792 166.8 789.2 164 787.6 164C787 164 777.8 176.9 767.1 192.6Z" fill="black"/>
<path d="M811.2 194.3C799.9 199 789.6 209.3 782.5 222.8C773.7 239.6 778.9 254 793.8 254C801.3 254 807 250.9 813.1 243.7C815.8 240.5 818 237.3 818 236.6C818 235.9 816 233.5 813.5 231.1C808.3 226.2 805.1 225.9 803.6 230.2C802.8 232.5 803 233.4 804.9 235.4C806.7 237.3 807 238.2 806.1 239.8C804.5 242.7 798.8 246 795.2 246C791.2 246 786 241 786 237.1C786 231.3 792.5 219.9 800.3 211.8C811.5 200.2 818.4 197.6 824.4 202.5C827.6 205.1 828.1 208.5 826.5 216.4C825.8 219.6 826 220.5 827.4 221.6C829.9 223.4 831.8 222.3 833.6 218.2C835.2 214.4 835.8 203.8 834.7 200.5C834.3 199.4 832 197 829.6 195.2C824.3 191.3 819 191 811.2 194.3Z" fill="black"/>
<path d="M536.4 196.1C534.4 198.3 535.1 200.4 538.3 202.4C541.9 204.7 545.8 198.8 543 195.4C541.3 193.4 538.6 193.7 536.4 196.1Z" fill="black"/>
<path d="M506.5 196.3C505.2 197.3 504.9 198.4 505.4 200.3C506.6 205.4 514 204.7 514 199.6C514 195.4 510.1 193.7 506.5 196.3Z" fill="black"/>
<path d="M567.2 197.2C565.7 198.7 565.6 202.2 567.2 203.8C568.9 205.5 571.4 205.3 573.3 203.2C576.5 199.7 570.6 193.8 567.2 197.2Z" fill="black"/>
<path d="M241.3 199.6C240.9 200.7 246.4 212.8 256.1 232.4C264.5 249.5 272 264.1 272.6 264.8C273.5 265.9 274.3 265.9 275.8 265.1C279.1 263.4 279 261.5 275.5 254.2L272.2 247.2L277.3 242.8C286.2 235.1 285.7 235.2 293 239.9L299.4 244.1L301.9 241.5C304.1 239.3 304.3 238.8 303 237.6C300.3 235.1 244.1 198 243 198C242.4 198 241.7 198.7 241.3 199.6ZM273.3 234.6L268.5 238.8L263.3 228.7C260.4 223.1 258.1 218.2 258.1 217.7C258 217.3 262.5 220 268.1 223.7L278.2 230.4L273.3 234.6Z" fill="black"/>
<path d="M475.8 201.5C474.8 203.7 474.9 204.4 476.7 206.1C479.3 208.7 482.7 207.9 483.6 204.4C484.9 199.2 478 196.7 475.8 201.5Z" fill="black"/>
<path d="M597.6 201.3C595 203.2 595.8 208.4 598.8 208.8C603.4 209.5 605.7 204.8 602.4 201.6C600.5 199.7 599.9 199.6 597.6 201.3Z" fill="black"/>
<path d="M448.3 206C445.6 207.1 445.2 211.1 447.6 213C448.7 214 449.9 214.1 451.8 213.4C455.1 212.2 455.8 209.5 453.4 206.9C451.5 204.8 451.4 204.8 448.3 206Z" fill="black"/>
<path d="M626.5 208.7C623.5 211.7 625.4 216 629.7 216C632.5 216 634.5 212.7 633.1 210.1C631.7 207.6 628.3 206.8 626.5 208.7Z" fill="black"/>
<path d="M418.2 215.2C414.1 219.3 420 225.2 424.2 221.3C426.5 219.3 426.5 217.7 424.2 215.7C422 213.7 419.9 213.5 418.2 215.2Z" fill="black"/>
<path d="M654.6 218.6C652.7 220.4 652.6 221.4 654 224.1C656 227.8 662 225.9 662 221.5C662 217.3 657.6 215.6 654.6 218.6Z" fill="black"/>
<path d="M391.2 226.6C388.5 228.4 388.4 231.1 390.8 233.3C392.3 234.6 393 234.7 395 233.7C398.1 232.2 398.3 228.3 395.5 226.4C393.7 225.2 393.1 225.3 391.2 226.6Z" fill="black"/>
<path d="M683.8 229.7C681.7 230.2 680.6 233.3 681.5 236C682.4 238.9 687.8 238.8 688.9 235.7C690.3 232 687.7 228.9 683.8 229.7Z" fill="black"/>
<path d="M203.8 237.2C202.1 239 199.1 242.5 197.1 245C195.1 247.5 191.8 251.3 189.7 253.5C185.4 258.1 185.3 260.8 189.3 263C192.1 264.5 192.2 264.4 196.3 259.8L200.5 255.2L223.9 275.1C245.9 293.8 247.4 295 249.4 293.7C253.8 290.7 252.2 288.9 229 269.1C216.6 258.5 206.4 249.5 206.2 249.1C206.1 248.6 207.5 246.4 209.5 244C213.5 239.2 213.6 238.8 211.3 236.8C207.7 233.8 207 233.8 203.8 237.2Z" fill="black"/>
<path d="M364 241C362.9 242.1 362 243.6 362 244.3C362 247.7 367.7 249.3 370 246.6C373.4 242.4 367.8 237.2 364 241Z" fill="black"/>
<path d="M866.5 246.4C862.1 248.6 848 255.6 835.3 261.8C822.5 268 811.8 273.5 811.5 274C810.4 275.8 813 279 815.6 279C816.9 279 820.6 277.7 823.8 276.1L829.5 273.2L833.5 277.8C842 287.6 841.7 286.2 837.1 293.3C834.8 296.7 833.1 300.1 833.2 300.9C833.7 303.2 836.8 304.6 838.6 303.5C839.5 302.9 845 295.5 850.7 287C856.5 278.5 865.3 265.7 870.2 258.5C877 248.7 879 245.2 878.2 244C876.7 241.6 875.1 242 866.5 246.4ZM853 269.2C849.6 274.3 846.7 278.6 846.6 278.8C846.4 278.9 844.4 276.7 842.1 274L837.8 268.9L848.2 264.1C853.8 261.4 858.6 259.3 858.8 259.5C859 259.7 856.4 264 853 269.2Z" fill="black"/>
<path d="M707.8 246.6C705.7 251.1 709.5 254.1 714.3 251.8C716.6 250.6 716.5 246.3 714.1 245C710.9 243.4 709 243.8 707.8 246.6Z" fill="black"/>
<path d="M338.2 257.2C335.1 260.3 338.5 265.9 342.5 264.4C344.7 263.5 346 259.9 344.8 257.7C343.8 255.7 340 255.4 338.2 257.2Z" fill="black"/>
<path d="M735.5 262C735.8 262.5 735.5 262.7 734.6 262.4C732.3 261.5 731.5 265.8 733.6 268.1C736.6 271.4 741 269.9 741 265.5C741 264.3 740.5 262.9 739.8 262.2C738.4 260.8 734.6 260.6 735.5 262Z" fill="black"/>
<path d="M314.6 275.6C311.2 279 313.8 283.8 318.5 282.6C321.9 281.7 322.6 279.6 320.6 276.5C318.7 273.6 316.8 273.3 314.6 275.6Z" fill="black"/>
<path d="M757.8 280.7C755.6 281.3 755.4 286.2 757.5 288C759.2 289.4 763.6 288.6 764.3 286.7C765 284.8 762.8 280.6 761 280.4C760.2 280.3 758.7 280.4 757.8 280.7Z" fill="black"/>
<path d="M903 284.9C901.6 285.9 889.3 293.8 875.5 302.5C861.8 311.2 849.9 318.8 849.2 319.4C847.4 321.1 848.7 323.9 851.6 324.6C853.5 325.1 857.8 322.8 872.3 313.7C882.3 307.4 890.6 302.4 890.8 302.5C891 302.7 885.2 312.6 878 324.6C870.8 336.6 865.1 347.1 865.2 347.9C865.4 348.8 866.2 349.6 867.1 349.8C868.9 350.1 925 314.8 926.2 312.5C926.8 311.6 926.4 310.4 925 309L922.9 306.9L918.7 309.3C916.4 310.6 908 315.8 900.1 320.8C892.1 325.9 885.4 329.8 885.2 329.5C884.9 329.3 890.4 319.6 897.4 307.9C904.3 296.3 910 286 910 284.9C910 282.4 906.4 282.4 903 284.9Z" fill="black"/>
<path d="M164.7 290.8C156.1 297 152.9 306.9 156.9 314.7C160 320.8 163.9 323.2 171.9 323.7C178.3 324.2 178.8 324 188.5 319C199.8 313.2 203.2 312.9 210.3 317.6C213.5 319.7 214 320.6 214 323.8C214 326.2 213.1 328.9 211.5 331.3C209.4 334.3 208.3 335 205.7 335C201.9 335 201 335.6 198.7 339.2C196.2 343.2 197.4 345 202.5 345C204.9 345 208 344.6 209.3 344.1C217.4 341 223.8 329.7 222.1 321.8C220 312.8 213 307.9 201.1 307.2C193.6 306.8 193.3 306.9 184.5 311.5C174.4 316.8 170.6 317.3 165.9 313.9C163.3 312.1 163 311.3 163.5 308.6C165 301.1 168.9 297 174.5 297C176.2 297 177.4 296.1 178.5 293.9C181 289.3 179.9 288 173.8 288C169.7 288.1 167.7 288.7 164.7 290.8Z" fill="black"/>
<path d="M292 296.4C291.4 297.2 291 298.9 291.2 300.2C291.4 301.9 292.2 302.6 294.6 302.8C298.7 303.2 300.7 300.9 299.2 297.5C297.9 294.7 294 294.1 292 296.4Z" fill="black"/>
<path d="M778.7 302.8C775.7 306.1 777.2 310 781.5 310C785.9 310 787.8 304 784.1 302C781.4 300.6 780.6 300.7 778.7 302.8Z" fill="black"/>
<path d="M272.8 318.1C269.3 320.1 271.5 326 275.8 326C276.8 326 278.3 324.8 279.1 323.4C280.3 321 280.3 320.6 278.1 318.9C275.4 316.7 275.1 316.7 272.8 318.1Z" fill="black"/>
<path d="M798.7 325.4C795.3 328 797.2 333 801.7 333C804.5 333 806.2 329.4 804.8 326.7C804.3 325.7 803.6 325.1 803.3 325.4C802.9 325.7 802.2 325.6 801.6 325.1C800.9 324.5 799.8 324.7 798.7 325.4Z" fill="black"/>
<path d="M255.3 342.1C252.8 343 252.4 345 254 348.1C255.3 350.4 257.7 350.6 260.1 348.4C263.5 345.3 259.7 340.4 255.3 342.1Z" fill="black"/>
<path d="M815.8 350.2C813.2 352.2 814 356.3 817.3 357.4C821.2 358.8 823.8 356.2 822.4 352.3C821.3 349.2 818.4 348.2 815.8 350.2Z" fill="black"/>
<path d="M238.8 368.1C236.6 369.3 236.5 373.3 238.5 375C240.2 376.4 244.6 375.6 245.3 373.7C246 371.8 243.8 367.6 242 367.3C241.2 367.1 239.7 367.5 238.8 368.1Z" fill="black"/>
<path d="M830.5 377C829 378.7 828.9 379.4 829.8 381.5C831.8 385.8 838 384.3 838 379.5C838 375 833.6 373.6 830.5 377Z" fill="black"/>
<path d="M146.7 391.2L143.9 399.9L134.7 400.2L125.5 400.5L132 405.4C135.6 408.1 138.9 410.6 139.3 411C139.8 411.4 139 415.4 137.6 419.9C136.2 424.4 135 428.3 135 428.5C135 428.8 138.1 426.7 141.8 424C145.6 421.2 149.1 419 149.6 419C150.1 419 153.4 421.3 157 424C160.6 426.7 163.6 428.6 163.8 428.2C163.9 427.8 162.9 424.1 161.5 420C160.1 416 159 412.3 159 411.9C159 411.5 162.5 408.6 166.8 405.5L174.5 399.9L164.7 400.2L155 400.5L152.2 391.5L149.4 382.5L146.7 391.2Z" fill="black"/>
<path d="M917.9 391.8L915.4 399.5L906.2 400L897 400.5L904 405.8C907.8 408.8 911 411.7 911 412.3C911 413 909.9 417 908.6 421.3C907.1 425.9 906.6 428.7 907.3 428.3C911.6 425.8 919.9 418.7 919.5 417.9C919.1 417.4 922.6 419.7 927.2 422.9C931.7 426.2 935.5 428.8 935.6 428.7C935.7 428.6 934.6 424.7 933.1 420L930.3 411.5L937.7 406L945.1 400.5L935.7 400.2L926.3 399.9L924 392.4C922.7 388.3 921.3 384.7 921 384.5C920.6 384.3 919.2 387.6 917.9 391.8Z" fill="black"/>
<path d="M225.8 394.7C221.7 395.8 223.1 403 227.3 403C230.2 403 232 401.2 232 398.5C232 396.2 230.2 393.9 228.6 394.1C228 394.2 226.7 394.4 225.8 394.7Z" fill="black"/>
<path d="M845.2 403.1C842.3 404.2 841.5 406.3 843 409C844.4 411.7 849.6 411.5 849.4 408.8C849.3 407.8 849.6 407.3 850.1 407.6C851.8 408.6 851 405.3 849.3 403.8C848 402.7 846.8 402.5 845.2 403.1Z" fill="black"/>
<path d="M214.3 423.2C213.8 423.9 213.3 425.7 213.1 427.2C212.9 429.4 213.4 430.1 215.4 430.6C219.3 431.5 221 430.4 221 427.1C221 423 216.4 420.4 214.3 423.2Z" fill="black"/>
<path d="M853.5 432.3C852.2 433.3 851.9 434.4 852.4 436.3C853.1 439.4 856.1 440.6 858.9 438.8C861.3 437.3 861.9 432.4 859.6 433.3C858.6 433.7 858.3 433.4 858.7 432.4C859.4 430.6 856.1 430.5 853.5 432.3Z" fill="black"/>
<path d="M205.5 452.6C201.9 456.2 205.7 461.4 210.4 459.2C213.3 457.9 213.8 454.9 211.4 452.6C209.4 450.6 207.6 450.6 205.5 452.6Z" fill="black"/>
<path d="M863.4 460.9C863.7 461.4 863.2 461.7 862.2 461.6C861 461.5 860.5 462.3 860.4 464.3C860.3 467.7 862.2 469.4 865.4 468.6C868.7 467.8 869.7 464.4 867.4 461.9C865.7 460 862.4 459.2 863.4 460.9Z" fill="black"/>
<path d="M199 482.5C197.3 484.5 198.5 488.7 201 489.5C205.4 490.9 209 485.4 205.8 482.2C204.1 480.5 200.5 480.7 199 482.5Z" fill="black"/>
<path d="M866.2 491.2C865.5 491.9 865 493.3 865 494.5C865 499.3 869.9 500.5 872.6 496.5C874.2 494.1 874.2 493.8 872.5 492C870.5 489.7 868 489.4 866.2 491.2Z" fill="black"/>
<path d="M196.2 512.2C194.5 513.9 194.7 516.6 196.6 518.4C199.4 521.3 202.8 519.9 203.5 515.7C204.2 511.9 199 509.4 196.2 512.2Z" fill="black"/>
<path d="M90.2 514.7C89.8 515.7 89.5 522.6 89.5 530V543.5H93.5H97.5L97.7 534C98.1 518.8 94.1 520.5 129.7 520.5H160.5V517.5V514.5L144 513.9C134.9 513.6 119.3 513.2 109.2 513.1C92.7 513 90.9 513.2 90.2 514.7Z" fill="black"/>
<path d="M928.1 514C916.8 518.8 915 521.9 915 536.3C915 541.4 915.4 546.1 915.9 546.8C916.6 547.9 922.9 548 951.6 547.3L986.5 546.5V543V539.5L971.3 539.2L956 538.9V535.9C956 533.4 956.6 532.7 960.3 531.1C962.6 530 969.2 527.2 974.8 524.7C980.5 522.2 985.7 519.7 986.2 519.2C987.7 517.7 986.3 513 984.4 513C983.5 513 977.1 515.5 970.2 518.6C963.2 521.7 957 524.4 956.3 524.7C955.6 525 954.3 523.6 953.3 521.6C951.1 516.9 944.6 513.7 936.5 513.3C933.2 513.1 929.4 513.5 928.1 514ZM942.6 522.5C945.6 524.6 947.2 529 946.8 534.6L946.5 539.5L935.3 539.8L924 540.1V534.1C924 526.9 925.4 523.4 928.9 522.1C932.9 520.6 940.3 520.8 942.6 522.5Z" fill="black"/>
<path d="M868.3 521.5C864.9 525.3 868.9 530.3 873.6 528.1C876.2 526.9 876.8 523.2 874.8 521.2C873.2 519.6 869.8 519.7 868.3 521.5Z" fill="black"/>
<path d="M196.2 542.2C195.5 542.9 195 544.3 195 545.5C195 549.7 199.4 551.4 202.4 548.4C204.2 546.6 204.6 544.5 202.8 545.6C202.1 546 202 545.9 202.4 545.1C204.2 542.2 198.7 539.7 196.2 542.2Z" fill="black"/>
<path d="M867.8 552.2C866.3 554.1 866.2 554.7 867.4 556.4C869.3 559.3 873.2 559.6 874.8 557C875.9 555.2 875.9 554.5 874.5 552.4C872.6 549.4 870 549.3 867.8 552.2Z" fill="black"/>
<path d="M125 560.6C97.1002 562.6 92.3002 563.2 91.3002 564.7C89.8002 566.7 89.6002 569.6 91.0002 570.5C92.3002 571.3 157 567 159.8 565.9C163.3 564.5 162.2 557.7 158.6 558.1C158 558.2 142.9 559.3 125 560.6Z" fill="black"/>
<path d="M914.6 561.2C914.3 562.5 913.6 569.3 913 576.4C911.8 590.6 911.9 591 917.6 591C919.3 591 934.3 592.4 951 594C967.7 595.7 981.9 596.9 982.5 596.6C983.1 596.4 984.1 590.2 984.9 581.5C986.3 565.6 986.2 565 981.3 565C978.1 565 977.3 567.3 976.5 578C976.1 583.2 975.6 587.7 975.5 588C975.3 588.3 970.3 588.1 964.3 587.5L953.5 586.5V580.8C953.4 574.2 952.4 572.7 948.4 573.2C945.7 573.5 945.4 573.9 944.6 579.4L943.7 585.2L935.1 584.6C930.4 584.2 925.4 583.7 924 583.4L921.4 582.9L922.6 572.2C923.2 566.3 923.5 560.9 923.2 560.2C923 559.5 921.1 559 918.9 559C915.7 559 915 559.4 914.6 561.2Z" fill="black"/>
<path d="M198.8 572.1C196.7 573.3 196.4 577 198.2 578.8C200.1 580.7 203.8 580.2 205 577.9C205.9 576.3 205.8 575.3 204.5 573.4C202.8 570.8 201.5 570.5 198.8 572.1Z" fill="black"/>
<path d="M865.8 581.1C863.2 582.5 863.4 587.7 866 588.5C867.1 588.8 868.9 588.8 870 588.5C872.7 587.6 872.7 582.5 870.1 581C867.8 579.8 867.9 579.8 865.8 581.1Z" fill="black"/>
<path d="M127.2 583.6C116.4 585.4 103.9 591.4 99 597.2C95.8 601 95.5 601.8 95.5 607.6C95.5 613.4 95.8 614.2 99 617.5C102.8 621.4 108.5 623.9 114.5 624.3C118 624.5 118.5 624.2 118.8 622.2C119.3 618.9 117.4 617.1 112.8 616.4C103.3 614.8 100.3 605.8 107.4 599.8C115.9 592.7 137.5 588.8 149.3 592.2C154.9 593.7 156.6 595.4 157.3 599.8C158.1 604.3 156.4 607.1 151 610.5C146.8 613.2 146.1 615.4 148.4 618.5C149.7 620.3 149.8 620.3 153.6 618C159.1 614.7 163.9 610 165.4 606.5C167.1 602.5 166 593.8 163.4 590.9C160.2 587.3 152.7 584.2 145.9 583.5C142.4 583.2 138.6 582.7 137.5 582.6C136.4 582.4 131.8 582.9 127.2 583.6Z" fill="black"/>
<path d="M203.2 602.2C199.8 605.6 203.2 611 207.8 609.4C211.1 608.2 211.8 605.5 209.4 602.9C207.4 600.7 205 600.4 203.2 602.2Z" fill="black"/>
<path d="M910.9 602.2C909.3 603.5 903.3 630.6 904.3 631.6C904.8 632.1 930.7 637.9 959.5 644C964.5 645 969.2 646.1 970 646.4C970.8 646.7 972 646.6 972.7 646.2C974 645.4 979.9 619.1 979.2 617.2C978.4 615 973.9 613.7 972.4 615.2C971.6 615.9 970.1 620.9 969 626.3C967.9 631.8 966.8 636.5 966.5 637C966.2 637.4 963.6 637.2 960.7 636.5C957.9 635.8 953 634.7 949.9 634L944.3 632.9L945.5 627.5C947.1 620.9 946 618.6 941.5 619.2C938.8 619.5 938.4 620 937.2 625C936.4 628 935.7 630.6 935.6 630.7C935.3 631 915 626.3 914.4 625.8C914.1 625.5 914.9 620.4 916.1 614.6C917.5 608.1 918 603.6 917.4 603.1C915.6 601.4 912.4 601 910.9 602.2Z" fill="black"/>
<path d="M859 611.4C858.4 612.2 858 613.9 858.2 615.2C858.4 617.1 859.1 617.5 861.9 617.5C866.4 617.5 868.1 614.9 865.6 612.1C863.4 609.7 860.7 609.4 859 611.4Z" fill="black"/>
<path d="M313.2 619.8C312.3 620.5 312 626.8 312.2 648.1L312.5 675.5H329H345.5V672V668.5L332.8 668.2L320 667.9V644.7C320 620.9 319.7 619 316.1 619C315.2 619 313.9 619.4 313.2 619.8Z" fill="black"/>
<path d="M353.2 621.3C350.5 624.1 350.4 628.1 352.8 630.3C355.1 632.4 357.4 632.4 360.5 630.4C363.7 628.3 363.8 624.1 360.7 621.2C357.7 618.4 355.9 618.4 353.2 621.3Z" fill="black"/>
<path d="M647.5 620C647.2 620.5 646.9 633.2 646.9 648.2L646.8 675.5L649.7 675.8C651.4 676 653.2 675.5 653.8 674.7C654.5 673.8 655 667.2 655.2 656.2L655.5 639L668.5 657.5C686.3 682.8 685.4 683.3 685.8 647.8L686 620L683.5 619.4C678.5 618.2 678.1 619.7 677.8 638.7L677.5 656.2L666 640.4C659.7 631.7 653.7 623.3 652.8 621.8C651 619 648.6 618.2 647.5 620Z" fill="black"/>
<path d="M138.5 635.4C122.6 640 108.3 644 106.9 644.4C105.4 644.7 104 645.6 103.7 646.4C103.1 648 110.2 673.6 111.7 675.1C113 676.4 118 675.1 118.7 673.3C119 672.6 118 667.5 116.4 662C114.8 656 114 651.6 114.6 651.2C115.1 650.7 119.8 649.1 125 647.6C132.5 645.4 134.5 645.1 134.9 646.2C135.2 646.9 136.1 649.5 137 652C138.6 656.9 141.1 658.1 144.4 655.7C146.3 654.3 146.3 653.9 145 648.6C144.3 645.5 143.9 642.7 144.2 642.4C144.5 642.1 149.3 640.6 154.8 639.1L164.9 636.3L168.2 646.9C171.4 657.2 171.6 657.5 174.6 657.8C180.3 658.4 180.5 656.6 176 642C171.4 626.8 171.4 627 169.2 627.1C168.3 627.1 154.5 630.9 138.5 635.4Z" fill="black"/>
<path d="M211.2 631.2C209.5 632.9 209.7 636.5 211.5 638C212.3 638.7 214 639 215.5 638.6C219.8 637.5 218.5 630 214 630C213.1 630 211.9 630.5 211.2 631.2Z" fill="black"/>
<path d="M354.2 636.8C353.3 637.5 353 642.1 353.2 656.6L353.5 675.5L356.4 675.8C358 676 359.6 675.6 360.1 674.8C361.5 672.7 361.2 638.6 359.8 637.2C358.4 635.8 356.1 635.7 354.2 636.8Z" fill="black"/>
<path d="M384.9 637C380.5 638.3 377.5 640.8 375 645.2C371.7 651 371.7 660.6 374.9 666.8C380.1 677 393.3 678.8 403.1 670.7C407.4 667.1 407.9 665.1 405.1 662.6C402.6 660.4 399.8 660.9 398.5 663.7C396.3 668.7 388.6 669.4 383.8 665.1C380.8 662.5 380.6 661.7 380.5 656C380.5 650.3 380.7 649.6 383.8 646.9C385.6 645.3 388.1 644 389.4 644C393.5 644 397.7 646 398.8 648.5C400.2 651.5 403 651.7 405.3 649.2C407.8 646.5 407.4 644.9 403.8 641.8C399 637.7 390 635.4 384.9 637Z" fill="black"/>
<path d="M426.9 638C414.9 644.3 412.4 660.4 421.8 670.3C425.7 674.4 429.2 676 434.5 676C440 676 442.2 675 447.3 670.2C451.5 666.1 451.8 665 449.2 662.7C446.2 660 443.4 660.6 441.1 664.5C439.4 667.5 438.5 668 435.5 668C431.3 668 426.5 665.8 425.6 663.5C424 659.2 424.5 659 436.8 659C444.6 659 449 658.6 449.8 657.8C451.7 655.9 451.2 648.9 448.7 644.5C444.4 636.8 434.6 633.9 426.9 638ZM440.6 646.5C442 647.9 442.8 649.5 442.5 650C441.9 650.9 425 651.5 425 650.6C425 648.7 426.8 646.6 429.4 645.4C434.2 643.3 437.8 643.7 440.6 646.5Z" fill="black"/>
<path d="M463.3 636.7C462.3 637 462 641.9 462 656.1V675L464.5 675.6C469.7 676.9 470 676.1 470 662.5V650L473.8 647.5C479.2 643.9 483 643.4 486 645.8C488.4 647.7 488.5 648.4 489 661.7L489.5 675.5L492.4 675.8C494 676 495.6 675.6 496.1 674.8C496.6 674.1 497 668.1 497 661.4C497 642.2 493.6 636 483.2 636C478.5 636 475.8 637.1 472.3 640.3L470 642.3V639.8C470 636.6 467 635.2 463.3 636.7Z" fill="black"/>
<path d="M516.5 637.6C512.5 639 508 643.4 508 645.8C508 650.9 514.1 655.6 527.2 660.5C532.1 662.3 533.4 663.8 532 666.1C531.4 667 529 667.5 524.4 667.5C518.6 667.5 517.6 667.2 516.3 665.2C514.5 662.6 509.3 662.1 508.3 664.6C508 665.4 508.6 667.7 509.6 669.5C514.1 677.9 533.2 678.2 538.8 670C541.4 666.1 541.6 664 539.4 659.8C538.2 657.6 535.8 655.8 529.5 652.9C524.9 650.8 520.8 649 520.2 649C519.7 649 518.7 648.3 518 647.5C514.8 643.6 529 643.2 532.5 647C534.6 649.3 539.8 649.7 540.6 647.5C540.9 646.7 540.2 644.5 539.1 642.6C535.4 636.7 525.2 634.5 516.5 637.6Z" fill="black"/>
<path d="M561 637.6C556.8 639.9 552.2 645 550.9 648.7C550.3 650.6 550 654.8 550.2 658C551 668.7 558.5 676 568.6 676C572.6 676 574.2 675.3 578.7 672C584.3 667.7 585.4 664.8 582.3 662.4C579.4 660.2 577.4 660.8 574.6 664.5C572.4 667.4 571.3 668 568.2 668C563.6 668 560.5 666 559.2 662L558.1 659.1L570.8 658.8L583.5 658.5L583.8 653C584.1 646.6 581.8 642.1 576.1 638.3C572.2 635.7 565.1 635.3 561 637.6ZM572.3 645.1C574.8 646.5 576 647.9 576 649.7C576 650.7 573.6 651 567.5 651C558.9 651 558 650.6 560.3 647.8C563.2 644.2 568.3 643 572.3 645.1Z" fill="black"/>
<path d="M706.2 639.7C699.6 644.6 698.8 646.2 698.2 654.6C697.8 661 698 662.2 700.4 666.2C706.1 676 717.4 679.1 725.6 673.2C730.5 669.6 731.3 668.6 733.3 663C735.4 657.3 735.4 655.6 733.4 649.4C730.6 641 724 636 715.7 636C712.1 636 710.2 636.7 706.2 639.7ZM721.4 645.4C724.1 646.5 724.9 647.6 725.9 651.4C727.5 657.9 725.8 664.5 721.9 666.5C713.7 670.8 706 665.7 706 656C706 646.5 712.8 641.8 721.4 645.4Z" fill="black"/>
<path d="M851.2 639.9C849.4 641 850.1 646 852.3 647.4C854.5 648.8 857.4 647.1 857.8 644.1C858.4 640.1 854.6 637.7 851.2 639.9Z" fill="black"/>
<path d="M900.3 644.1C899.6 644.8 899 646.2 899 647.1C899 648 899.6 649.2 900.3 649.7C900.9 650.2 910.6 653.8 921.8 657.6C939 663.4 941.7 664.6 939.3 665.2C937.8 665.6 926.2 667.4 913.5 669.1C900.7 670.8 890.2 672.6 889.8 673.3C889 674.7 890.7 678 892.3 678C893 678 907.2 682.7 923.9 688.5C940.6 694.3 954.9 699 955.7 699C957.4 699 959 695 958 693.1C957.6 692.3 947.8 688.4 936.4 684.4C924.9 680.4 916.2 677 917 676.7C917.8 676.4 929.3 674.7 942.5 673C955.7 671.2 966.9 669.4 967.5 668.9C970 666.5 965 664.2 935.9 654.2C901 642.2 901.9 642.5 900.3 644.1Z" fill="black"/>
<path d="M222.3 659.3C219.9 660.4 219.7 661.1 220.6 664.7C221.4 667.8 226.5 667.9 228 664.9C230.1 661 226.4 657.4 222.3 659.3Z" fill="black"/>
<path d="M748.2 665.3C747 666.6 746 668.5 746 669.6C746 672.2 750 676 752.6 676C755.4 676 759 671.9 759 668.8C759 663.3 752.1 661.1 748.2 665.3Z" fill="black"/>
<path d="M176 669.6C173 671 159.5 676.7 146 682.2C132.5 687.8 120.6 693.1 119.6 694.1C117.8 695.8 117.8 696 119.4 698.4C120.3 699.8 121.6 701 122.3 700.9C122.9 700.9 132.3 697.1 143 692.6C153.7 688 162.7 684.4 162.9 684.6C163.1 684.8 156.8 692.5 148.9 701.7C140.9 710.9 133.5 719.8 132.3 721.3C130 724.3 130.2 727 132.6 727C133.4 727 146.3 721.9 161.3 715.6C176.3 709.3 190.2 703.5 192.3 702.6C194.3 701.8 196.3 700.4 196.6 699.6C197.3 697.8 195.3 694 193.6 694C192.9 694 184.3 697.4 174.4 701.6C164.6 705.8 155.6 709.4 154.5 709.8C152.7 710.3 152.6 710.2 154 708.3C154.8 707.1 161.1 699.5 168 691.4C185.2 671.2 185.2 671.2 184.8 669.3C184.3 666.7 182.2 666.8 176 669.6Z" fill="black"/>
<path d="M839.8 668.4C837.5 670.1 837.5 672.3 839.8 674.3C842.1 676.4 843.4 676.4 845.4 674.4C849.8 670 844.7 664.6 839.8 668.4Z" fill="black"/>
<path d="M233.7 686.7C233.3 687 233 688.6 233 690.2C233 693.7 237 696.1 239.5 694C241.3 692.5 241.5 688.9 239.8 687.2C238.5 685.9 234.8 685.6 233.7 686.7Z" fill="black"/>
<path d="M882 690.9C881.5 692 881.3 693.5 881.6 694.2C881.9 694.9 896.2 701.8 913.5 709.4C939.8 721 945.2 723.1 946.5 722C948.6 720.3 948.4 716.1 946.3 715.3C945.3 714.9 931.7 708.9 916.1 701.8C900.5 694.8 886.6 689 885.4 689C884.1 689 882.6 689.9 882 690.9Z" fill="black"/>
<path d="M826.2 695.2C824.6 696.8 824.7 700.5 826.3 701.7C830.2 704.7 834.6 701 832.9 696.2C832 693.8 828.2 693.2 826.2 695.2Z" fill="black"/>
<path d="M249 713.4C246.2 716.9 250.1 722.7 253.8 720.4C255.7 719.1 256.3 715.1 254.8 713.2C253.4 711.6 250.5 711.7 249 713.4Z" fill="black"/>
<path d="M879 713.7C873 714.3 870 716.1 867.5 720.5C860.6 732.3 869.8 747.5 890.1 757.7C904.7 765.1 917.1 766.7 924.6 762.1C929 759.4 932 752.5 931.1 747.5C929.3 738.3 925.9 733.8 916.7 728.6C910.2 724.9 908.3 725.4 904.4 732C902.6 735 901.1 737.8 901 738.3C901 738.7 902.6 739.8 904.6 740.7C908.5 742.6 908.4 742.6 911.5 737.5C912.5 735.8 912.8 735.8 915.7 737.3C922.3 740.7 924.7 747.4 921.3 753C917.6 759.3 908 758.2 892 749.9C886.2 746.9 882.4 744 878.5 739.7C871.8 732.4 871.3 729 876 724C879 720.8 879.2 720.7 885.4 721.4C891.5 722 891.7 721.9 892.9 719.3C893.9 717.2 893.8 716.4 892.8 715.5C891.3 714 884.1 713.1 879 713.7Z" fill="black"/>
<path d="M188.5 716.9C180.3 721.9 177.9 727.6 178.1 740.9C178.3 752.7 177 755.9 169.7 760.4C165.3 763.1 164.7 763.2 162.3 761.9C160.9 761.1 158.6 758.8 157.3 756.6C155 753.1 154.9 752.4 156 748.5C157 744.9 156.9 743.8 155.5 741.1C153.3 736.8 151.1 737.4 148.2 743C146.3 746.6 145.9 748.5 146.4 752.3C148.1 766.9 162.2 775 173.5 767.8C183.4 761.5 186.1 755.8 186.7 740C187.3 727.6 187.8 726.2 193.3 723.4C195.8 722 196.3 722.1 198.8 724C203.9 728 205.2 731 204.5 737C204.1 741.1 204.4 743.1 205.5 744.7C207.9 748.2 209.7 747.5 212.4 742.2C214.5 738.1 214.7 736.8 213.9 732.7C211.9 721.7 205.2 715 196.3 715C193.4 715 190.3 715.7 188.5 716.9Z" fill="black"/>
<path d="M810.8 720.9C807.7 723.5 809 728 812.9 728C816.5 728 818.4 725.8 817.6 722.6C816.8 719.5 813.6 718.7 810.8 720.9Z" fill="black"/>
<path d="M266 739C263.9 743 267.2 747 271.4 745.4C273.6 744.6 274.5 740.4 273 738.5C271.2 736.3 267.3 736.6 266 739Z" fill="black"/>
<path d="M792 745.5C790.3 747.5 791.5 751.7 794.1 752.5C796.5 753.3 800 750.6 800 748C800 744.3 794.5 742.5 792 745.5Z" fill="black"/>
<path d="M849 750.9C848.5 752 848 753.3 848 753.7C848 754.2 855.9 760.4 865.5 767.5C875.2 774.7 882.6 780.6 882.1 780.8C881.5 781 871 779.5 858.8 777.4C831.6 772.8 831.5 772.8 831.5 775.7C831.5 777.3 833.9 779.6 840 784.2C875 810.2 886.2 818.1 887.6 817.8C890 817.4 891.3 813.4 889.6 811.7C888.9 811 880.8 804.8 871.6 798C862.5 791.1 855.3 785.4 855.7 785.3C856.2 785.1 867.4 787 880.8 789.3C900.8 792.9 905.4 793.4 906.8 792.4C908 791.5 908.2 790.7 907.5 789.6C905.6 786.8 854 749 852 749C851 749 849.6 749.9 849 750.9Z" fill="black"/>
<path d="M197.5 770.5C182.7 781.7 170.4 791.5 170.2 792.3C170 793.1 173.6 798.6 178 804.6C184.7 813.5 186.6 815.5 188.7 815.5C190.2 815.5 191.8 814.6 192.7 813.4C193.9 811.4 193.6 810.6 187.5 802.4C183.9 797.6 181 793.3 181 792.9C181 792.2 195.7 781.1 197.6 780.3C198.3 780.1 200.3 781.9 202.1 784.4C205.7 789.4 206.5 789.8 209.8 787.4C212.7 785.4 212.6 783.9 208.8 778.5C207.1 776.1 205.8 773.9 206.1 773.6C206.3 773.4 210.3 770.5 214.9 767.1C220.4 763.2 223.7 761.3 224.4 761.9C225 762.4 228 766.2 231 770.4C234 774.5 237.1 778.2 237.9 778.5C239.7 779.2 244 776.4 244 774.4C244 773.5 240.3 768 235.8 762.2C228.1 752.1 226.2 750 225 750.1C224.7 750.1 212.4 759.3 197.5 770.5Z" fill="black"/>
<path d="M286.2 760.9C285.4 761.4 285 763 285.2 764.6C285.5 767.2 285.9 767.5 288.9 767.5C291.5 767.5 292.5 767 293.1 765.3C294.5 761.5 289.8 758.5 286.2 760.9Z" fill="black"/>
<path d="M772.7 767.3C770.8 768.6 770.9 772.3 772.7 774.1C774.4 775.8 778.8 774.3 779.5 771.9C779.9 770.6 779.5 769.2 778.4 767.9C776.4 765.7 775 765.5 772.7 767.3Z" fill="black"/>
<path d="M307.4 782.1C307.1 782.6 307.2 783.5 307.6 784.2C308 784.9 307.9 785 307.2 784.6C305.2 783.4 305.9 786.6 308 788.5C309.7 790 310.4 790.1 312.5 789.2C315.2 788 316 783.7 313.8 782.4C312 781.3 308.1 781.1 307.4 782.1Z" fill="black"/>
<path d="M245.5 788.8C242.8 791.4 231.7 801.8 221 812C210.3 822.2 201.3 831.1 201.2 831.9C200.7 833.7 211.7 844.9 215.7 846.6C225.5 850.8 239.7 845.2 252.1 832.3C263.7 820.1 268.7 808.6 265.9 800.3C264.5 795.9 254.4 784 252.1 784C251.2 784 248.3 786.2 245.5 788.8ZM254.5 798.7C259.4 804.1 259.9 807.6 256.3 814.2C251.7 822.9 240.9 833.5 232.4 837.6C225.9 840.9 224.9 841.1 221.8 840.1C219.9 839.5 216.8 837.4 214.9 835.4L211.5 831.9L219.5 824.2C232.8 811.3 250.2 795 250.6 795C250.8 795 252.5 796.7 254.5 798.7Z" fill="black"/>
<path d="M812.1 795.9C806.6 801.9 802 807.3 802 807.9C802 808.5 805 811.9 808.7 815.3C818.6 824.3 832.2 837.1 842.7 847.2C847.7 852 852.3 856 852.7 856C854.2 856 874 835.3 874 833.8C874 831.9 870.8 829 868.8 829C867.9 829 863.8 832.7 859.6 837.2L852.1 845.5L844 837.5L836 829.6L838.8 826.5C844.1 820.7 844.2 820.5 841.9 817.6C840.8 816.2 839.2 815 838.5 815C837.7 815 835.3 816.9 833.1 819.2L829.2 823.4L821.9 816.5C817.8 812.8 814.2 809.1 813.8 808.5C813.4 807.8 816.1 804.3 820.5 800C824.6 795.9 828 791.8 828 790.8C828 788.9 824.7 785 823.1 785C822.6 785 817.7 789.9 812.1 795.9Z" fill="black"/>
<path d="M750.2 788.2C748.3 790.1 748.8 793.8 751 795C753.7 796.4 757.3 795.3 756.6 793.4C756.3 792.5 756.5 792.2 757 792.5C758.6 793.5 758.1 790.3 756.4 788.6C754.6 786.7 751.9 786.5 750.2 788.2Z" fill="black"/>
<path d="M331.2 801.2C329.2 803.2 329.7 807.8 332 808.5C336.9 810 340.1 806.4 337.5 802.4C335.8 799.8 333.1 799.3 331.2 801.2Z" fill="black"/>
<path d="M726.5 806.7C723.5 809.7 725.4 814 729.7 814C732.4 814 734.3 810.4 732.9 807.9C731.7 805.6 728.2 804.9 726.5 806.7Z" fill="black"/>
<path d="M355.7 817.7C354.7 818.6 354.9 823.2 355.9 824.8C357.1 826.7 361 825.9 362.6 823.5C363.8 821.7 363.7 821.1 362.4 819.2C361 817.1 357.1 816.2 355.7 817.7Z" fill="black"/>
<path d="M701.6 822.5C700.5 823.4 700 824.8 700.2 826.7C700.4 828.9 701.1 829.6 703.3 829.8C705.2 830 706.6 829.5 707.5 828.4C710.2 824.6 705.4 819.8 701.6 822.5Z" fill="black"/>
<path d="M278.6 857.5C267.3 872.8 258 885.8 258 886.6C258 888 261 890 263.3 890C264 890 268.5 884.8 273.1 878.5C277.7 872.2 281.9 867.1 282.3 867C282.7 867 285.5 868.8 288.4 871C293 874.5 294.3 875 299 875C305.5 875 309.7 872.6 314.9 866C319.9 859.7 321.7 853.4 320.1 847.7C319 844.1 317.7 842.6 310.5 837.2C305.9 833.8 301.5 830.7 300.7 830.4C299.7 830.1 292.8 838.5 278.6 857.5ZM307 845.7C309.8 847.8 312.3 850.2 312.6 851.2C313.4 853.7 309.5 861.4 305.8 864.5C304.2 865.9 301.7 867 300.3 867C298 867 288 860.7 288 859.2C288 858 300.3 842 301.2 842C301.7 842 304.3 843.7 307 845.7Z" fill="black"/>
<path d="M382 833.5C381.3 834.3 381 836 381.4 837.5C381.9 839.5 382.7 840 385 840C388.5 840 390.2 837.5 388.9 834.2C387.9 831.6 383.9 831.2 382 833.5Z" fill="black"/>
<path d="M675.3 836.1C672.5 837.1 672 842.4 674.6 843.4C677.4 844.5 679.8 844 680.4 842.4C682.2 837.7 679.5 834.5 675.3 836.1Z" fill="black"/>
<path d="M410.3 845.2C408.2 847.9 408.2 849.8 410.1 851.6C414.1 855.2 419.6 849 415.8 845.2C414.2 843.6 411.5 843.7 410.3 845.2Z" fill="black"/>
<path d="M755 845.5C754.3 846.3 754 847.8 754.2 848.8C755.2 852.4 794 903 795.8 903C797.5 903 818.1 888.2 819.5 886C820.4 884.6 818.3 880.3 816.4 879.6C815.7 879.3 811 882 806 885.6C801 889.2 796.6 891.8 796.1 891.5C795.6 891.2 787.2 880.4 777.6 867.5C759.9 843.8 757.9 842 755 845.5Z" fill="black"/>
<path d="M645.8 849.6C643.6 854.3 648.8 858.1 652.4 854.5C654.4 852.4 654.4 850.6 652.4 848.6C650.1 846.2 647.1 846.7 645.8 849.6Z" fill="black"/>
<path d="M438 855.5C436.3 857.5 437.1 860.3 439.9 861.6C442.8 863.1 444.7 862.5 445.5 859.9C447 855.4 441 851.9 438 855.5Z" fill="black"/>
<path d="M335.4 856.8C334.9 857.2 326.8 870.8 317.6 886.9C300 917.8 299.5 919.1 305.2 919.8C307.5 920.1 308.5 918.9 315 907.6C318.9 900.7 322.7 895 323.4 895C324.1 895 325.4 895.6 326.2 896.2C327.7 897.4 327.7 898.8 325.9 913.8C323.7 931.4 323.9 933 328.6 933C330.2 933 331.1 932.3 331.5 930.7C332 928.4 335 904 335 902.1C335 901.5 337 901 339.6 901C349.1 901 357.6 891.1 358.7 878.8C359.2 873.7 359 872.7 356.7 869.7C355.3 867.9 350.4 864.1 345.7 861.2C336.5 855.5 336.9 855.7 335.4 856.8ZM350.1 875.2C352.1 878 352.1 878 350 882.7C347.5 888.4 343.4 893 340.8 893C339.8 893 336.2 891.6 332.9 890L326.9 886.9L329 883.2C330.2 881.2 332.8 876.7 334.8 873.3L338.4 867.1L343.3 869.8C346 871.3 349 873.7 350.1 875.2Z" fill="black"/>
<path d="M617.2 857.2C614.5 859.9 616.5 865 620.1 865C622.2 865 625 862.4 625 860.5C625 857 619.7 854.7 617.2 857.2Z" fill="black"/>
<path d="M467.7 861.7C467.3 862 467 863.9 467 865.7C467 869 467.1 869.1 470.8 868.8C473.8 868.6 474.6 868.1 474.8 866.2C475 864.9 474.6 863.2 474 862.4C472.7 861 468.9 860.5 467.7 861.7Z" fill="black"/>
<path d="M588.7 863.2C586.6 864.3 586.5 868.3 588.5 870C590.5 871.7 594.6 870.5 595.3 868.1C596.2 864.5 591.9 861.3 588.7 863.2Z" fill="black"/>
<path d="M725.4 864.4C724.8 865.9 741.3 927.9 743.3 931.9C744.9 935.2 746.5 935.5 748.9 933.1C750.8 931.2 750.8 931.1 749 923.9C747.5 918.3 747.4 916.4 748.3 915.8C752.4 913 761.3 908 762.1 908C762.6 908 765.4 910.2 768.2 913C771 915.7 773.7 918 774.2 918C776.3 918 779 915.8 779 914.2C779 911.9 730 863 727.7 863C726.7 863 725.7 863.6 725.4 864.4ZM754.4 901.1C753.8 902.1 744.9 907.3 744.6 906.8C744.4 906.7 742.9 901.4 741.3 895.1L738.2 883.8L746.6 892.1C751.2 896.6 754.7 900.7 754.4 901.1Z" fill="black"/>
<path d="M497.6 866.6C494.6 869.6 496.3 874 500.5 874C505.3 874 506.9 867.7 502.4 866C499.2 864.7 499.4 864.7 497.6 866.6Z" fill="black"/>
<path d="M558.2 867.2C556.6 868.8 556.7 872.5 558.3 873.8C560.1 875.3 563.2 874.7 564.7 872.4C567.2 868.5 561.5 863.9 558.2 867.2Z" fill="black"/>
<path d="M527 869C525.5 871.9 526.7 874.9 529.6 875.6C532.6 876.4 535 874.5 535 871.4C535 867.3 528.9 865.5 527 869Z" fill="black"/>
<path d="M695 880.5C693.9 881.8 695.1 885.3 702.3 903.1C709.5 920.6 710.5 923.8 708.5 922.3C707.3 921.3 698.3 913.6 688.6 905.2C678.9 896.9 670.6 890 670.1 890C669.6 890 668.7 890.6 668.1 891.3C667.3 892.3 669 897.3 675.1 912.1C679.6 922.8 685.5 936.9 688.2 943.5C691 950.1 693.6 955.9 694 956.4C694.5 956.9 696 957 697.4 956.6C699.3 956.1 700 955.3 700 953.6C700 952.2 696.4 942.6 692 932.1C687.6 921.6 684 912.7 684 912.4C684 911.8 713.5 936.4 719.1 941.7C722.9 945.3 726.2 945.8 726.8 942.9C726.9 942 721.3 927.4 714.2 910.4C702.5 882.6 701 879.5 698.8 879.2C697.4 879 695.7 879.6 695 880.5Z" fill="black"/>
<path d="M380.5 885C362.6 893.8 349.7 927.8 357.8 944.9C358.9 947.4 360.8 948.9 364.6 950.7C369.4 952.9 370.3 953 374.7 951.9C378.5 950.9 380.8 949.3 386 944.1C393.7 936.4 398.1 928.2 401.1 916.1C405.2 899.9 402.4 888.8 393.3 884.9C387.7 882.5 385.5 882.5 380.5 885ZM391.9 894.6C394.7 896.9 395 897.7 395 903C395 916.1 389.8 929.2 381.3 937.7C376.8 942.3 375.6 943 372.1 943C365.1 943 362.5 938.7 363.4 928.3C364.9 912.3 377.5 892 386 892C387.6 892 390.2 893.1 391.9 894.6Z" fill="black"/>
<path d="M421.3 897.2C420.8 897.9 417.8 907.7 414.7 919C411.5 930.3 407.5 944.8 405.6 951.2C402 964 402.2 966.5 407.1 965.8C409.3 965.5 409.8 964.3 413.5 951.2L417.5 936.9L421 937.6C422.9 938 426.1 938.4 428 938.4C431.3 938.5 431.5 938.3 431.5 935C431.5 931.7 431.3 931.5 426 929.9C423 928.9 420.6 927.8 420.6 927.3C421.3 922.4 426.6 906 427.5 906.3C428.1 906.6 433 908 438.5 909.5L448.4 912.2L450.2 910C452.3 907.4 452.5 905.4 450.8 904.3C449.6 903.6 424.5 896.1 422.9 896C422.5 896 421.8 896.6 421.3 897.2Z" fill="black"/>
<path d="M637.5 900.6C634.3 901.4 631.7 902.9 630.2 904.7C619.7 917.7 625.9 950.9 641.5 965.2C646.9 970.2 650.6 971.4 655.9 969.9C665.3 967.4 669.3 960.5 669.3 947C669.3 935.8 667.7 928.2 663 918.4C655.8 903.4 647.8 897.8 637.5 900.6ZM651.4 914.3C659 924.5 662.6 936.2 661.7 947.9C661.2 954.1 660.7 955.7 658.4 958.1C650.6 966.2 640.9 957.5 634.9 937.1C633.2 931.2 632.8 928.2 633.3 921.8C634 911.7 636 909 642.9 909C647.3 909 647.7 909.3 651.4 914.3Z" fill="black"/>
<path d="M462.7 907.7C462.4 908.2 459.9 922.8 457.1 940.3C454.2 957.7 451.7 972.6 451.5 973.3C450.4 976.1 453.2 977.3 466.1 979.6C473.5 980.9 480.2 981.7 481.1 981.4C483.2 980.8 484.1 976.5 482.6 974.6C482 973.9 476.8 972.5 471 971.6C465.3 970.7 460.5 969.8 460.4 969.7C460.2 969.6 460.9 964.6 461.8 958.7L463.5 947.9L469.9 948.2C476.1 948.5 476.4 948.4 477 946C478.1 941.9 476.6 940.3 470.9 939.7C468.1 939.3 465.6 938.9 465.4 938.8C464.7 938 468.8 916.5 469.6 916.6C470.1 916.7 475.2 917.6 480.8 918.5C486.5 919.4 491.5 919.8 492 919.4C493.3 918 494.2 912.2 493.2 911.6C492.3 911 467.3 907 464.6 907C463.8 907 462.9 907.3 462.7 907.7Z" fill="black"/>
<path d="M600.3 909.2C599.1 910.7 610.1 976.5 611.8 978.2C613.4 979.8 618 978.3 618 976.2C618 973.4 607.1 910 606.5 909C605.6 907.6 601.4 907.8 600.3 909.2Z" fill="black"/>
<path d="M562.6 913.5C560.4 914.3 557.3 916.2 555.6 917.9C553 920.5 552.6 921.8 552.3 927.2C552 932.6 552.3 934.2 554.7 938.5C557.3 943.1 558.4 943.9 568.5 949.1C580.7 955.3 582.4 957.1 583.5 965.7C584.2 970.8 584.1 971 580.8 973C576 975.9 569.6 975.7 566.4 972.5C562 968.1 553.3 969.9 555.8 974.7C556.4 975.7 558.1 977.7 559.7 979.2C569.9 988.9 589.3 983.3 591.5 970.1C593.3 959.4 585.8 947.5 574 942.3C561.7 936.8 562.1 937.1 560.5 931.7C558.8 926.1 559.3 924.9 564.1 922.4C568.2 920.3 572.9 920.7 576.4 923.3C580.3 926.3 583.8 927.2 586.2 925.9C588.7 924.6 588.5 923.4 585 919C580.1 912.8 570.9 910.5 562.6 913.5Z" fill="black"/>
<path d="M517.5 913.6C508.2 915.8 503.7 920.9 503.7 929.5C503.7 937.8 506.8 942.3 517.4 949.5C528.2 956.8 529.9 959 530.6 966.1C531.4 973.8 530 975.3 521.8 975.8C515.3 976.2 515.3 976.2 512.5 972.6C510.1 969.4 509.2 968.9 506.1 969.2C501.5 969.6 501.1 971.6 504.4 976.9C508.2 982.8 513.6 985.3 521.9 984.8C533.1 984.2 538.4 978.6 538.4 967.5C538.4 955.7 533.9 949.4 518.6 940.1C512.6 936.4 510.2 932.2 511.4 927.5C512.2 924.4 516.7 922 521.6 922C524.5 922 526 922.7 528.6 925.5C531.1 928.2 532.6 929 535.5 929C537.8 929 539.3 928.5 539.7 927.4C540.6 924.9 536.5 918.7 532.3 916.3C528.4 914.1 521.1 912.8 517.5 913.6Z" fill="black"/>
<text fill="black" style="white-space: pre" xml:space="preserve" font-family="Roboto Mono" font-size="75" letter-spacing="0em" text-anchor="middle"><tspan id="stamp-name" x="535.5" y="334.132"></tspan><tspan id="stamp-name-middle" x="535.5" y="414.132"></tspan><tspan id="stamp-name-line2" x="535.5" y="494.132"></tspan></text>
<text fill="black" style="white-space: pre" xml:space="preserve" font-family="Roboto Mono" font-size="75" letter-spacing="0em" text-anchor="middle"><tspan id="stamp-license" x="535.5" y="783.132"></tspan></text>
</svg>
