<svg width="960" height="960" viewBox="0 0 960 960" fill="none" xmlns="http://www.w3.org/2000/svg">
<path d="M478.1 9.4C477.3 10.3 477 19.3 477.2 40.1L477.5 69.5H480H482.5L482.8 40.1C483 11.6 482.7 8 480 8C479.6 8 478.7 8.6 478.1 9.4Z" fill="black"/>
<path d="M454.5 9.9C453.9 10.9 456.7 67.6 457.5 69.7C457.7 70.4 458.8 71 459.9 71C460.9 71 462 70.4 462.2 69.7C462.7 68.3 460.2 14.7 459.4 11.2C459 9 455.7 8.1 454.5 9.9Z" fill="black"/>
<path d="M500.5 10.1999C500 11.7999 498 53.2999 498 62.9999C498 68.4999 498.3 70.1999 499.6 70.6999C500.4 70.9999 501.6 70.7999 502.1 70.2999C503 69.3999 506 12.4999 505.2 10.1999C505 9.59986 503.9 8.99987 502.9 8.99987C501.8 8.99987 500.7 9.59986 500.5 10.1999Z" fill="black"/>
<path d="M431.5 12.0001C431 12.9001 435.5 64.2001 436.6 69.7001C437.1 72.3001 440.7 72.9001 441.6 70.6001C442.1 69.3001 437.5 18.1001 436.5 13.2001C435.9 10.9001 432.7 10.1001 431.5 12.0001Z" fill="black"/>
<path d="M523.5 12.2C522.8 14.2 517.4 69.7 517.8 70.9C518.3 72.3 521.7 72.3 522.5 71C523.4 69.6 528.8 13.9 528.2 12.2C528 11.6 526.9 11 525.9 11C524.8 11 523.7 11.6 523.5 12.2Z" fill="black"/>
<path d="M409.3 14.7001C408.5 16.6001 415.8 70.5001 417.2 73.2001C418.3 75.4001 420.9 75.5001 421.6 73.6001C422.4 71.4001 414.3 16.1001 412.9 14.4001C411.4 12.5001 410.1 12.6001 409.3 14.7001Z" fill="black"/>
<path d="M547.2 14.3002C545.9 15.8002 537.7 68.1002 538.2 71.8002C538.5 74.6002 539.8 75.4002 541.8 74.2002C543.5 73.1002 552 17.1002 550.8 14.7002C549.8 12.7002 548.6 12.5002 547.2 14.3002Z" fill="black"/>
<path d="M386.7 17.6997C386.3 17.9997 386 19.2997 386 20.5997C386 23.6997 395.8 72.9997 397 75.6997C398.1 78.2997 400.8 78.6997 401.6 76.4997C402.4 74.5997 391.4 20.1997 389.9 18.3997C388.6 16.8997 387.7 16.6997 386.7 17.6997Z" fill="black"/>
<path d="M570 17.9998C568.8 18.6998 558 69.6998 558 74.6998C558 77.1998 560.5 78.8998 562.1 77.2998C563 76.3998 574 23.2998 574 19.8998C574 17.8998 571.8 16.8998 570 17.9998Z" fill="black"/>
<path d="M364 23.4C363.1 24.6 364.4 30.8 370 52.6C373.9 67.9 377.3 80.8 377.6 81.2C378.4 82.5 381.8 82.1 382.3 80.7C382.5 80.1 379.5 67 375.5 51.7C368.4 23.7 366.9 20 364 23.4Z" fill="black"/>
<path d="M592.2 23.3C590.9 24.8 578 75.9 578 79.5C578 81.3 578.5 82 579.9 82C581 82 582.2 81.5 582.6 80.9C582.9 80.3 586.3 67.6 590 52.7C594.6 33.9 596.4 25 595.8 23.7C594.8 21.7 593.6 21.5 592.2 23.3Z" fill="black"/>
<path d="M341.4 30.4001C341.1 31.2001 343.1 38.9001 345.8 47.7001C348.6 56.4001 352.2 68.2001 353.9 74.0001C357.6 86.2001 358.1 87.4001 360.4 87.8001C363.5 88.4001 363.3 84.7001 359.2 71.7001C356.9 64.4001 353.2 52.4001 350.9 45.0001C348.6 37.6001 346.3 30.9001 345.8 30.2001C344.4 28.6001 342.1 28.7001 341.4 30.4001Z" fill="black"/>
<path d="M613.1 31.2C612.7 32.5 608.8 45.3 604.5 59.8C598.3 80.4 596.9 86.3 597.8 87.2C600.1 89.5 602.3 86.6 604.8 78.4C606.1 74.1 609.8 61.8 613 51.1C617.4 36.6 618.7 31.3 617.8 30.3C616.2 28.3 614 28.7 613.1 31.2Z" fill="black"/>
<path d="M319.4 37.3998C319.1 38.1998 323.3 51.0998 328.7 66.1998C337.1 89.4998 338.8 93.4998 340.6 93.7998C341.8 93.9998 343 93.4998 343.2 92.7998C343.6 91.7998 332.9 59.8998 325.4 40.1998C323.8 35.8998 320.6 34.3998 319.4 37.3998Z" fill="black"/>
<path d="M634.9 38.7001C628.8 54.4001 616 91.7001 616.4 92.7001C617.1 94.4001 620.9 94.4001 621.5 92.7001C621.7 92.1001 626.2 79.6001 631.4 65.1001C638.6 45.1001 640.7 38.3001 639.9 37.3001C638.1 35.2001 636 35.8001 634.9 38.7001Z" fill="black"/>
<path d="M298.7 44.7C297.1 46.2 298.5 50.2 309.1 75C318.1 96.1 320.6 101 322.1 101C323.2 101 324.3 100.3 324.6 99.6C324.9 98.8 320.2 86.5 314.2 72.3C304.1 48.7 300.7 42.6 298.7 44.7Z" fill="black"/>
<path d="M658.1 44.9998C656.3 45.9998 634.8 98.0998 635.5 99.7998C635.8 100.5 636.9 101 638.1 100.8C639.8 100.6 642.1 95.7998 651.1 74.4998C657 60.1998 662 47.7998 662 46.8998C662 44.8998 659.8 43.8998 658.1 44.9998Z" fill="black"/>
<path d="M277 55.8999C277 58.1999 300.8 108.2 302.4 109.2C304.1 110.3 305.5 109.6 305.8 107.3C306 106.2 302 96.7999 297 86.3999C292 75.9999 286.5 64.4999 284.8 60.6999C282.2 55.1999 281.3 53.9999 279.3 53.9999C277.7 53.9999 277 54.5999 277 55.8999Z" fill="black"/>
<path d="M676.7 57.2C675.1 60.7 671.2 69.2 660.6 91.5C653.8 105.7 652.9 109.5 656.4 109.5C658 109.5 660.8 104.4 670.7 83.5C677.4 69.2 682.9 56.8 682.7 56C682.6 55.2 681.5 54.4 680.3 54.2C678.6 53.9 677.7 54.7 676.7 57.2Z" fill="black"/>
<path d="M256.4 65.5C255.5 67.7 283 118.4 285.3 118.8C288.4 119.4 288.4 116 285.3 110.1C281.3 102.7 275.6 92 268.5 78.5C265.3 72.4 262 66.7 261.2 65.7C259.4 63.6 257.1 63.5 256.4 65.5Z" fill="black"/>
<path d="M694.6 72.2C671.4 115.1 669.9 118.5 674.5 118.5C676.3 118.5 681.4 109.7 699.6 74.9C703.5 67.4 704 64 701.1 64C699.6 64 697.9 66.3 694.6 72.2Z" fill="black"/>
<path d="M236.4 77.2998C235.6 79.4998 265.9 129.2 267.9 128.8C271.5 128.1 269.7 123.8 255.6 100.5C245 82.7998 240.6 76.3998 239.1 76.1998C237.9 75.9998 236.7 76.4998 236.4 77.2998Z" fill="black"/>
<path d="M715.7 81.1998C702.9 101.4 689 125.9 689.6 127.3C690.4 129.5 692.3 129.5 694.2 127.2C697.6 123.2 723 79.8998 723 77.9998C723 74.0998 719.2 75.6998 715.7 81.1998Z" fill="black"/>
<path d="M218.3 87.7C217.6 88 217 89 217 90C217 91 224.2 102.5 233 115.6C248.6 138.8 251.9 142.5 252.8 137.7C253.2 135.8 222.5 88.5 220.5 87.7C220 87.5 218.9 87.5 218.3 87.7Z" fill="black"/>
<path d="M722.1 112.3C710.7 129.4 706.1 137.2 706.6 138.4C707 139.3 708 140 708.9 139.8C710.8 139.4 743 92.3001 743 89.7001C743 88.6001 742.2 88.0001 740.7 88.0001C738.7 88.0001 735.6 92.1001 722.1 112.3Z" fill="black"/>
<path d="M476.1 100.4C475.2 101.5 476 108.9 479.8 133C484.6 163.4 485.4 166.5 488.5 165.4C489.2 165.1 491.9 156.6 494.6 146.5C497.3 136.3 499.7 128 500.1 128C500.4 128 501.8 136.2 503.3 146.2C505.4 159.9 506.5 164.8 507.7 165.8C508.8 166.6 509.7 166.7 510.4 166C512 164.4 528.1 103.7 527.1 102.7C526.6 102.2 525 102 523.4 102.2C520.5 102.5 520.4 102.7 515.4 121.5C511.7 135 510 139.8 509.6 138C509.3 136.6 507.9 127.9 506.5 118.5C504.2 103.4 503.2 100.1 500.9 100C499.8 100 498.3 102.4 497.8 105C496.5 111.3 489.7 136.6 489 137.3C488.1 138.3 487.9 137 484.9 116.5C482.7 101.9 481.7 99.0001 478.4 99.0001C477.8 99.0001 476.7 99.6001 476.1 100.4Z" fill="black"/>
<path d="M198.6 102.6C197.9 104.4 197.6 104 217.3 130.5C228.7 145.8 232.7 150.5 234.3 150.5C235.8 150.5 236.5 149.9 236.5 148.7C236.5 146.1 202.8 101.1 200.9 101C200 101 198.9 101.7 198.6 102.6Z" fill="black"/>
<path d="M434.5 102.6C423.4 104.1 421.7 104.9 422.5 108.5C422.8 109.6 424.4 123.3 426.1 139C427.8 154.7 429.6 167.9 430 168.3C431.1 169.5 458.2 166.1 459.8 164.6C461.1 163.3 460.1 158.8 458.3 157.7C457.9 157.5 453 157.9 447.5 158.6C442 159.3 437.2 159.9 436.9 160C436.5 160 435.9 157 435.6 153.2C435.2 149.5 434.6 145.1 434.3 143.3L433.8 140.2L439.4 139.5C446.2 138.6 447.7 137.2 445.8 133.3C444.5 130.7 444.2 130.5 438.8 130.8L433.2 131.2L432.5 125.8C432.2 122.9 431.8 118.5 431.7 116L431.5 111.5L441.7 110.5C447.3 109.9 452.4 109 453 108.4C453.7 107.7 454 106 453.8 104.4C453.5 101.8 453.1 101.5 449.5 101.4C447.3 101.3 440.6 101.9 434.5 102.6Z" fill="black"/>
<path d="M756.8 102.2C753.6 104.8 723 147.1 723 149C723 150.4 723.7 151 725.3 150.9C727 150.9 730.2 147.2 739 135.3C761.2 105.2 762.1 103.9 760.9 102.4C759.5 100.7 758.8 100.7 756.8 102.2Z" fill="black"/>
<path d="M396.3 109.7C395.9 110.7 397.8 119.9 400.4 130.3C403.1 140.6 405.1 149.2 404.9 149.4C404.5 149.7 391.1 135.5 377.3 120.3C372.8 115.3 371.8 114.7 370.3 115.6C369.3 116.3 368.6 117.6 368.7 118.6C369.4 123.6 383.9 178.3 384.8 179.2C386.1 180.5 391 177.7 391 175.8C391 175.1 389 166.5 386.4 156.7C383.9 146.9 382 138.5 382.2 138C382.4 137.6 385.2 140.2 388.5 143.9C413.4 171.9 416.2 174.3 417.6 170.5C418.3 168.8 404.3 111.3 402.7 109.2C401.3 107.4 397 107.7 396.3 109.7Z" fill="black"/>
<path d="M569.3 112.2C567.7 114.3 552.7 166.3 552.6 170C552.5 173.1 552.8 173.5 555.2 173.8C558.5 174.2 558.9 173.5 562.9 159.6C564.6 153.6 566.2 148.5 566.4 148.3C566.6 148 570.1 148.8 574.2 150C578.2 151.2 582.3 152.4 583.3 152.6C585.6 153.3 585.5 155 581.9 166.9C580.3 172.5 579 178.1 579.2 179.3C579.5 181.7 583.5 182.9 585.2 181.2C585.7 180.7 589.9 167.3 594.4 151.4C603.2 120.7 603.5 118.6 598.2 119.2C595.8 119.5 595.3 120.3 592 131.7C590 138.4 588.2 144.1 587.9 144.4C587.4 144.9 570 140.3 569.2 139.5C569 139.4 570.5 133.9 572.5 127.3C574.4 120.7 576 114.6 576 113.8C576 111.1 571 110 569.3 112.2Z" fill="black"/>
<path d="M180.7 115.7C178.8 117.5 178.2 116.7 204.7 149C216.3 163.2 220 166.1 220.8 161.8C221 160.8 214.1 151.5 203.4 138.3C193.6 126.3 185.1 116.2 184.5 115.8C183.2 114.8 181.5 114.8 180.7 115.7Z" fill="black"/>
<path d="M774.9 116.3C774.1 117.1 765.9 127 756.5 138.4C740.1 158.4 737.2 163 741 163.8C743.1 164.2 780.2 119.5 779.8 117.2C779.4 115 776.6 114.5 774.9 116.3Z" fill="black"/>
<path d="M163.7 130.7C163.3 131 163 132 163 132.9C163.1 134.5 198.9 174.7 201.7 176.4C202.7 176.9 203.7 176.7 204.6 175.8C206.4 174 205.9 173.3 184.2 149.2C168 131.3 165.4 128.9 163.7 130.7Z" fill="black"/>
<path d="M773.6 151.6C754.6 172.4 752.1 176 756.2 176.8C757.6 177.1 779.7 154.2 793.8 137.7C797.9 132.9 798.4 130 795.1 130C794.2 130 784.5 139.7 773.6 151.6Z" fill="black"/>
<path d="M319.5 135.6C314.6 138 308.8 140.6 306.8 141.5C304.7 142.3 303 143.6 303 144.4C303 145.1 309 158.3 316.3 173.6C329.7 201.6 331.2 203.8 334.5 201C336.8 199.1 336.3 197 331 185.6C328.3 179.8 326 174.6 326 174.2C326 173.8 328 172.4 330.6 171.1C334.6 168.9 335.1 168.3 334.8 165.6C334.4 161.7 332 161.2 325.8 163.9C321.6 165.7 321.2 165.7 320.7 164.2C320.4 163.3 318.6 159.2 316.6 155.2L313.1 148L322.5 143.6C327.8 141.1 332.3 138.4 332.6 137.5C333.4 135.4 331.4 131 329.8 131.1C329.1 131.1 324.5 133.1 319.5 135.6Z" fill="black"/>
<path d="M638.5 135.8C637.4 136.5 627 148.4 607.3 171.4C601.1 178.6 596 185.3 596 186.2C596 187.3 597 188.2 598.6 188.6C600.8 189.2 602 188.4 606.5 184L611.9 178.7L619.5 182.3L627.1 185.9L626.4 193.3C625.9 199.4 626 200.8 627.5 202C631.5 205.3 632.2 202.9 637.7 169.4C641.4 146.6 642.6 137.2 641.8 136.3C640.6 134.8 639.9 134.7 638.5 135.8ZM630.4 166.6C629.5 172 628.7 176.6 628.6 176.7C628.5 176.9 626 176 623.2 174.8C618.5 172.8 616.7 170.7 618.8 169.8C619.2 169.6 622.2 166.5 625.4 162.8C628.7 159 631.5 156.1 631.6 156.3C631.8 156.5 631.2 161.1 630.4 166.6Z" fill="black"/>
<path d="M146.7 146.6C146.3 147 146 148.1 146 149.1C146 151.4 187 191.1 189 190.8C189.8 190.6 190.6 189.6 190.8 188.5C191 187 185.6 181.1 170.4 166.5C159.1 155.5 149.3 146.4 148.6 146.2C147.9 146.1 147.1 146.2 146.7 146.6Z" fill="black"/>
<path d="M789.4 166.1C774.4 181 769 187 769.2 188.5C769.4 189.6 770.3 190.5 771.2 190.5C773.6 190.5 814.2 150.1 813.8 148.1C812.9 143.7 809.5 146.2 789.4 166.1Z" fill="black"/>
<path d="M660 180.5C650.9 194 643.1 205.7 642.5 206.5C641.1 208.6 643.2 211.5 646.1 211.5C648 211.5 650 209.3 655.9 200.7C659.9 194.8 663.4 190.1 663.6 190.3C663.8 190.4 662.1 196.8 659.9 204.3C654 224.4 654.9 225 670.7 212.5C676.7 207.8 681.8 204 682.3 204C682.7 204 679.9 208.7 676 214.5C672.2 220.2 669 225.8 669 226.9C669 229.1 673.5 231 674.9 229.4C675.4 228.9 680.2 222 685.7 214C710.7 177.7 710.4 178.1 709 176.5C708.3 175.7 707.4 175 706.9 175C706.5 175 698.2 181.1 688.4 188.5C678.7 195.9 670.4 202 669.9 202C669.5 202 669.5 200.8 670 199.2C673.4 188.5 681 158.5 680.6 157.4C679 153.3 676 156.7 660 180.5Z" fill="black"/>
<path d="M131.1 163.4C130.3 164.3 130.2 165.5 130.7 166.4C132.5 169.6 173.5 206.1 175 205.8C178.3 205.1 176.3 201.3 169 194.5C132.6 160.6 133 161 131.1 163.4Z" fill="black"/>
<path d="M267.7 164.5C262.7 167.9 261 171.7 261 179C261 197.8 278.8 219.9 295.4 221.7C298.9 222.1 300.5 221.7 303.9 219.4C309.4 215.8 311 212.5 311 204.7C311 192.8 305.4 181.3 295 171.7C284.6 162 275.1 159.5 267.7 164.5ZM284.3 173.1C293.2 179 300.3 189.3 303.1 200.4C304.2 204.7 304.1 205.7 302.5 208.6C297.7 217.5 286.3 213.4 276.5 199.1C272.1 192.7 270.2 188.5 269 182.2C268.3 178.3 268.5 177.1 270.2 174.7C274.1 169.3 277.9 168.9 284.3 173.1Z" fill="black"/>
<path d="M823.2 165.3C821.1 167.1 811.2 175.9 801.2 185C787.6 197.3 783 202 783.2 203.5C783.4 204.6 784.2 205.6 785 205.7C785.8 205.9 792.8 200.3 800.6 193.3C808.3 186.2 818.1 177.4 822.3 173.6C826.5 169.8 830 165.9 830 165C830 161.9 827.2 162 823.2 165.3Z" fill="black"/>
<path d="M115.7 180.7C114 182.3 115.5 184.3 123.3 190.7C149.9 212.7 160.6 221 161.9 220.8C164.7 220.2 164.2 217.1 160.8 214.2C149.4 204.2 118.8 180 117.7 180C116.9 180 116 180.3 115.7 180.7Z" fill="black"/>
<path d="M818.5 198.3C797.1 216.1 793.6 219.9 798.1 220.8C798.9 220.9 809.7 212.9 822.1 202.9C838.4 189.6 844.5 184.1 844.5 182.6C844.5 177.7 840.4 180.2 818.5 198.3Z" fill="black"/>
<path d="M712.9 205.2C706.1 212.5 696.6 222.6 691.8 227.6C683 236.6 681.9 238.5 684.2 240.8C686.6 243.2 688.9 241.8 698 232.4L707.3 222.8L712.5 228C716.6 232 718.6 233.3 721.7 233.7C729.9 234.8 739.2 229 743 220.2C745.3 215.2 745.5 211.7 743.7 207.9C742.2 204.6 728.7 192 726.8 192C726 192 719.7 198 712.9 205.2ZM732.3 207.5C737.3 212.1 737.8 213.6 735.6 217.8C733.4 222 729.6 225 725.9 225.6C722.9 226.1 722 225.6 717.8 221.3L713.2 216.5L719.3 209.8C722.7 206.1 726 203.1 726.5 203.1C727.1 203.1 729.6 205 732.3 207.5Z" fill="black"/>
<path d="M452.5 198C378.7 205.5 312.6 238.9 266.6 292C231.6 332.4 209.8 380.3 199.4 440C197 454 196.7 457.8 196.7 480C196.7 502 197 506.1 199.4 520C212.9 597.7 246.7 657.3 303 702.6C356.7 745.8 433.2 768.3 505 762C619.6 751.9 710.7 680.2 748 570.5C759.7 536.3 763.2 515.6 763.2 480C763.2 443.9 759.7 423.2 747.9 389C712.1 285.3 630.3 216.3 523.5 200C507.5 197.6 468.1 196.5 452.5 198ZM499.7 203C625.4 213.1 719.6 294 750.9 418.6C760.3 456.1 760.5 503 751.4 539.4C747.6 554.8 739.3 579 733 593.5C723.4 615.4 706.6 643.2 693.6 658.4C648.5 711.5 593.9 742.3 524 754.2C512 756.2 507.2 756.5 480.5 756.5C453.9 756.5 448.9 756.2 436.5 754.2C393.9 747.1 356.3 732.5 322.8 710C267.1 672.5 228.2 615.8 211 547C203.5 516.8 202.6 509.7 202.6 480C202.6 450.8 203.4 443.6 210.5 414.4C229.3 337 277 273.5 343.9 237C390.8 211.4 448.1 198.9 499.7 203Z" fill="black"/>
<path d="M331.3 631.7C323.6 641 314.8 651.5 311.7 655.1C305.7 662.1 304.8 664.9 307.9 667.1C309 667.9 313.7 671.8 318.5 675.9C326.5 682.8 327.2 683.2 329.5 682C334.2 679.5 333.3 677.5 324.4 669.9L316 662.8L318.9 659.1C320.5 657.1 328.4 647.6 336.4 638C344.4 628.4 351 619.8 351 618.9C351 616.9 349 615 347 615C346.1 615 339 622.5 331.3 631.7Z" fill="black"/>
<path d="M604.4 623.5C600.4 624.7 588.7 633.2 587.6 635.7C587.3 636.4 590.8 641.5 595.3 647.1C599.8 652.7 608.6 663.6 614.9 671.4C621.1 679.1 627 685.6 627.9 685.8C630.1 686.2 643.4 673.9 645 670C650.6 656.4 631.9 629.3 612.8 623.6C609.4 622.5 607.7 622.5 604.4 623.5ZM618.5 634.2C624.7 638.3 634.3 650.4 636.9 657.5C638.9 662.8 638.9 663.3 637.4 666.3C635.9 669.2 630.4 674.9 628.9 675C628.6 675 625.7 671.7 622.5 667.7C619.2 663.8 612.3 655.4 607.2 649.2C602 643 597.9 637.8 598.1 637.7C598.3 637.5 600.2 636 602.3 634.2C607.4 629.9 612 629.9 618.5 634.2Z" fill="black"/>
<path d="M378 641.2C375.7 643.8 346 693.4 346 694.7C346 696.1 349.1 698 351.5 698C352.3 698 353.4 697.2 353.7 696.3C354.1 695.3 356.6 690.9 359.4 686.5C374.7 661.8 384 645.8 384 644C384 643 383.1 641.6 382.1 641C379.6 639.7 379.3 639.7 378 641.2Z" fill="black"/>
<path d="M566 647.2C559.7 650.5 554.4 653.7 554.2 654.5C554 655.2 556.3 660.5 559.3 666.2C562.3 671.8 568.4 683.3 572.8 691.7C577.2 700 581.1 707.8 581.5 708.9C581.8 709.9 582.7 711.1 583.5 711.4C585 711.9 606 701.2 608.9 698.5C609.8 697.6 610 696.2 609.6 694.6C608.7 690.8 605.6 691.2 595.6 696.6C590.8 699.1 586.7 701.1 586.6 700.9C586.4 700.7 584.2 696.7 581.7 692L577.1 683.6L581.8 681C585.7 678.9 586.5 678 586.5 675.6C586.5 671.1 584 670.2 578.7 672.8C576.3 674 574 675 573.7 675C572.9 675 565 660.8 565 659.3C565 658.7 568.9 655.9 573.8 653.2C582.1 648.5 582.5 648.1 582.5 644.9C582.5 642 582.2 641.5 580 641.4C578.6 641.3 572.3 643.9 566 647.2Z" fill="black"/>
<path d="M398.4 656.4C385.5 662.4 373.8 690.5 377.9 705.2C379.5 710.7 381.6 713.2 386.8 715.9C392.5 718.8 396.7 718.6 402.1 715.1C410.9 709.4 413 705.1 407.8 703.1C406 702.4 404.9 702.8 402.5 705C398 709.3 394.8 710.2 390.6 708.5C385.7 706.4 384.7 704 385.3 695.6C386 685.4 390.1 675.1 396.2 668.5C401.9 662.2 403.7 661.4 408.4 663.1C412.5 664.6 413.9 666.8 414.8 673.4C415.5 678.6 417.5 680.8 420.5 679.6C422.1 679 422.2 678 421.7 671.6C421 662.1 418.3 657.7 412.1 655.5C406.2 653.5 404.4 653.6 398.4 656.4Z" fill="black"/>
<path d="M529.6 661.6C521 663.8 515.1 672.2 516.6 679.9C517 681.7 519.1 685.1 521.4 687.6C525 691.5 526.4 692.2 532.5 693.6C547.5 697 552 700.1 553.5 708.1C554.1 711.3 553.9 712 551.3 713.7C549.8 714.8 547 716.2 545.1 716.9C542.2 717.8 541.2 717.7 538.3 716C534.5 713.8 531.8 713.5 528.9 715C526 716.6 526.7 719.2 530.9 722.1C538.2 727.2 547.5 726.7 555.2 720.8C560.4 716.8 562.3 710.7 560.4 704.4C557.4 694.4 551.9 690.1 538.1 686.9C528.2 684.6 525.6 682.9 524.4 677.7C523.9 675.2 524.3 674.4 526.6 672.4C530.6 669.3 536.4 668.4 539.5 670.4C542.1 672.1 546.7 672.5 548.8 671.1C551.1 669.7 549.7 666.7 545.5 663.9C540.6 660.6 536 659.9 529.6 661.6Z" fill="black"/>
<path d="M434.7 664.7C434.4 665.2 431.9 679.2 429 695.9C424.7 721.1 424.1 726.5 425.2 727.5C426.6 728.8 452.6 733.4 453.9 732.5C455.3 731.7 455.8 727.1 454.6 725.6C454 724.9 449.9 723.7 445.5 723C431.9 721 432.7 721.5 433.5 715.6C433.8 712.8 434.6 708.4 435.1 705.9L436.1 701.3L440.3 702.1C446.9 703.4 448 703.2 449 700.4C450.6 696.4 448.8 694.4 443 693.6C437.2 692.8 437.2 692.8 439.3 680.5C440.7 672.5 439.7 672.9 452.8 674.9C463 676.4 463.9 676.1 464.3 671.4L464.5 668.5L452 666.3C438.3 663.9 435.3 663.6 434.7 664.7Z" fill="black"/>
<path d="M501.1 667.9C500 668.6 499.9 672.3 500.5 689.1C500.9 700.3 500.9 709.2 500.6 708.9C500.2 708.5 494.6 699.5 488.2 688.9C479.6 674.8 475.8 669.4 474.3 669.2C473.2 669 472.1 669.5 471.8 670.2C471.6 670.9 471.9 680.9 472.6 692.5C473.3 704 473.9 717.8 473.9 723.1C474 730.1 474.4 733.1 475.4 733.9C477 735.3 481.7 734.4 482.2 732.7C482.5 732 482.1 722.7 481.4 712C480.8 701.3 480.4 692.4 480.5 692.2C480.6 692.1 486.2 701 493 712.1C499.7 723.1 505.9 732.4 506.7 732.7C507.5 733 508.6 732.8 509.2 732.2C510.7 730.7 507.4 668.9 505.7 667.8C504.1 666.8 502.8 666.8 501.1 667.9Z" fill="black"/>
<path d="M101.7 198.7C100.4 199.9 101 202.9 102.8 203.9C103.7 204.4 114.2 212.1 126 220.9C137.8 229.7 148 237 148.7 237C149.4 237 150.4 236.1 151 235C151.9 233.3 150.4 231.9 136.8 221.7C104.9 198.1 103.3 197 101.7 198.7Z" fill="black"/>
<path d="M841.5 208.2C811.1 230.6 808.9 232.4 809.2 234.5C809.4 235.6 810.2 236.6 811 236.7C811.8 236.9 822.9 229.2 835.5 219.7C852 207.4 858.5 201.9 858.5 200.5C858.5 199.4 857.8 198.4 857 198.2C856.1 198.1 849.1 202.6 841.5 208.2Z" fill="black"/>
<path d="M209 213.5C203.3 219.3 198.9 224.2 199.1 224.5C202.1 227.9 244.6 270 245 270C246.1 270 266 249.2 266 248.1C266 247.6 264.8 246.2 263.3 245L260.6 242.9L256.7 246.7C254.5 248.8 250.9 252.4 248.7 254.8L244.7 259.1L237.8 252.3C234.1 248.6 231 245.1 231 244.4C231 243.8 232.6 241.9 234.5 240.1C238.5 236.5 238.8 235 236.2 232.7C233.6 230.3 232.5 230.5 227.9 234.7L223.9 238.3L216.9 231.4L210 224.5L217.5 217C221.6 212.9 225 208.7 225 207.9C225 206.2 222 203 220.4 203C219.8 203 214.7 207.7 209 213.5Z" fill="black"/>
<path d="M88.6999 217.7C86.2999 220 89.3999 222.6 111.6 237.3C124.5 246 136 253 137.1 253C138.4 253 139 252.3 139 250.7C138.9 248.9 134.3 245.5 115.2 232.7C102.1 224.1 90.8999 217 90.3999 217C89.7999 217 88.9999 217.3 88.6999 217.7Z" fill="black"/>
<path d="M844.1 233.1C820.3 249.1 817 252 822.5 252.8C825.6 253.2 871.5 222 871.5 219.5C871.5 218.4 870.8 217.4 869.9 217.2C869.1 217.1 857.5 224.2 844.1 233.1Z" fill="black"/>
<path d="M755.4 235.9C747.7 240.6 745.7 248.1 748.5 261.9C750.4 271.5 749.8 274.6 744.8 279.7C740.6 284.1 737.9 283.9 732.9 278.9C729.1 275.1 728.8 274.5 729.4 270.6C730 267 729.7 266 727.6 263.7C726.2 262.2 724.7 261 724.2 261C721.2 261 719.4 269.8 721.1 276.5C722.5 281.9 729.1 288.3 735.1 290.2C743.4 292.6 752 287.1 755.9 276.6C757.8 271.4 757.8 270.9 756.3 260.1C754.9 250.6 754.9 248.6 756.1 246.4C759 240.8 764.5 241.2 769.6 247.3C771.8 249.9 772.1 251.1 771.6 254.7C771.1 258.4 771.4 259.3 773.6 261.5C775.5 263.5 776.5 263.8 777.9 263C781.8 261 781.4 247.4 777.3 242.7C770.1 234.3 762.1 231.8 755.4 235.9Z" fill="black"/>
<path d="M75.7 237.7C75.3 238 75 238.9 75 239.6C75 241.2 124.6 270.2 126.7 269.8C130.8 269 128.5 265.7 120.5 261C79.1 236.4 77.7 235.7 75.7 237.7Z" fill="black"/>
<path d="M877.5 238.4C876.4 239.2 865.5 245.7 853.2 253C836.7 262.7 831 266.6 831.2 267.8C831.4 268.7 832.4 269.6 833.5 269.8C834.6 269.9 846 263.8 859.5 255.7C878.1 244.6 883.6 241 883.8 239.2C884.1 237.5 883.7 237 881.8 237.1C880.5 237.1 878.6 237.7 877.5 238.4Z" fill="black"/>
<path d="M183.6 241.8C182.8 242.8 178.4 248.5 174.1 254.5C165.7 265.9 165.1 268 170.2 269.6C171.9 270.1 173 269.4 175.7 266.1C177.6 263.9 179.6 262 180.1 262C180.6 262 190.6 269.2 202.4 278C214.1 286.8 224.4 294 225.2 294C227.1 294 229 292 229 289.8C229 288.7 221.1 282.2 207.1 271.8C195 262.8 185.1 255 185.1 254.5C185.1 253.9 186.4 251.9 188 250C191.8 245.7 191.8 243.5 188.1 241.6C185.5 240.2 185.1 240.2 183.6 241.8Z" fill="black"/>
<path d="M64.3001 258.6C64.0001 259.4 64.1001 260.5 64.6001 260.9C67.2001 263.3 115.3 288.1 116.8 287.8C117.7 287.6 118.5 286.7 118.5 285.6C118.5 283.8 115.9 282.2 84.2001 265.2C68.7001 256.9 65.4001 255.8 64.3001 258.6Z" fill="black"/>
<path d="M889 258.3C865.6 270.6 843.2 282.5 842.3 283.3C840.1 285 840.7 288 843.3 288C844.5 287.9 856.8 281.9 870.5 274.6C889.9 264.2 895.6 260.8 895.8 259.1C896.1 257.5 895.6 257 893.8 257C892.5 257 890.4 257.6 889 258.3Z" fill="black"/>
<path d="M773.5 287.5C744.2 304.6 744 304.7 744 306.8C744 309 745.9 311 747.8 311C749 311 759.7 305 768.6 299.3C770.6 298 771 298.4 775.4 306.1C778 310.5 779.9 314.7 779.7 315.4C779.4 316 775.3 318.8 770.5 321.5C758.5 328.2 757.5 329.1 758.4 332.3C758.8 334.1 759.7 335 761 335C762.8 335 773.6 328.9 803 311.3C812.4 305.6 814.5 304 814.5 302C814.5 297 811.9 297.4 800.4 304C794.4 307.5 789.2 310.4 788.9 310.6C788.2 311 779 295.6 779 294.1C779 293.6 783.7 290.4 789.4 287C795.2 283.6 800.4 280.3 801 279.5C802.4 277.8 800.3 274 798 274C797.2 274 786.2 280.1 773.5 287.5Z" fill="black"/>
<path d="M54.3 278.6C54 279.4 54.4 280.8 55.1 281.5C55.9 282.3 66.2 287.5 78 293C89.8 298.6 100.9 303.8 102.7 304.7C106.7 306.5 109.5 306.1 109.5 303.6C109.5 302 105.9 299.9 93 293.8C83.9 289.6 72.2 284 66.9 281.5C56.4 276.5 55.2 276.3 54.3 278.6Z" fill="black"/>
<path d="M876 289.4C856 299.1 850.5 302.1 850.5 303.6C850.5 304.7 851.3 305.6 852.5 305.8C854.6 306.1 902.4 283.9 904.9 281.5C906.6 279.8 905.6 277 903.3 277.1C902.3 277.1 890 282.7 876 289.4Z" fill="black"/>
<path d="M44.3 299.6C44 300.4 44.4 301.7 45.1 302.4C45.9 303.2 58.3 308.6 72.8 314.5C99 325.3 101.7 326 100.8 321.5C100.6 320.4 96.3 318.1 88.5 314.8C59.9 302.9 47.6 298 46.3 298C45.6 298 44.7 298.7 44.3 299.6Z" fill="black"/>
<path d="M903.5 301.4C899.1 303.2 887.6 308 878 312C868.4 315.9 859.9 319.6 859.3 320.2C857.6 321.6 857.7 323.9 859.5 324.6C860.6 325.1 898.3 310.3 912.8 303.7C915.5 302.4 915.9 298 913.3 298C912.3 298.1 907.9 299.6 903.5 301.4Z" fill="black"/>
<path d="M144.6 301.6C144.1 302.8 145.7 305 149.7 308.9C182.9 341.3 191.3 349.1 192.3 348.7C193 348.5 194 347.3 194.7 345.9C195.8 343.7 195.5 343.1 190.9 338.4L185.9 333.3L189.7 325.6L193.5 317.8L197.5 318.6C204.4 319.9 209.2 319.6 210.3 317.9C212.3 314.7 210.4 313.3 200.8 311.2C180.6 306.7 148.4 300 146.9 300C146 300 144.9 300.7 144.6 301.6ZM174.6 313.6C186 315.8 185.4 315.3 182.5 321C181.1 323.7 179.6 326 179.2 326C178.8 326 175.3 322.8 171.5 319C167.7 315.1 165.1 312 165.7 312C166.3 312 170.3 312.7 174.6 313.6Z" fill="black"/>
<path d="M37.4001 320.4C36.5001 321.1 35.9001 322.3 36.2001 323.1C36.5001 323.9 44.1001 327.1 53.1001 330.3C62.1001 333.5 74.4001 337.9 80.3001 340.1C86.3001 342.2 91.7001 344 92.5001 344C94.3001 344 95.1001 341.5 93.7001 339.8C93.0001 339 83.3001 335.1 72.0001 331C60.7001 327 48.7001 322.7 45.3001 321.4C40.2001 319.5 38.9001 319.4 37.4001 320.4Z" fill="black"/>
<path d="M903 325.6C893.4 329.2 881.2 333.6 876 335.4C868.4 338.1 866.4 339.2 866.2 340.9C866 342 866.5 343.3 867.3 343.5C868.7 344.1 921.7 325.5 923.5 323.9C924.5 322.9 923.1 319.8 921.4 319.4C920.9 319.3 912.6 322.1 903 325.6Z" fill="black"/>
<path d="M794.5 333C770 344.3 766.5 346.2 766.2 348.3C765.5 354 767.5 353.6 794.1 341.7C826.5 327.2 826 327.5 826 324.7C826 322.6 824.3 319.9 823.1 320.1C822.7 320.1 809.9 325.9 794.5 333Z" fill="black"/>
<path d="M127.6 339.4C126.1 340.5 117 365.5 117 368.5C117 370.1 121.2 371.5 123.4 370.7C124.2 370.4 125.4 368.2 126.1 365.9C128.1 359.5 124.5 358.9 162.9 372.6C172.5 376 180.9 378.6 181.7 378.3C183.3 377.7 184.6 373.2 183.4 372C182.9 371.5 171.1 367.1 157.2 362.2C143.2 357.2 131.6 352.9 131.3 352.7C131.1 352.4 131.6 350 132.6 347.3C133.6 344.6 134.1 341.7 133.8 340.8C133 338.8 129.5 337.9 127.6 339.4Z" fill="black"/>
<path d="M29.7 341.7C29.3 342 29 343.1 29 344.1C29 346 31.4 346.8 68.8 358.1C81.9 362 86.4 363 87.3 362.1C90.1 359.3 86.1 357.5 59.4 349.3C31.6 340.8 30.8 340.5 29.7 341.7Z" fill="black"/>
<path d="M910.5 346.1C901.7 348.8 889.4 352.6 883.3 354.6C874.1 357.4 872 358.4 872 360C872 361 872.5 362.2 873 362.5C874.3 363.3 928 347.2 929.9 345.4C931.7 343.8 930.6 341 928.3 341.1C927.3 341.1 919.3 343.4 910.5 346.1Z" fill="black"/>
<path d="M802.5 353.1C772 363.5 771.1 364 774.4 368.5C775.8 370.5 776 370.4 787.7 366.6C794.2 364.4 800.1 362.5 800.7 362.2C801.4 362 802.4 363 803 364.5C804 367.2 803.6 367.7 793 377.8C783.7 386.6 781.9 388.7 782.2 390.9C782.8 395.7 786.2 394.1 796.9 384.3L806.8 375L809.8 378C812.5 380.6 813.5 381 818.7 381C827.3 381 831.9 379.3 836.7 374.5C840.5 370.8 841 369.7 841 365.9C841 361.6 836.7 346.7 834.7 344.2C834.2 343.6 833.2 343.1 832.6 343.2C832 343.2 818.5 347.7 802.5 353.1ZM830.7 357.6C832.4 363.5 832.3 368.4 830.2 370.3C827.6 372.7 819.3 374.7 817.2 373.4C815.3 372.3 812.4 366.9 811 362.1L810.2 359.1L818.8 356.1C823.6 354.5 827.9 353.3 828.5 353.4C829 353.5 830 355.4 830.7 357.6Z" fill="black"/>
<path d="M23.4 364.5C23 365.3 23 366.6 23.3 367.4C23.8 368.7 75.1 382 79.7 382C82.6 382 83.6 380.2 81.7 378.3C80.5 377.1 63.9 372.6 26.2 363.5C24.7 363.1 23.8 363.5 23.4 364.5Z" fill="black"/>
<path d="M905.5 370.4C880.5 376.7 877.5 377.7 877.5 379.5C877.5 380.9 878.2 381.6 880 381.7C881.4 381.9 894.6 378.9 909.5 375.2C930.6 370 936.6 368.1 936.8 366.8C937.6 362.8 933.9 363.2 905.5 370.4Z" fill="black"/>
<path d="M18.6999 386.7C17.1999 388.2 18.0999 391 20.2999 391.5C28.2999 393.4 72.7999 402 74.6999 402C77.1999 402 78.8999 399.5 77.2999 397.9C76.4999 397.1 23.4999 386 20.4999 386C19.7999 386 18.9999 386.3 18.6999 386.7Z" fill="black"/>
<path d="M910.1 391.6C895.5 394.5 883.2 397.4 882.7 397.9C881.3 399.3 882.7 402 884.8 402C885.8 402 898.9 399.5 914 396.5C929.1 393.5 941.6 391 941.8 391C942 391 942 390 941.8 388.7C941.6 387.2 940.8 386.4 939 386.3C937.6 386.2 924.6 388.6 910.1 391.6Z" fill="black"/>
<path d="M116.2 392.8C112.1 395 108.7 400.1 107.1 406.4C105.6 412.5 107.6 419.2 112.1 423.6C114.8 426.2 115.8 426.5 121.5 426.4C129.2 426.3 132.5 424.4 139 416C145.2 408.1 148.5 406 154.6 406C161.9 406 163.5 407.5 163.4 414.6C163.3 420.4 163.2 420.6 157.7 424.3C155.3 426 153.9 431.4 155.4 433.5C156.5 435 156.9 434.9 160.8 433.2C167.5 430.2 171.2 424.4 171.8 416C172.2 410.1 171.9 408.6 170 405.5C165.9 398.8 156.1 396.3 147.1 399.5C141.6 401.4 139.5 403.1 132 411.8C125.8 419.1 125.7 419.1 121.1 418.8C116.7 418.5 116.5 418.3 115.6 414.9C114.1 409 115.6 404.2 119.5 401.9C122 400.4 123.1 398.9 123.6 396.5C124.6 390.7 122.3 389.6 116.2 392.8Z" fill="black"/>
<path d="M816.3 399.8C800.8 403 787.6 406 787 406.6C786.1 407.5 786.4 410.6 788 418.6C791.1 434.3 791.7 436 794.5 436C799.4 436 799.9 434.1 797.8 423C796.7 417.4 796.1 412.6 796.4 412.3C797.1 411.6 814.4 408.1 814.8 408.5C815 408.7 815.7 411.2 816.4 414.2C817.4 418.8 817.9 419.5 820.1 419.8C824.2 420.3 826 417.8 824.9 413.3C823.3 406.3 823.2 406.4 833 404.5C838 403.5 842.4 403 842.8 403.4C843.1 403.8 844.3 408.7 845.5 414.3L847.5 424.5L851.1 424.8C853.4 425 854.9 424.6 855.3 423.8C855.5 423.1 854.5 416.2 853 408.5L850.3 394.5L847.4 394.3C845.8 394.3 831.8 396.7 816.3 399.8Z" fill="black"/>
<path d="M15.3 408.7C13.9 409.2 13.5 412.6 14.8 413.4C15.2 413.6 28.3 415.7 43.9 418C67.6 421.4 72.6 421.9 73.7 420.7C77 417.5 73.3 416.4 45.5 412.5C30.7 410.4 18.1 408.6 17.5 408.4C17 408.3 15.9 408.4 15.3 408.7Z" fill="black"/>
<path d="M914.8 412.4C899.5 414.6 886.6 417 886 417.6C884.9 418.7 885.6 422 887 422C889.2 422 942.8 414 944.3 413.4C946.4 412.6 946.5 409.4 944.4 408.6C943.5 408.3 942.8 408 942.7 408.1C942.6 408.2 930 410.1 914.8 412.4Z" fill="black"/>
<path d="M12.3 431.7C11.6 432 11 433 11 434.1C11 435.2 11.6 436.3 12.3 436.5C14 437.1 62.7 442 67.3 442C71.1 442 73.3 439.9 71.4 438C70.9 437.5 59 435.9 45 434.5C31 433.2 18.2 431.9 16.5 431.7C14.9 431.4 12.9 431.5 12.3 431.7Z" fill="black"/>
<path d="M918.3 434C903.3 435.5 890.3 437 889.5 437.4C888.7 437.7 888 438.9 888 440C888 441.7 888.6 442 891.9 442C896.6 442 946 437.1 947.8 436.5C949.5 435.9 949.3 432.3 947.4 431.6C946.5 431.3 945.8 431.1 945.7 431.1C945.6 431.2 933.2 432.5 918.3 434Z" fill="black"/>
<path d="M9.30004 455.6C9.00004 456.4 9.20004 457.6 9.90004 458.3C10.5 458.9 20.3 459.9 34.7 460.7C60.3 462.1 70.2 462.1 70.7 460.5C71.6 457.5 68.9 457 42.5 455.5C9.30004 453.6 10.1 453.6 9.30004 455.6Z" fill="black"/>
<path d="M913.6 455.6C900.9 456.4 890.2 457.4 889.7 457.9C889.2 458.4 889 459.6 889.3 460.4C890.1 462.4 895.2 462.4 926.8 460.6C944 459.7 949.3 459.1 950 458C950.5 457.1 950.5 456.1 949.8 455.3C948.6 453.8 944.8 453.8 913.6 455.6Z" fill="black"/>
<path d="M131.1 459.9C129.7 462.5 129.6 497.5 131 500.1C132.2 502.3 135.3 502.6 136.9 500.6C137.7 499.7 138 493.1 137.8 478.9L137.5 458.5L134.8 458.2C133 458 131.8 458.5 131.1 459.9Z" fill="black"/>
<path d="M822.1 459.9C821.4 461.1 821 469.1 821 480.2C821 500.2 821.5 502.5 826.1 501.8L828.5 501.5V480V458.5L825.8 458.2C824 458 822.8 458.5 822.1 459.9Z" fill="black"/>
<path d="M9.7 477.7C9.3 478 9 479.2 9 480.2C9 481.9 10.4 482 39.3 481.8C68.7 481.5 69.5 481.5 69.5 479.5C69.5 477.6 68.7 477.5 39.9 477.2C23.7 477.1 10.1 477.3 9.7 477.7Z" fill="black"/>
<path d="M890.7 477.7C890.3 478 890 479.2 890 480.2C890 481.9 891.4 482 920.3 481.8C949.7 481.5 950.5 481.5 950.5 479.5C950.5 477.6 949.7 477.5 920.9 477.2C904.7 477.1 891.1 477.3 890.7 477.7Z" fill="black"/>
<path d="M38.5999 498.6C23.1999 499.4 10.1999 500.4 9.69989 500.9C9.19989 501.4 8.99989 502.6 9.29989 503.4C10.0999 505.4 14.1999 505.4 45.6999 503.9C69.5999 502.8 72.8999 502.1 69.9999 498.6C69.2999 497.7 68.1999 497.1 67.5999 497.1C66.9999 497.2 53.8999 497.9 38.5999 498.6Z" fill="black"/>
<path d="M890 498C889.3 498.4 889 499.6 889.2 500.6C889.6 502.7 891.3 502.8 929.1 504.7C945.1 505.5 950.1 505.2 950.7 503.5C951.6 500.5 949 500.1 926.5 499C913.8 498.5 900.7 497.8 897.4 497.6C894 497.4 890.7 497.6 890 498Z" fill="black"/>
<path d="M41.2 520C26.2 521.6 13.3 523.1 12.5 523.4C11.7 523.7 11 524.9 11 526C11 527.7 11.6 528 14.9 528C19.6 528 69 523.2 70.8 522.5C72.5 521.9 72.3 518.3 70.4 517.6C69.5 517.3 68.8 517.1 68.7 517.1C68.6 517.2 56.2 518.5 41.2 520Z" fill="black"/>
<path d="M889.3 517.7C888.6 518 888 519 888 520.1C888 521.2 888.6 522.3 889.3 522.5C891 523.1 939.7 528 944.3 528C948.1 528 950.3 525.9 948.4 524C947.9 523.5 936 521.9 922 520.5C908 519.2 895.2 517.9 893.5 517.7C891.9 517.4 889.9 517.5 889.3 517.7Z" fill="black"/>
<path d="M146.5 539.1C135 541.8 121.4 544.9 116.3 546.1C106.8 548.3 105.1 549.5 107 553.1C108.4 555.6 110.7 555.5 123.5 552.5C129.3 551.1 134.5 550.2 134.9 550.5C135.4 550.7 136.3 553.7 137 557.2C138.4 564.7 142.4 569.2 149.1 571C158.1 573.5 171.1 567.6 173.6 560C175.2 555 170.8 533.7 168.2 534.1C167.8 534.1 158.1 536.4 146.5 539.1ZM163.4 544.8C163.6 545.2 164.4 548.4 165.1 551.9L166.4 558.2L163.8 560.5C160.3 563.5 150.5 565 148.4 562.8C146.9 561.3 143.6 549.1 144.4 548.2C145 547.6 158.8 544.3 161.2 544.1C162.1 544 163.1 544.3 163.4 544.8Z" fill="black"/>
<path d="M796.3 538.1C790.9 539.7 787.6 544.8 785 556C783.7 561.5 782.9 566.2 783.2 566.6C783.6 566.9 796.8 570 812.7 573.5C828.5 577 842.2 580.1 843 580.4C846.3 581.6 849.2 576.3 846.5 574C845.7 573.3 839.5 571.5 832.8 570.1C821 567.4 820.5 567.2 820.8 564.9C821 563.6 821.5 562.2 821.8 561.9C822.2 561.6 828.6 560.1 836 558.5C843.4 557 850.3 555.4 851.3 554.8C853.4 553.7 853.6 549.2 851.6 548.4C850.8 548.1 844.4 549 837.4 550.4C830.4 551.8 824.3 553 823.9 553C823.4 553 822.6 551.2 822 549.1C820.6 544 815.5 539.7 808.9 538.2C803.1 536.8 800.8 536.8 796.3 538.1ZM811.9 547.6C814.1 549.1 814.2 549.6 813.7 556.3C813.4 560.1 812.7 563.7 812.2 564.2C811.3 565.1 796.4 562.5 793.9 561C792.4 560 794.3 551.1 796.7 547.4C798.3 544.9 798.7 544.8 803.9 545.4C807 545.8 810.5 546.8 811.9 547.6Z" fill="black"/>
<path d="M42.2 542C28.4 544.1 16.3 546 15.5 546.4C14.7 546.7 14 547.9 14 549C14 551.7 15.5 551.7 46.8 547.1C72.9 543.4 75.6 542.6 74.3 539.3C73.6 537.5 70.9 537.7 42.2 542Z" fill="black"/>
<path d="M885.3 539.6C885 540.4 885.2 541.6 885.8 542.2C886.9 543.3 935.4 550.9 941.8 551C945.1 551 947.2 548.8 945.4 547C944.6 546.2 892.1 538 887.7 538C886.7 538 885.7 538.7 885.3 539.6Z" fill="black"/>
<path d="M46.5 562.9C23 567.7 18.4 568.9 18.2 570.4C18 571.4 18.2 572.6 18.8 573.2C20.2 574.6 77 563.1 77.7 561.3C78.2 560 76.3 556.9 75.1 557.1C74.8 557.2 61.9 559.8 46.5 562.9Z" fill="black"/>
<path d="M883.3 557.7C881.9 558.2 881.5 561.6 882.8 562.3C884.4 563.4 939.4 574 940.7 573.6C942.6 572.8 942.3 569.2 940.3 568.6C939.3 568.3 926.8 565.8 912.5 563C898.2 560.2 886.1 557.7 885.5 557.6C885 557.4 883.9 557.5 883.3 557.7Z" fill="black"/>
<path d="M53 583.9C38.4 587.6 25.7 590.9 24.8 591.2C23.8 591.6 23 592.9 23 594C23 595.5 23.7 596 25.5 596C29.1 596 80.2 583.1 81.7 581.8C83.5 580.4 83.3 579.2 81.3 578.2C80.1 577.6 71 579.4 53 583.9Z" fill="black"/>
<path d="M878.4 578.5C874.5 581.3 877.7 582.6 905.3 589.4C920.5 593.1 933.7 596 934.7 595.8C935.7 595.6 936.5 594.6 936.5 593.5C936.5 591.7 933.4 590.7 908.3 584.4C885 578.5 879.8 577.5 878.4 578.5Z" fill="black"/>
<path d="M149 589.4C120 600.8 118.1 602 121 605.5C122.9 607.8 124.9 607.4 137.2 602.6L148.5 598.1L149.8 600.7C150.6 602 151 603.3 150.8 603.5C130.4 624.4 129.9 625 130.2 627.7C130.8 633.1 133.8 631.7 144.5 621L154.4 611L157.2 613.7C163.2 619.5 176.6 617.4 183.9 609.5C187.4 605.6 188 604.4 188 600.5C188 597.7 186.8 593 184.8 588.2C181.3 579.6 180.3 577.9 178.6 578.1C178 578.2 164.7 583.3 149 589.4ZM177.9 594.9C179.3 598.6 180.1 602.4 179.7 603.2C178.9 605.3 171 609 167.4 609C163.6 609 160.8 606 158.7 599.7L157.1 594.9L159.8 593.9C170.8 589.5 174.6 588.1 175 588C175.3 588 176.6 591.1 177.9 594.9Z" fill="black"/>
<path d="M779.4 578.8C777.9 579.8 768.1 605 768.6 606.4C769.3 608.1 827.3 629.8 828.9 629C830.6 628.1 838.9 606.6 838.9 602.8C839 600.6 838.4 599.9 836.4 599.4C833 598.5 832.2 599.5 827.9 610.2C825.5 616.2 823.7 619.4 822.9 619.2C820.2 618.6 807.5 613.7 806.6 612.9C806.1 612.5 806.6 609.9 807.6 607L809.5 601.8L807.1 599.9C804 597.4 801.6 598.7 799.5 604.5C798.5 607 797.2 609 796.6 609C795.4 609 779.8 603.2 779.1 602.5C778.9 602.2 780.5 597.5 782.6 591.9L786.4 581.8L784.1 579.9C781.5 577.8 781 577.7 779.4 578.8Z" fill="black"/>
<path d="M69.0001 601.6C27.4001 614.5 29.0001 614 29.0001 616C29.0001 617 29.5001 618.2 30.0001 618.5C31.3001 619.3 85.0001 603.2 86.9001 601.4C88.7001 599.8 87.6001 597 85.3001 597C84.3001 597.1 77.0001 599.1 69.0001 601.6Z" fill="black"/>
<path d="M872.7 597.7C872.3 598 872 599.1 872 600.1C872 601.5 873.6 602.4 878.3 603.8C926.8 618.7 929.1 619.3 930.2 618.2C932.3 616.1 929.7 613.7 923.4 611.7C896.2 603.3 875.1 597 874.3 597C873.8 597 873 597.3 872.7 597.7Z" fill="black"/>
<path d="M63 625.9C40.4 634.1 36.5 635.8 36.5 637.5C36.5 638.8 37.3 639.6 38.5 639.8C41.2 640.2 93 621.6 94.1 619.9C95.1 618.2 93.3 616 91.1 616.1C90.2 616.2 77.6 620.6 63 625.9Z" fill="black"/>
<path d="M866.7 616.7C866.3 617 866 618.1 866 619C866 620.4 871.9 622.9 892.8 630.4C907.5 635.7 920.3 640 921.3 640C923.3 640 924.7 637.3 923.4 636C922.5 635.1 915.2 632.4 882.7 620.9C868.1 615.7 867.7 615.6 866.7 616.7Z" fill="black"/>
<path d="M761.7 620.2C756.2 629.2 749 643.5 749.4 644.5C749.6 645.2 752.7 647.4 756.2 649.3C796.6 671.7 804.3 675.8 805.4 675.4C806.1 675.1 807.6 673 808.8 670.7C809.9 668.4 813 662.8 815.5 658.3L820.1 650.1L818 648C816.8 646.8 815.1 646 814.2 646.2C813.3 646.4 810.3 650.4 807.5 655.2C804.7 660 802.1 664.2 801.8 664.5C801.1 665.3 785.9 657 785.4 655.5C785.1 654.8 785.8 652.6 786.9 650.6C789.6 645.8 789.5 644.2 786.6 642.8C783.1 641.3 781.3 642.3 778.9 647.3L776.7 651.7L768.6 647.2C764.2 644.7 760.3 642.5 760 642.3C759.7 642 761.7 637.9 764.3 633C769.5 623.2 769.8 622 767.2 619.7C764.7 617.4 763.3 617.6 761.7 620.2Z" fill="black"/>
<path d="M185.4 628C183.2 628.5 178.7 629.9 175.4 631.2C154.5 639.8 143.2 656.7 150.2 669.1C156.8 680.8 182.1 677.4 197.6 662.8C208.8 652.3 211.3 644.8 206.8 635.5C205.1 631.9 203.8 630.7 200.6 629.6C194.9 627.6 190.2 627.1 185.4 628ZM197.3 637.4C198.3 638.2 199.6 640.4 200.1 642.4C201.4 646.9 199.5 650.4 192 657.4C182.7 666.1 166.5 671.4 160.8 667.6C158 665.7 156 662 156 658.5C156 653 170.8 640.8 181.5 637.4C186.8 635.7 195.1 635.7 197.3 637.4Z" fill="black"/>
<path d="M71.9999 645.6C57.9999 651.4 45.8999 656.8 45.0999 657.5C43.4999 659.1 44.2999 662 46.2999 662C47.0999 662 59.4999 657 73.9999 651C88.4999 644.9 100.6 640 100.8 640C101.9 640 100.2 635.5 98.9999 635.3C98.1999 635.1 85.9999 639.8 71.9999 645.6Z" fill="black"/>
<path d="M858.3 636.6C857.4 639 859.5 640.3 873 645.8C879.9 648.6 891.6 653.4 899 656.5C906.4 659.5 913.1 661.8 913.8 661.5C914.5 661.2 915 660 914.8 658.9C914.6 657.1 910.1 654.9 888.1 645.9C873.6 639.9 861.1 635 860.3 635C859.6 635 858.7 635.7 858.3 636.6Z" fill="black"/>
<path d="M90 661C56.5 676.9 54 678.2 54 680.2C54 681.2 54.6 682.3 55.4 682.6C56.2 682.9 68.7 677.6 83.1 670.8C104.8 660.6 109.6 658 109.8 656.2C110.4 652.5 105.6 653.6 90 661Z" fill="black"/>
<path d="M850.3 655.6C850 656.4 850.1 657.5 850.6 658C851.5 658.8 890.3 677.3 899.3 681.2C902.7 682.7 904.4 683 905.2 682.2C907.5 679.9 904.5 677.6 889.3 670.3C852.7 652.8 851.6 652.4 850.3 655.6Z" fill="black"/>
<path d="M739.4 658.4C739.1 659.8 739.1 661.3 739.4 661.9C739.7 662.4 744.9 666.3 750.8 670.6C763.4 679.8 770.2 685.1 769.7 685.6C769.4 686 731.5 680.6 725.9 679.5C723 678.9 720.6 680.9 721.5 683.1C721.9 683.9 725.6 687 729.8 690C734 693 745.1 701.2 754.4 708.3C763.7 715.3 771.9 721 772.8 720.8C773.6 720.6 774.9 719.5 775.7 718.4C777.5 715.7 778.2 716.4 759.2 702.1C750.8 695.8 744.1 690.6 744.3 690.4C744.4 690.3 754.8 691.8 767.5 693.6C780.1 695.5 791 696.8 791.7 696.5C795.5 695.1 792 691.7 768.6 674.2C755 664 743.3 656 742.2 656C740.7 656 739.8 656.8 739.4 658.4Z" fill="black"/>
<path d="M214.8 668.3C195.9 683 175.3 699.5 173.8 701.2C172.4 702.7 172.3 703.6 173 705.1C174.9 708.5 178.3 707.2 188.5 699L198.5 691.1L202.4 695.5C206.6 700.5 207.9 700.9 210.3 698.2C212.7 695.6 212.4 694.4 208.8 689.9C206.9 687.5 206 685.6 206.6 685.1C210.3 681.4 220.5 674 221.4 674.3C222 674.5 225.2 678.1 228.4 682.3C232.5 687.7 235 690 236.5 690C238.9 690 241 688.3 241 686.3C241 684.1 224.6 663 223 663.1C222.2 663.1 218.5 665.5 214.8 668.3Z" fill="black"/>
<path d="M101.5 678.7C64.8 698.6 63.9 699.2 64.2 700.8C64.8 703.9 68.5 703.1 77.5 698.2C82.5 695.5 93.8 689.4 102.8 684.6C115.1 677.9 119 675.4 119 673.9C119 670.5 114.2 671.9 101.5 678.7Z" fill="black"/>
<path d="M841 673.9C841 676.2 842.3 676.9 870.8 691.9C882.4 698.1 892.8 703 893.8 702.8C894.7 702.6 895.5 701.6 895.5 700.5C895.5 698.9 890.2 695.7 870.5 685.3C856.8 678 844.5 672 843.3 672C841.7 672 841 672.6 841 673.9Z" fill="black"/>
<path d="M100 704.4C82 714.9 75.5 719.3 75.5 720.6C75.5 725.3 78 724.1 114.8 702.3C125.1 696.1 129 693.3 129 691.9C129 690.6 128.3 690 126.7 690C125.5 690 113.4 696.5 100 704.4Z" fill="black"/>
<path d="M831.4 691.5C831 692.4 831.1 693.5 831.6 693.9C834.4 696.5 880.4 723 882 723C883.4 723 884 722.3 884 720.7C884 718.9 880 716.2 860.4 704.6C847.4 696.9 835.7 690.5 834.4 690.2C832.8 689.9 831.8 690.3 831.4 691.5Z" fill="black"/>
<path d="M708.7 695.8C707.7 696.9 707.2 698.3 707.6 699.1C708 699.9 711.9 703.8 716.4 707.9C723.8 714.7 734.3 724.6 747.7 737.4C752.5 742 753.1 742.3 755.5 741.2C756.9 740.6 758 739.2 758 738.2C758 736 714.8 694.7 712.1 694.2C711.1 694 709.6 694.8 708.7 695.8Z" fill="black"/>
<path d="M228 718.1C216.2 730.3 206.4 741.1 206.2 742C205.9 743.8 225.2 763 227.4 763C229.1 763 232 759.7 232 758C232 757.2 228.6 753.4 224.4 749.5C215.6 741.3 215.6 741.7 224.3 733.1L229.8 727.7L234.3 731.4C239.3 735.5 240.1 735.7 242.3 733.2C244.8 730.5 244.4 728.8 240.5 725.1C238.6 723.3 237 721.4 237 720.8C237 720.2 239.9 716.8 243.5 713.1L249.9 706.5L257.9 714.4C265.6 722 266 722.3 268.4 721C273.3 718.4 272.6 717.1 261.7 706.3C256 700.6 250.9 696 250.4 696C249.8 696 239.8 706 228 718.1Z" fill="black"/>
<path d="M111.5 722.6C88.9999 737.6 85.2999 741 89.2999 742.6C90.5999 743.1 132.8 716.1 138.2 711.3C140.3 709.4 139.4 707 136.6 707.1C135.5 707.1 124.2 714.1 111.5 722.6Z" fill="black"/>
<path d="M820 708.8C820 711.3 868.2 743.5 870.5 742.6C874.5 741.1 870.9 737.8 848 722.6C825.2 707.5 820 704.9 820 708.8Z" fill="black"/>
<path d="M690 715.7C686.1 716.5 680.3 721.7 678.9 725.7C673.4 742.6 697.6 773 716.8 773C720.9 773 724.6 771.1 728.3 767.2C732.1 763.3 733.2 754.2 730.5 748.9C727.8 743.6 721.1 735 719.6 735C717.3 735 708 743.1 708 745.1C708 746.1 709.1 747.7 710.6 748.6C713 750.2 713.2 750.2 716.1 748.1C719.5 745.6 720.7 746 722.6 750.6C724.8 755.8 724.4 759.3 721.2 762.3C715.4 767.8 707.5 764.7 696.5 752.7C689.7 745.3 687.1 740.5 686.3 734C685.8 729.4 685.9 728.9 689.1 726.1C693 722.5 695.2 722.3 700.4 725.1C703.5 726.8 704.8 727 706.7 726.1C709.6 724.8 709.7 721.5 706.8 719.6C704.6 718.2 694.3 714.9 693.1 715.1C692.8 715.2 691.4 715.5 690 715.7Z" fill="black"/>
<path d="M124.5 740C106.5 753.3 101.5 757.5 101.5 759.2C101.5 763.1 104.2 762.2 113.6 755.2C118.5 751.5 129 743.8 136.8 738C147.9 729.9 151 727.1 151 725.3C151 723.8 150.4 723 149.3 723C148.3 723 137.2 730.7 124.5 740Z" fill="black"/>
<path d="M809.4 724.5C809.1 725.3 809 726.4 809.2 726.9C809.5 727.9 853.5 760.9 855.4 761.6C857.1 762.2 859.2 760.4 858.8 758.7C858.4 757 813.2 723 811.2 723C810.5 723 809.7 723.7 809.4 724.5Z" fill="black"/>
<path d="M278.9 731.6C274.8 732.8 274.1 733.5 271.6 738.6C268.1 745.7 268.5 749 274 761.1C276.2 765.8 278 771 278 772.6C278 776.4 273.1 784 270.7 784C265.2 784 258 778.1 258 773.5C258 770.8 253.8 766.7 251.3 767.2C249.9 767.5 249.4 768.6 249.2 773.1C248.9 778.1 249.2 779.2 252.2 783C257 789.3 263 792.3 270.3 791.8C275.1 791.4 276.5 790.9 279.4 788.1C283 784.6 286 777 286 771.1C286 768.9 284.2 763.8 281.5 758C279 752.8 277 747.6 277 746.5C277 745.4 277.9 743 279 741.2C280.9 738.2 281.4 737.9 284.3 738.6C290.6 739.9 295 744.4 295 749.4C295 752.3 300.2 756.3 302.6 755.3C304.8 754.5 304.4 745.4 301.9 741.1C299.6 737 293.9 732.6 289.5 731.6C287.9 731.2 285.8 730.7 285 730.5C284.2 730.3 281.4 730.8 278.9 731.6Z" fill="black"/>
<path d="M138.9 756.3C127.1 765.9 116.8 774.5 116.1 775.4C114.3 777.5 115.5 780.4 117.9 779.7C118.9 779.5 129.7 771.2 141.9 761.4C158.4 747.9 163.9 743 163.7 741.5C163.6 740.4 162.8 739.4 161.9 739.2C161 739 150.9 746.5 138.9 756.3Z" fill="black"/>
<path d="M796.3 740.6C795.5 742.6 796.4 743.5 820.9 763.4C832.2 772.6 842.1 779.9 842.9 779.8C843.8 779.6 844.5 778.5 844.5 777.4C844.5 775.9 839.7 771.4 827.5 761.4C818.2 753.8 808.3 745.7 805.5 743.3C800.3 738.8 797.4 737.9 796.3 740.6Z" fill="black"/>
<path d="M655.2 741.2C654.5 741.9 654 742.8 654 743.2C654 743.7 658.7 751.7 664.4 761C670.2 770.4 674.6 778 674.3 778C673.6 778 641.5 759.4 637.8 756.8C634.7 754.6 631.4 754.5 630.6 756.5C630.3 757.3 634.4 765 640.4 774.7C646.1 784 653.5 796.1 656.9 801.7C663.3 812.2 664.8 813.4 668.1 810.4C670.4 808.3 670.1 807.5 659.6 790.7C654.9 783.2 650.6 776.1 650 774.9C648.9 773 649 772.9 651.2 774.1C654 775.6 685.3 793.5 687.9 795.1C690.1 796.6 693 795.6 693 793.5C693 792.7 690.1 787.4 686.6 781.7C683.2 776.1 675.9 764.4 670.5 755.7C662.8 743.2 660.3 740 658.6 740C657.4 740 655.9 740.5 655.2 741.2Z" fill="black"/>
<path d="M151.5 773.7C138.5 785.6 130.1 794.1 130.2 795C130.9 798.7 135.3 796.2 148.2 784.5C171.5 763.5 177.4 757.5 176.7 755.7C176.3 754.7 175.4 754 174.6 754C173.8 754 163.4 762.9 151.5 773.7Z" fill="black"/>
<path d="M783.7 754.7C783.3 755 783 756 783 756.9C783 759.2 824.8 796.5 827.4 796.5C832.2 796.5 829.8 793 816.3 780.9C808.7 774.1 799 765.2 794.6 761.2C787.1 754.3 785.2 753.2 783.7 754.7Z" fill="black"/>
<path d="M318.5 758.3C313.5 761.1 311 765.9 311 772.8C311 777.6 311.6 779 317 787.4C322 795.2 323 797.4 323 801.1C323 806.9 319.9 812 316.5 812C311.2 812 304 807 304 803.4C304 800.3 298.4 796.3 296.1 797.7C294.2 798.9 294.4 805 296.6 809.1C301.4 818.5 316.1 822.9 323.9 817.3C327.9 814.4 331 807.4 331 801.4C331 794.5 329.6 790.9 323.3 781.6C320.4 777.3 318 773.1 318 772.3C318 771.5 318.7 769.6 319.5 768C320.8 765.5 321.7 765 324.9 765C329.8 765 335 768.5 336.5 772.8C337.7 776.6 341.9 779.6 344.5 778.6C346 778.1 346.2 777.1 345.7 773C344.9 766.7 341.2 761.9 335.1 759.2C327.8 755.9 323.2 755.7 318.5 758.3Z" fill="black"/>
<path d="M604.6 768.4C598.1 771.3 592.4 774.4 592 775.1C591.1 776.9 616 834 617.7 834C618.4 834 624.4 831.5 631.2 828.5C643.3 823.1 643.5 823 643.5 819.8C643.5 815.1 641 815.1 629.8 819.9L620.5 823.9L617.2 816.7C612.1 805.6 612.1 805.8 617.9 803C621.2 801.5 623 800 623 798.9C623 793.8 620.2 792.8 613.5 795.6C611.4 796.4 609.4 796.8 608.9 796.3C608.5 795.9 606.6 791.8 604.6 787.4L601.2 779.2L606.8 776.7C609.9 775.3 614.6 773.3 617.3 772.2C620.1 770.9 622 769.5 622 768.5C622 765.8 620 763 618.2 763C617.3 763.1 611.2 765.5 604.6 768.4Z" fill="black"/>
<path d="M166.4 789.2C151.5 803.9 146 810 146.2 811.5C146.4 812.6 147.3 813.5 148.2 813.5C150.6 813.5 191.2 773.1 190.8 771.1C189.9 766.6 186.5 769.1 166.4 789.2Z" fill="black"/>
<path d="M769.7 769.6C769.3 770 769 771.1 769 772C769 774.4 809.9 814.2 811.9 813.8C812.8 813.6 813.6 812.6 813.8 811.5C814 810 808.4 804 793.4 789.5C782.1 778.5 772.3 769.4 771.6 769.2C770.9 769.1 770.1 769.2 769.7 769.6Z" fill="black"/>
<path d="M352.1 802.2C340.2 833 339.9 834.5 345.4 834.5C347.8 834.5 348.4 833.8 350 829.5C352.2 823.4 356.9 811.1 361 800.5C369.6 778.4 370.3 776.1 369 774.5C368.3 773.7 366.8 773 365.5 773C363.6 773 362.1 776.2 352.1 802.2Z" fill="black"/>
<path d="M182.4 804C172 815.6 163.3 825.7 163.2 826.6C162.6 829.3 164.6 830.5 166.9 828.9C168.7 827.6 196.4 797.4 203.2 789.2C206 785.8 206 783 203.1 783C202.1 783 193.1 792.2 182.4 804Z" fill="black"/>
<path d="M392.5 784.9C382.7 789.5 375.3 802.3 373.2 818.5C371 834.7 375.8 845.5 386.1 848C392.4 849.5 396.5 848.2 401.8 842.8C409.9 834.6 415 821.4 415 808.4C415 795.3 410.9 786.8 403.7 785C401.4 784.4 398.8 783.7 398 783.5C397.2 783.2 394.7 783.9 392.5 784.9ZM404.3 795.5C407.2 798.2 407.7 801 407.1 812C406.8 818.7 402.9 828.9 398.3 835.2C395.2 839.5 394.4 840 391 840C382.1 840 378.4 831.3 381.5 817.4C383.5 808 387.1 799.5 390.7 795.7C394.3 792 400.3 791.9 404.3 795.5Z" fill="black"/>
<path d="M754.7 783.6C754.3 784 754 784.9 754 785.5C754 786.8 791.3 828 793.6 829.3C795.9 830.6 798.2 828.2 796.9 825.9C795.1 822.4 758.7 783.5 757.1 783.2C756.2 783 755.1 783.2 754.7 783.6Z" fill="black"/>
<path d="M530.1 791.4C529 792.7 530.9 803 540.7 850.3C541 851.9 542 853.4 542.8 853.8C544.5 854.4 567.5 850.3 570.3 848.8C572.4 847.7 572.5 845.1 570.6 842.5C569.3 840.7 569 840.7 558.5 842.9C552.7 844.2 547.7 845 547.6 844.8C547.4 844.7 544.9 833 542.1 819C539.3 805 536.7 792.7 536.4 791.7C535.8 789.6 531.7 789.4 530.1 791.4Z" fill="black"/>
<path d="M432.4 792.2C431 794.5 425.2 854.4 426.3 855.7C427.5 857.4 431.5 857.4 432.7 855.7C433.3 855.1 434.5 845.8 435.5 835.2C436.5 824.7 437.7 816 438.2 816C438.6 816 439 816.4 439 817C439 817.5 440.8 822.1 442.9 827.2C445.1 832.3 448.7 841 451 846.5C455.7 858.1 456.3 859.3 457.6 859.7C460.4 860.6 461 857.1 464.1 827.1C466.8 800.5 467.1 795.7 465.9 794.9C464.1 793.8 460.3 793.7 459.6 794.8C459.1 795.6 456 828.9 456 833.3C456 837.2 454.3 833.8 445.2 812.5C436.6 792.2 434.5 788.8 432.4 792.2Z" fill="black"/>
<path d="M495.7 794.7C495.4 795.2 492.2 809 488.6 825.5C484.9 842 481.7 856 481.5 856.7C480.8 858.9 483.8 861 486.3 860.1C487.9 859.5 488.9 857.7 490.2 853C491.1 849.6 492.2 846.5 492.5 846.1C492.9 845.8 496.8 845.3 501.3 845.2L509.5 844.8L511.8 851.4C514 857.5 514.4 858 517.1 858C518.8 858 520.3 857.4 520.7 856.5C521 855.6 516.7 841.8 511 825.7C505.4 809.6 500.7 795.9 500.5 795.2C500 793.9 496.4 793.5 495.7 794.7ZM502.8 826.2C504.6 831.2 505.8 835.5 505.6 835.7C505.4 835.9 502.6 836.4 499.4 836.7C493.7 837.3 493.7 837.3 494.3 834.9C494.7 833.6 495.7 829 496.7 824.7C497.6 820.5 498.6 817 498.9 817C499.3 817 501 821.1 502.8 826.2Z" fill="black"/>
<path d="M198.6 818.1C188.8 830.3 180.5 841.1 180.3 842.1C179.6 844.5 182.5 845.7 184.6 844C188.7 840.5 221.1 799.6 220.8 798.2C220.6 797.2 219.6 796.4 218.5 796.3C217 796.1 212.1 801.6 198.6 818.1Z" fill="black"/>
<path d="M739 798.2C739 801.4 775.6 845.2 777.8 844.8C781.8 844 779.5 840.4 761.5 818.5C743 796.2 739 792.6 739 798.2Z" fill="black"/>
<path d="M724 809C723.3 809.4 723 810.7 723.3 811.9C723.9 814.5 756 857.7 757.9 858.5C758.6 858.8 759.9 858.5 760.6 857.9C761.7 857 761.7 856.3 760.7 854.5C758.7 850.7 727.6 809.1 726.4 808.6C725.8 808.4 724.7 808.5 724 809Z" fill="black"/>
<path d="M215.8 831.3C206.6 843.7 198.8 854.4 198.5 855.1C197.8 857.2 199.6 859.4 201.4 858.7C203.7 857.8 237 812.8 236.7 811C236.6 810.2 235.6 809.4 234.5 809.2C232.9 809 228.9 813.8 215.8 831.3Z" fill="black"/>
<path d="M233.1 844C224.3 857.1 217 868.9 217 870C217 871.6 217.5 872.1 219.2 871.8C220.8 871.6 225.6 865.3 237.2 848.1C252.7 825.1 255.2 820 251.1 820C249.8 820 244.6 826.8 233.1 844Z" fill="black"/>
<path d="M706.3 821.5C705.5 823.9 737.7 872 740.2 872C744.7 872 743.1 868.5 727.4 845.2C718.7 832.2 711.1 821.2 710.5 820.8C708.8 819.6 707 819.9 706.3 821.5Z" fill="black"/>
<path d="M258.6 843.5C254.4 850.4 247.6 861.6 243.4 868.5C235.9 880.9 235 884 238.8 884C240.2 884 244.5 877.8 255.4 859.7C263.4 846.4 270 834.5 270 833.2C270 831.7 269.4 831 268.1 831C266.7 831 264 834.5 258.6 843.5Z" fill="black"/>
<path d="M689.4 832.5C689 833.5 694.6 843.7 703.7 858.8C715.1 877.6 719.2 883.6 720.8 883.8C722.5 884.1 723 883.6 723 882C723 880.8 716.4 868.9 708.3 855.4C697.6 837.6 693.1 831 691.8 831C690.8 831 689.7 831.7 689.4 832.5Z" fill="black"/>
<path d="M283.2 842.2C281.3 844.6 256 892.4 256 893.7C256 895.7 259 896.5 260.5 894.9C263 892.4 288.1 844.7 287.8 843.1C287.4 841.1 284.6 840.5 283.2 842.2Z" fill="black"/>
<path d="M672.7 841.6C671.1 843.2 672.6 846.5 685.4 870.5C695.5 889.2 699.3 895.5 700.7 895.5C701.7 895.5 702.6 894.7 702.8 893.5C703.2 890.8 677 841.6 674.9 841.2C674.1 841.1 673.1 841.2 672.7 841.6Z" fill="black"/>
<path d="M301.1 851.7C295.9 861.6 277 902.6 277 904.1C277 906.3 280.2 906.7 281.7 904.7C284.2 901.6 306 854.6 306 852.4C306 849.5 302.6 849 301.1 851.7Z" fill="black"/>
<path d="M654.7 850.6C653.4 852 654 854.5 657.7 862.5C678.8 907 679.3 908.1 682.1 905.3C683.5 903.9 682 900.2 667.2 869C659.1 852.1 656.7 848.6 654.7 850.6Z" fill="black"/>
<path d="M309.1 884.9C303 899.2 298 911.8 298 912.9C298 915.3 301.1 915.8 302.7 913.7C304.9 910.9 325.1 861.7 324.6 860.4C324.3 859.6 323.2 859 322.1 859C320.6 859 318.1 863.9 309.1 884.9Z" fill="black"/>
<path d="M635.5 860.2C635.2 861 638.6 870.4 643.1 881.1C647.6 891.7 652.6 903.8 654.2 907.7C656.5 913.2 657.7 915 659.2 915C660.2 915 661.3 914.4 661.6 913.6C661.9 912.8 657.2 900.3 651.2 885.8C642.1 864.1 639.9 859.4 638.1 859.2C636.9 859 635.8 859.5 635.5 860.2Z" fill="black"/>
<path d="M340 865.7C338.2 866.1 318.5 920.3 319.4 922.5C320.2 924.6 323.6 924.4 324.5 922.2C324.9 921.3 327.6 913.7 330.5 905.5C333.4 897.2 337.6 885.5 339.8 879.4C343 870.5 343.6 867.9 342.7 866.8C342 866 340.8 865.5 340 865.7Z" fill="black"/>
<path d="M617 866.5C616 867.7 617.7 873.2 625.7 895.7C635.6 923.6 637.4 926.9 639.8 922.3C640.5 920.9 638.3 913.8 631 893.6C625.6 878.8 620.5 866.3 619.7 865.9C618.8 865.3 617.8 865.6 617 866.5Z" fill="black"/>
<path d="M358.3 873.2C357.8 873.9 353.6 886.8 349 901.8C342.4 923.2 340.9 929.3 341.8 930.2C344.7 933.1 346.5 929.3 354.4 903.9C358.7 889.9 362.3 877.2 362.4 875.5C362.5 872.3 360.1 870.9 358.3 873.2Z" fill="black"/>
<path d="M597.4 873.4C597.1 874.2 600.6 887.4 605.2 902.7C611.4 923.5 614 930.6 615.2 930.8C619.4 931.6 618.8 927.8 610.6 901C606.1 886.3 602.1 873.9 601.7 873.2C600.6 871.6 598.1 871.7 597.4 873.4Z" fill="black"/>
<path d="M378.2 878.2C376.7 880.1 362.8 934 363.4 935.7C363.7 936.5 364.9 937 366.1 936.8C368.1 936.5 369 933.7 375.5 908.4C380.5 889 382.4 879.7 381.8 878.6C380.7 876.7 379.6 876.6 378.2 878.2Z" fill="black"/>
<path d="M578.3 878.7C577.6 880.5 579.8 890.6 586.8 918C590.9 934.3 591.8 936.5 593.6 936.8C594.8 937 596 936.5 596.2 935.8C596.8 934 583.6 880.4 582 878.5C580.4 876.5 579.1 876.6 578.3 878.7Z" fill="black"/>
<path d="M398 882C396.8 882.8 386 933.9 386 939.2C386 941.3 386.5 942 387.9 942C389 942 390.1 941.6 390.5 941C391.2 939.9 402 886.3 402 883.9C402 881.9 399.8 880.9 398 882Z" fill="black"/>
<path d="M559.3 881.7C558.6 882 558 883.2 558 884.5C558 886.7 567.5 936.3 568.6 940.2C569.2 942.3 572.8 942.6 573.6 940.6C574.4 938.5 563.3 883.8 561.8 882.4C561.1 881.8 559.9 881.4 559.3 881.7Z" fill="black"/>
<path d="M417 887.2C416 889.8 408.9 938.9 409 943.2C409 945.3 409.5 946 410.9 946C412 946 413.1 945.6 413.5 945.1C414.4 943.5 422.2 887.8 421.6 886.4C420.8 884.2 418.1 884.8 417 887.2Z" fill="black"/>
<path d="M538.3 886.7C537.7 888.3 545.5 943.3 546.6 945.1C547.4 946.4 550.7 946.2 551.2 944.7C551.7 943.4 543.7 889.4 542.7 886.6C541.9 884.5 539.1 884.6 538.3 886.7Z" fill="black"/>
<path d="M438 888C437.1 888.6 435.8 897.5 433.8 918.1C430.8 948.3 430.9 950.8 434.8 948.4C436.2 947.5 436.9 942.9 439.2 920.9C440.6 906.4 441.9 893.1 441.9 891.4C442 888.1 440.3 886.6 438 888Z" fill="black"/>
<path d="M518.2 888.5C517.8 889.4 518.3 898.9 519.6 911.3C520.8 922.9 522.1 936 522.5 940.3C523.2 948.4 524.8 950.8 527.5 947.9C528.5 946.7 528.2 941.3 525.9 917.6C523.1 890.2 522.5 887.1 519.8 887C519.4 887 518.7 887.7 518.2 888.5Z" fill="black"/>
<path d="M457.5 890.2C457.3 890.9 456.4 904.5 455.5 920.4C453.9 950.4 454 952.7 457.8 950.4C459 949.6 459.6 947.7 459.8 943.9C461.8 907.9 462.6 891.3 462.2 890.2C462 889.6 460.9 889 459.9 889C458.8 889 457.7 889.6 457.5 890.2Z" fill="black"/>
<path d="M478.1 890.4C477.3 891.3 477 900.3 477.2 921.1C477.5 948.9 477.6 950.5 479.4 950.8C480.4 951 481.6 950.6 482.1 949.8C483.5 947.6 483.2 891.6 481.8 890.2C480.3 888.7 479.5 888.7 478.1 890.4Z" fill="black"/>
<path d="M498.3 890.7C497.3 893.2 499.9 949.3 501.1 950.5C501.7 951.1 502.7 951.1 503.8 950.4C505.2 949.5 505.5 947.9 505.2 940.9C504.5 919.8 502.9 890.6 502.4 889.8C501.5 888.4 499 888.9 498.3 890.7Z" fill="black"/>
<text fill="black" style="white-space: pre" xml:space="preserve" font-family="Roboto Mono" font-size="75" letter-spacing="0em" text-anchor="middle"><tspan id="stamp-name" x="480" y="321.132"></tspan><tspan id="stamp-name-middle" x="480" y="401.132"></tspan><tspan id="stamp-name-line2" x="480" y="481.132"></tspan></text>
<text fill="black" style="white-space: pre" xml:space="preserve" font-family="Roboto Mono" font-size="75" letter-spacing="0em" text-anchor="middle"><tspan id="stamp-license" x="480" y="571.132"></tspan></text>
</svg>
